<svg width="492" height="492" viewBox="0 0 492 492" fill="none" xmlns="http://www.w3.org/2000/svg">
<rect x="351.353" y="284.813" width="33.0323" height="153.6" rx="6" transform="rotate(90 351.353 284.813)" fill="url(#paint0_linear_902_475)"/>
<path fill-rule="evenodd" clip-rule="evenodd" d="M239.043 229.484C239.043 261.866 212.792 288.116 180.411 288.116C148.029 288.116 121.778 261.866 121.778 229.484C121.778 197.102 148.029 170.852 180.411 170.852C212.792 170.852 239.043 197.102 239.043 229.484ZM257.21 310.295C237.216 329.303 210.176 340.968 180.411 340.968C118.84 340.968 68.9266 291.055 68.9266 229.484C68.9266 167.913 118.84 118 180.411 118C212.78 118 241.928 131.796 262.294 153.828C264.536 152.076 267.358 151.032 270.423 151.032H278.681C285.979 151.032 291.894 156.948 291.894 164.245V229.4C291.894 229.428 291.894 229.456 291.894 229.484C291.894 229.512 291.894 229.539 291.894 229.567V360.787C291.894 368.084 285.979 374 278.681 374H270.423C263.126 374 257.21 368.084 257.21 360.787V310.295Z" fill="url(#paint1_linear_902_475)"/>
<circle cx="396.647" cy="302.155" r="26.4258" fill="#538AA1"/>
<defs>
<linearGradient id="paint0_linear_902_475" x1="367.869" y1="284.813" x2="367.869" y2="438.413" gradientUnits="userSpaceOnUse">
<stop stop-color="#399983"/>
<stop offset="1" stop-color="#538AA1"/>
</linearGradient>
<linearGradient id="paint1_linear_902_475" x1="291.894" y1="246" x2="68.9266" y2="246" gradientUnits="userSpaceOnUse">
<stop stop-color="#538AA1"/>
<stop offset="1" stop-color="#399983"/>
</linearGradient>
</defs>
</svg>




