<svg width="51" height="55" viewBox="0 0 51 55" fill="none" xmlns="http://www.w3.org/2000/svg">
<path d="M37.1875 14.8959H37.2088M14.875 4.58337H36.125C41.993 4.58337 46.75 9.71344 46.75 16.0417V38.9584C46.75 45.2866 41.993 50.4167 36.125 50.4167H14.875C9.00697 50.4167 4.25 45.2866 4.25 38.9584V16.0417C4.25 9.71344 9.00697 4.58337 14.875 4.58337ZM34 26.0563C34.2622 27.9635 33.9602 29.9114 33.1367 31.6228C32.3133 33.3342 31.0104 34.722 29.4135 35.5889C27.8165 36.4557 26.0067 36.7575 24.2415 36.4511C22.4764 36.1448 20.8457 35.2461 19.5815 33.8827C18.3173 32.5193 17.4839 30.7608 17.1999 28.8572C16.9159 26.9536 17.1956 25.0019 17.9994 23.2796C18.8032 21.5574 20.0901 20.1524 21.6771 19.2643C23.264 18.3763 25.0702 18.0506 26.8388 18.3334C28.6427 18.6219 30.3128 19.5284 31.6023 20.9191C32.8919 22.3098 33.7325 24.1108 34 26.0563Z" stroke="#B3B3B3" stroke-width="2" stroke-linecap="round" stroke-linejoin="round"/>
</svg>
