<svg width="214" height="64" viewBox="0 0 214 64" fill="none" xmlns="http://www.w3.org/2000/svg">
<path fill-rule="evenodd" clip-rule="evenodd" d="M96.2868 44.6227C96.9365 44.4542 97.4299 44.2015 97.7666 43.8648V25.3135C97.7666 24.1345 97.4898 23.3645 96.9365 23.0036C96.3832 22.6186 95.5769 22.4261 94.5183 22.4261C93.9889 22.4261 93.4475 22.4622 92.8942 22.5344C92.3647 22.6066 91.9677 22.6788 91.7032 22.751V28.5979C91.7032 29.8972 91.7151 31.1965 91.7393 32.4958C91.7635 33.7951 91.8233 35.0944 91.9197 36.3937L91.7393 36.4298C91.4025 35.5636 91.0896 34.8057 90.8009 34.156C90.5121 33.4823 90.1873 32.7725 89.8264 32.0266L86.2172 24.736C85.7361 23.7495 85.0865 23.1239 84.2682 22.8593C83.4742 22.5705 82.6322 22.4261 81.7418 22.4261C80.9478 22.4261 80.2017 22.5464 79.5041 22.7871C78.8065 23.0277 78.2889 23.3886 77.9521 23.8698V37.8689C78.8651 37.4648 79.8753 37.2402 80.9379 37.2402C82.0355 37.2402 83.0772 37.4798 84.0135 37.9093C84.009 36.9245 83.9975 35.926 83.9795 34.914C83.9795 33.5665 83.9315 32.2432 83.8351 30.9438L84.0517 30.9077C84.3884 31.774 84.7013 32.5439 84.9901 33.2176C85.2788 33.8673 85.6036 34.5651 85.9646 35.311L89.5377 42.6016C90.0429 43.6121 90.6926 44.2499 91.4866 44.5144C92.2806 44.779 93.1227 44.9115 94.0131 44.9115C94.9035 44.9115 95.6614 44.8151 96.2868 44.6227ZM84.0156 40.2683C83.1461 39.6527 82.0843 39.2909 80.9379 39.2909C79.8318 39.2909 78.804 39.6278 77.9521 40.2047V41.9158C77.9521 42.5175 78.0243 43.0105 78.1687 43.3956C78.3131 43.7565 78.5177 44.0453 78.7823 44.2618C79.0468 44.4784 79.3839 44.6227 79.7928 44.6949C80.2017 44.7671 80.6709 44.8032 81.2004 44.8032C81.7299 44.8032 82.259 44.7671 82.7885 44.6949C83.3417 44.6227 83.7511 44.5505 84.0156 44.4784V40.2683ZM110.1 40.6165C109.618 40.6887 109.173 40.7248 108.764 40.7248C107.874 40.7248 107.236 40.5804 106.852 40.2917C106.491 39.9788 106.31 39.5818 106.31 39.1006C106.31 38.6194 106.527 38.2584 106.96 38.0179C107.393 37.7772 107.946 37.6329 108.62 37.5848L111.219 37.3682V40.2556C110.978 40.4 110.605 40.5201 110.1 40.6165ZM112.013 26.9376C110.954 26.6729 109.775 26.5406 108.476 26.5406C107.633 26.5406 106.731 26.6008 105.769 26.7211C104.83 26.8414 104.012 27.0339 103.315 27.2986C102.689 27.5632 102.219 27.888 101.907 28.273C101.618 28.634 101.474 29.1272 101.474 29.7528C101.474 30.234 101.582 30.7032 101.799 31.1604C102.015 31.5935 102.28 31.9183 102.593 32.1349C103.29 31.8461 104.072 31.6055 104.939 31.413C105.805 31.2205 106.695 31.1243 107.609 31.1243C108.764 31.1243 109.642 31.2807 110.244 31.5935C110.87 31.8822 111.183 32.3755 111.183 33.0733V33.3259L106.455 33.8312C104.385 34.0477 102.857 34.6011 101.871 35.4914C100.884 36.3817 100.391 37.6569 100.391 39.3172C100.391 40.3036 100.583 41.1698 100.969 41.9158C101.377 42.6619 101.943 43.2754 102.665 43.7565C103.41 44.2376 104.289 44.5985 105.3 44.8393C106.334 45.08 107.489 45.2002 108.764 45.2002C111.603 45.2002 113.805 44.731 115.369 43.7926C115.85 43.5039 116.259 43.1672 116.596 42.782C116.957 42.3731 117.138 41.8555 117.138 41.2301V33.1454C117.138 32.0145 116.933 31.0401 116.524 30.222C116.115 29.3798 115.525 28.6941 114.756 28.1648C114.01 27.6113 113.095 27.2023 112.013 26.9376ZM126.881 39.9308C126.495 39.666 126.303 39.2209 126.303 38.5953V33.1454H129.587C130.213 33.1454 130.706 32.965 131.067 32.6041C131.452 32.2191 131.645 31.6055 131.645 30.7634C131.645 30.2821 131.572 29.849 131.428 29.4641C131.307 29.055 131.175 28.7182 131.031 28.4535H126.303V26.1436C126.303 24.9405 126.002 24.1586 125.401 23.7976C124.823 23.4126 124.005 23.2202 122.946 23.2202C122.393 23.2202 121.864 23.2683 121.358 23.3645C120.877 23.4367 120.504 23.5089 120.24 23.5811V39.0284C120.24 41.194 120.805 42.7578 121.936 43.7204C123.091 44.683 124.727 45.1641 126.844 45.1641C128.577 45.1641 129.78 44.8754 130.454 44.2979C131.151 43.7204 131.5 42.9744 131.5 42.0602C131.5 41.6029 131.416 41.2182 131.248 40.9053C131.103 40.5685 130.923 40.2675 130.706 40.003C130.418 40.0993 130.08 40.1834 129.696 40.2556C129.311 40.3036 128.938 40.3278 128.577 40.3278C127.855 40.3278 127.289 40.1953 126.881 39.9308ZM135.015 27.1181C134.51 27.1903 134.137 27.2625 133.896 27.3346V37.6569C133.896 39.0044 134.113 40.1592 134.546 41.1218C134.979 42.0602 135.593 42.83 136.387 43.4317C137.181 44.0334 138.119 44.4784 139.202 44.7671C140.309 45.0558 141.512 45.2002 142.811 45.2002C144.182 45.2002 145.446 45.0558 146.601 44.7671C147.78 44.5026 148.79 44.1055 149.632 43.5761C150.643 42.9744 151.148 42.0721 151.148 40.8692V29.8972C151.148 29.2956 151.064 28.8144 150.896 28.4535C150.751 28.0685 150.535 27.7678 150.246 27.5512C149.957 27.3346 149.596 27.1903 149.163 27.1181C148.754 27.0459 148.285 27.0098 147.756 27.0098C147.202 27.0098 146.661 27.0459 146.131 27.1181C145.626 27.1903 145.253 27.2625 145.013 27.3346V39.9669C144.82 40.0632 144.543 40.1592 144.182 40.2556C143.846 40.352 143.4 40.4 142.847 40.4C141.933 40.4 141.235 40.1953 140.754 39.7864C140.273 39.3533 140.032 38.6434 140.032 37.6569V29.8972C140.032 29.2956 139.948 28.8144 139.779 28.4535C139.635 28.0685 139.418 27.7678 139.13 27.5512C138.841 27.3346 138.48 27.1903 138.047 27.1181C137.638 27.0459 137.169 27.0098 136.639 27.0098C136.086 27.0098 135.545 27.0459 135.015 27.1181ZM159.162 44.8032C159.691 44.731 160.076 44.6588 160.317 44.5866V32.2792C160.63 32.1349 161.003 32.0145 161.436 31.9183C161.893 31.798 162.374 31.6897 162.879 31.5935C163.385 31.4972 163.902 31.4251 164.431 31.3769C164.961 31.3288 165.478 31.3048 165.983 31.3048C166.128 31.0401 166.248 30.7513 166.344 30.4386C166.441 30.1017 166.489 29.7648 166.489 29.428C166.489 28.4174 166.152 27.6956 165.478 27.2625C164.804 26.8053 163.89 26.5767 162.735 26.5767C162.037 26.5767 161.339 26.6368 160.642 26.7572C159.944 26.8534 159.27 26.9978 158.62 27.1903C157.971 27.3828 157.357 27.6113 156.78 27.876C156.227 28.1166 155.757 28.3933 155.372 28.7061C154.987 29.0189 154.686 29.3798 154.47 29.7889C154.278 30.1739 154.181 30.643 154.181 31.1965V42.0241C154.181 42.6258 154.253 43.1188 154.398 43.5039C154.566 43.8648 154.795 44.1535 155.083 44.3701C155.372 44.5866 155.721 44.731 156.13 44.8032C156.563 44.8754 157.044 44.9115 157.574 44.9115C158.127 44.9115 158.657 44.8754 159.162 44.8032ZM181.038 43.6843C182.41 42.6496 183.096 41.2182 183.096 39.3894C183.096 37.9216 182.602 36.7306 181.616 35.8163C180.653 34.8779 179.017 34.144 176.707 33.6146L175.589 33.362C174.915 33.2176 174.457 33.0612 174.217 32.8928C173.976 32.7244 173.856 32.5078 173.856 32.2432C173.856 31.8582 174.073 31.5814 174.506 31.413C174.939 31.2205 175.553 31.1243 176.347 31.1243C176.731 31.1243 177.152 31.1604 177.61 31.2326C178.091 31.3048 178.56 31.401 179.017 31.5213C179.474 31.6175 179.895 31.7379 180.281 31.8822C180.665 32.0025 180.954 32.1228 181.147 32.2432C181.459 31.9785 181.712 31.6536 181.905 31.2687C182.121 30.8596 182.23 30.3784 182.23 29.825C182.23 29.2475 182.061 28.7543 181.724 28.3452C181.387 27.9121 180.93 27.5632 180.353 27.2986C179.775 27.0339 179.09 26.8414 178.296 26.7211C177.525 26.5767 176.695 26.5045 175.805 26.5045C174.626 26.5045 173.543 26.6368 172.557 26.9015C171.594 27.1662 170.764 27.5391 170.067 28.0204C169.368 28.5016 168.827 29.1032 168.442 29.825C168.057 30.5468 167.865 31.3529 167.865 32.2432C167.865 33.8793 168.37 35.1425 169.381 36.0328C170.415 36.899 171.979 37.5366 174.073 37.9457L175.156 38.1622C175.829 38.2825 176.31 38.4389 176.599 38.6314C176.888 38.8239 177.032 39.0886 177.032 39.4254C177.032 39.7864 176.828 40.0751 176.419 40.2917C176.034 40.5082 175.468 40.6165 174.722 40.6165C173.543 40.6165 172.497 40.4722 171.582 40.1834C170.692 39.8705 169.898 39.5217 169.2 39.1367C168.863 39.4014 168.574 39.7384 168.334 40.1473C168.093 40.5324 167.973 41.0135 167.973 41.591C167.973 42.2165 168.141 42.7578 168.478 43.2151C168.839 43.6724 169.321 44.0571 169.922 44.3701C170.548 44.6588 171.294 44.8754 172.16 45.0197C173.026 45.1641 173.964 45.2363 174.975 45.2363C177.646 45.2363 179.667 44.7191 181.038 43.6843Z" fill="#242424"/>
<path d="M195.728 40.7253C196.137 40.7253 196.582 40.6893 197.063 40.6171C197.569 40.5207 197.941 40.4005 198.182 40.2562V37.3688L195.583 37.5853C194.91 37.6335 194.356 37.7778 193.923 38.0185C193.49 38.2591 193.274 38.62 193.274 39.1012C193.274 39.5824 193.454 39.9793 193.815 40.2922C194.2 40.581 194.837 40.7253 195.728 40.7253ZM195.439 26.5412C196.738 26.5412 197.918 26.6736 198.976 26.9382C200.059 27.2029 200.973 27.612 201.719 28.1654C202.489 28.6947 203.079 29.3805 203.488 30.2226C203.896 31.0407 204.101 32.0152 204.101 33.146V41.2306C204.101 41.8561 203.921 42.3737 203.56 42.7826C203.223 43.1677 202.814 43.5044 202.333 43.7932C200.769 44.7316 198.567 45.2007 195.728 45.2007C194.453 45.2007 193.298 45.0806 192.263 44.8398C191.252 44.5991 190.374 44.2382 189.628 43.7571C188.906 43.276 188.341 42.6624 187.932 41.9164C187.547 41.1703 187.354 40.3041 187.354 39.3178C187.354 37.6575 187.848 36.3823 188.834 35.492C189.821 34.6017 191.349 34.0483 193.418 33.8318L198.146 33.3265V33.0739C198.146 32.3761 197.833 31.8828 197.208 31.5941C196.606 31.2813 195.728 31.1249 194.573 31.1249C193.659 31.1249 192.768 31.2212 191.902 31.4136C191.036 31.6061 190.254 31.8467 189.556 32.1355C189.243 31.9189 188.979 31.5941 188.762 31.161C188.546 30.7038 188.437 30.2346 188.437 29.7534C188.437 29.1278 188.582 28.6346 188.87 28.2736C189.183 27.8886 189.652 27.5638 190.278 27.2992C190.976 27.0345 191.794 26.842 192.732 26.7217C193.695 26.6014 194.597 26.5412 195.439 26.5412ZM206.986 22.2102C206.986 21.2959 207.287 20.5259 207.889 19.9003C208.515 19.2747 209.332 18.9619 210.343 18.9619C211.354 18.9619 212.16 19.2747 212.761 19.9003C213.387 20.5259 213.7 21.2959 213.7 22.2102C213.7 23.1245 213.387 23.8945 212.761 24.5201C212.16 25.1457 211.354 25.4585 210.343 25.4585C209.332 25.4585 208.515 25.1457 207.889 24.5201C207.287 23.8945 206.986 23.1245 206.986 22.2102ZM213.411 44.5872C213.146 44.6352 212.749 44.6955 212.22 44.7676C211.714 44.864 211.197 44.912 210.668 44.912C210.139 44.912 209.657 44.8759 209.224 44.8037C208.815 44.7316 208.466 44.5872 208.177 44.3706C207.889 44.1541 207.66 43.8653 207.492 43.5044C207.347 43.1193 207.275 42.6263 207.275 42.0247V27.3352C207.54 27.2871 207.925 27.227 208.43 27.1548C208.96 27.0585 209.489 27.0104 210.018 27.0104C210.548 27.0104 211.017 27.0465 211.426 27.1187C211.859 27.1909 212.22 27.3352 212.509 27.5518C212.797 27.7683 213.014 28.0691 213.158 28.4541C213.327 28.815 213.411 29.2962 213.411 29.8978V44.5872Z" fill="#535353"/>
<path d="M80.9304 49.9548C83.875 49.9548 86.2622 47.5677 86.2622 44.623C86.2622 41.6784 83.875 39.2913 80.9304 39.2913C77.9857 39.2913 75.5986 41.6784 75.5986 44.623C75.5986 47.5677 77.9857 49.9548 80.9304 49.9548Z" fill="#242424"/>
<rect x="70.6191" y="41.4232" width="8.20271" height="38.1426" rx="4.10136" transform="rotate(90 70.6191 41.4232)" fill="url(#paint0_linear_889_996)"/>
<path fill-rule="evenodd" clip-rule="evenodd" d="M42.7244 27.6842C42.7244 35.7253 36.2058 42.244 28.1646 42.244C20.1235 42.244 13.6048 35.7253 13.6048 27.6842C13.6048 19.643 20.1235 13.1243 28.1646 13.1243C36.2058 13.1243 42.7244 19.643 42.7244 27.6842ZM47.2335 47.7539C42.2687 52.4726 35.5548 55.3683 28.1646 55.3683C12.8751 55.3683 0.480469 42.9737 0.480469 27.6842C0.480469 12.3946 12.8751 0 28.1646 0C36.2024 0 43.4401 3.42544 48.4976 8.89614C49.054 8.4619 49.7541 8.20317 50.5146 8.20317H52.5653C54.3774 8.20317 55.8463 9.67216 55.8463 11.4843V27.3138C55.848 27.4371 55.8488 27.5605 55.8488 27.6842C55.8488 27.8078 55.848 27.9312 55.8463 28.0545V60.2904C55.8463 62.1025 54.3774 63.5715 52.5653 63.5715H50.5146C48.7025 63.5715 47.2335 62.1025 47.2335 60.2904V47.7539Z" fill="url(#paint1_linear_889_996)"/>
<defs>
<linearGradient id="paint0_linear_889_996" x1="74.7205" y1="41.4232" x2="74.7205" y2="79.5658" gradientUnits="userSpaceOnUse">
<stop stop-color="#242424"/>
<stop offset="1" stop-color="#535353"/>
</linearGradient>
<linearGradient id="paint1_linear_889_996" x1="55.8488" y1="31.7857" x2="0.480469" y2="31.7857" gradientUnits="userSpaceOnUse">
<stop stop-color="#242424"/>
<stop offset="1" stop-color="#535353"/>
</linearGradient>
</defs>
</svg>
