<svg width="54" height="55" viewBox="0 0 54 55" fill="none" xmlns="http://www.w3.org/2000/svg">
<path d="M50.7153 14.7125C50.448 13.6249 49.9037 12.6284 49.1373 11.8236C48.3709 11.0188 47.4095 10.4343 46.3503 10.1291C42.4803 9.16663 27.0003 9.16663 27.0003 9.16663C27.0003 9.16663 11.5203 9.16663 7.65031 10.2208C6.59112 10.526 5.62976 11.1105 4.86334 11.9153C4.09692 12.72 3.55258 13.7165 3.28531 14.8041C2.57704 18.8044 2.23059 22.8623 2.25031 26.927C2.22506 31.0224 2.57154 35.1113 3.28531 39.1416C3.57997 40.1954 4.1365 41.154 4.90113 41.9248C5.66577 42.6956 6.61266 43.2524 7.65031 43.5416C11.5203 44.5958 27.0003 44.5958 27.0003 44.5958C27.0003 44.5958 42.4803 44.5958 46.3503 43.5416C47.4095 43.2364 48.3709 42.6519 49.1373 41.8472C49.9037 41.0424 50.448 40.0459 50.7153 38.9583C51.4181 34.9882 51.7645 30.9611 51.7503 26.927C51.7756 22.8317 51.4291 18.7428 50.7153 14.7125Z" stroke="#B3B3B3" stroke-width="2" stroke-linecap="round" stroke-linejoin="round"/>
<path d="M21.9378 34.4208L34.8753 26.927L21.9378 19.4333V34.4208Z" stroke="#B3B3B3" stroke-width="2" stroke-linecap="round" stroke-linejoin="round"/>
</svg>
