<svg width="32" height="33" viewBox="0 0 32 33" fill="none" xmlns="http://www.w3.org/2000/svg">
<path d="M23.3337 8.9375H23.347M9.33366 2.75H22.667C26.3489 2.75 29.3337 5.82804 29.3337 9.625V23.375C29.3337 27.172 26.3489 30.25 22.667 30.25H9.33366C5.65176 30.25 2.66699 27.172 2.66699 23.375V9.625C2.66699 5.82804 5.65176 2.75 9.33366 2.75ZM21.3337 15.6337C21.4982 16.7781 21.3087 17.9468 20.792 18.9736C20.2753 20.0005 19.4579 20.8332 18.4558 21.3533C17.4538 21.8734 16.3183 22.0544 15.2107 21.8707C14.1032 21.6869 13.08 21.1476 12.2868 20.3296C11.4935 19.5116 10.9706 18.4565 10.7924 17.3143C10.6142 16.1721 10.7897 15.0011 11.2941 13.9678C11.7984 12.9344 12.6059 12.0914 13.6016 11.5586C14.5974 11.0258 15.7307 10.8303 16.8403 11C17.9722 11.1731 19.0201 11.717 19.8293 12.5514C20.6384 13.3858 21.1658 14.4665 21.3337 15.6337Z" stroke="#D085B6" stroke-width="2" stroke-linecap="round" stroke-linejoin="round"/>
</svg>
