<svg width="33" height="33" viewBox="0 0 33 33" fill="none" xmlns="http://www.w3.org/2000/svg">
<path d="M30.9923 8.8275C30.829 8.17494 30.4963 7.57704 30.028 7.09418C29.5596 6.61133 28.9721 6.26063 28.3248 6.0775C25.9598 5.5 16.4998 5.5 16.4998 5.5C16.4998 5.5 7.03981 5.5 4.67481 6.1325C4.02752 6.31563 3.44003 6.66633 2.97166 7.14918C2.50329 7.63204 2.17064 8.22994 2.00731 8.8825C1.57448 11.2826 1.36276 13.7174 1.37481 16.1563C1.35938 18.6134 1.57112 21.0668 2.00731 23.485C2.18738 24.1173 2.52748 24.6925 2.99476 25.1549C3.46203 25.6174 4.04069 25.9515 4.67481 26.125C7.03981 26.7575 16.4998 26.7575 16.4998 26.7575C16.4998 26.7575 25.9598 26.7575 28.3248 26.125C28.9721 25.9419 29.5596 25.5912 30.028 25.1083C30.4963 24.6255 30.829 24.0276 30.9923 23.375C31.4218 20.9929 31.6335 18.5767 31.6248 16.1563C31.6402 13.6991 31.4285 11.2457 30.9923 8.8275Z" stroke="#C73838" stroke-width="2" stroke-linecap="round" stroke-linejoin="round"/>
<path d="M13.4061 20.6525L21.3123 16.1563L13.4061 11.66V20.6525Z" stroke="#C73838" stroke-width="2" stroke-linecap="round" stroke-linejoin="round"/>
</svg>
