<svg width="19" height="19" viewBox="0 0 19 19" fill="none" xmlns="http://www.w3.org/2000/svg">
<path fill-rule="evenodd" clip-rule="evenodd" d="M12.2143 4.07881C12.2461 2.46281 10.4467 1.49204 9.11391 2.41421L9.10993 2.41698L3.85691 6.10725H2.03571C0.921759 6.10725 0 7.02901 0 8.14297V10.8573C0 11.9712 0.921759 12.893 2.03571 12.893H3.85289L8.98184 16.5789L8.99176 16.586C10.3101 17.4981 12.1784 16.5535 12.2141 14.9437L12.2143 14.9286V4.07881ZM15.9344 4.63221C16.3676 4.27392 17.0092 4.33462 17.3675 4.76778C18.4928 6.1283 18.9623 7.76322 18.9623 9.50007C18.9623 11.2369 18.4928 12.8718 17.3675 14.2324C17.0092 14.6655 16.3676 14.7263 15.9344 14.368C15.5013 14.0096 15.4406 13.368 15.7989 12.9348C16.5664 12.007 16.9266 10.8592 16.9266 9.50007C16.9266 8.1409 16.5664 6.99313 15.7989 6.06529C15.4406 5.63212 15.5013 4.99051 15.9344 4.63221ZM13.8433 7.17694C14.3525 6.93868 14.9583 7.15826 15.1966 7.66742C15.4626 8.23594 15.5928 8.86362 15.5702 9.50001C15.5928 10.1364 15.4626 10.7641 15.1966 11.3326C14.9583 11.8418 14.3525 12.0614 13.8433 11.8231C13.3341 11.5848 13.1145 10.9789 13.3528 10.4698C13.4864 10.1842 13.5501 9.86821 13.5348 9.54844C13.5333 9.51618 13.5333 9.48386 13.5348 9.4516C13.5501 9.13183 13.4864 8.81588 13.3528 8.53027C13.1145 8.02111 13.3341 7.41521 13.8433 7.17694Z" fill="white"/>
</svg>
