<svg width="768" height="4924" viewBox="0 0 768 4924" fill="none" xmlns="http://www.w3.org/2000/svg">
<g clip-path="url(#clip0_1000_1311)">
<rect width="768" height="4923.54" fill="white"/>
<rect y="2501.54" width="768" height="262" fill="#F4F8F8"/>
<rect x="-0.5" y="3761.54" width="769" height="786" fill="#EEF4F6"/>
<path d="M155.636 1320.46H155.11L155.137 1320.98C155.85 1334.7 167.277 1345.59 181.262 1345.59C195.707 1345.59 207.423 1333.97 207.423 1319.63C207.423 1306.59 197.746 1295.8 185.139 1293.94C183.317 1293.68 181.887 1292.23 181.887 1290.5C181.887 1288.72 183.336 1287.32 185.047 1287.52L185.104 1287.02L185.047 1287.52C201.258 1289.38 213.838 1303.05 213.838 1319.63C213.838 1337.47 199.257 1351.95 181.262 1351.95C163.711 1351.95 149.407 1338.18 148.713 1320.94L148.694 1320.46H148.214H142.869L151.844 1305.03L160.818 1320.46H155.636ZM184.703 1322.27L184.647 1322.31L184.604 1322.37C184.554 1322.43 184.5 1322.48 184.443 1322.54L173.458 1333.44C172.51 1334.38 170.971 1334.38 170.023 1333.44C169.077 1332.5 169.077 1330.98 170.023 1330.04L180.735 1319.41L180.882 1319.27V1319.06V1304.91C180.882 1303.59 181.966 1302.51 183.31 1302.51C184.654 1302.51 185.737 1303.59 185.737 1304.91V1320.31C185.737 1321.12 185.33 1321.84 184.703 1322.27Z" fill="#538AA2" stroke="#538AA1"/>
<path d="M168.524 1419.21H149.578C147.568 1419.21 145.641 1420 144.22 1421.42C142.798 1422.83 142 1424.75 142 1426.75V1460.65C142 1462.65 142.798 1464.57 144.22 1465.98C145.641 1467.4 147.568 1468.19 149.578 1468.19H202.626C204.636 1468.19 206.563 1467.4 207.985 1465.98C209.406 1464.57 210.204 1462.65 210.204 1460.65V1426.75C210.204 1424.75 209.406 1422.83 207.985 1421.42C206.563 1420 204.636 1419.21 202.626 1419.21H183.68M168.524 1419.21V1415.44C168.524 1413.44 169.322 1411.53 170.744 1410.11C172.165 1408.7 174.092 1407.91 176.102 1407.91C178.112 1407.91 180.04 1408.7 181.461 1410.11C182.882 1411.53 183.68 1413.44 183.68 1415.44V1419.21M168.524 1419.21C168.524 1421.21 169.322 1423.13 170.744 1424.54C172.165 1425.95 174.092 1426.75 176.102 1426.75C178.112 1426.75 180.04 1425.95 181.461 1424.54C182.882 1423.13 183.68 1421.21 183.68 1419.21M164.735 1449.35C166.745 1449.35 168.672 1448.56 170.093 1447.14C171.515 1445.73 172.313 1443.81 172.313 1441.82C172.313 1439.82 171.515 1437.9 170.093 1436.49C168.672 1435.07 166.745 1434.28 164.735 1434.28C162.725 1434.28 160.797 1435.07 159.376 1436.49C157.955 1437.9 157.157 1439.82 157.157 1441.82C157.157 1443.81 157.955 1445.73 159.376 1447.14C160.797 1448.56 162.725 1449.35 164.735 1449.35ZM164.735 1449.35C169.683 1449.35 173.893 1452.5 175.458 1456.89M164.735 1449.35C162.383 1449.35 160.089 1450.07 158.169 1451.42C156.248 1452.77 154.796 1454.68 154.012 1456.89M187.47 1438.05H198.837M187.47 1453.12H195.048" stroke="#538AA1" stroke-width="6" stroke-linecap="round" stroke-linejoin="round"/>
<path d="M193.799 1583.59H211.022V1576.7C211.022 1574.55 210.353 1572.45 209.107 1570.7C207.862 1568.95 206.103 1567.64 204.073 1566.93C202.044 1566.23 199.846 1566.18 197.785 1566.78C195.724 1567.38 193.902 1568.61 192.573 1570.3M193.799 1583.59H159.352M193.799 1583.59V1576.7C193.799 1574.44 193.365 1572.28 192.573 1570.3M192.573 1570.3C191.293 1567.1 189.086 1564.36 186.234 1562.43C183.383 1560.5 180.019 1559.47 176.576 1559.47C173.132 1559.47 169.768 1560.5 166.917 1562.43C164.065 1564.36 161.858 1567.1 160.579 1570.3M159.352 1583.59H142.129V1576.7C142.129 1574.55 142.798 1572.45 144.044 1570.7C145.289 1568.95 147.049 1567.64 149.078 1566.93C151.107 1566.23 153.305 1566.18 155.366 1566.78C157.427 1567.38 159.249 1568.61 160.579 1570.3M159.352 1583.59V1576.7C159.352 1574.44 159.786 1572.28 160.579 1570.3M186.91 1538.8C186.91 1541.55 185.821 1544.17 183.883 1546.11C181.945 1548.05 179.316 1549.14 176.576 1549.14C173.835 1549.14 171.206 1548.05 169.268 1546.11C167.33 1544.17 166.242 1541.55 166.242 1538.8C166.242 1536.06 167.33 1533.44 169.268 1531.5C171.206 1529.56 173.835 1528.47 176.576 1528.47C179.316 1528.47 181.945 1529.56 183.883 1531.5C185.821 1533.44 186.91 1536.06 186.91 1538.8ZM207.577 1549.14C207.577 1550.97 206.852 1552.72 205.56 1554.01C204.268 1555.3 202.515 1556.03 200.688 1556.03C198.861 1556.03 197.109 1555.3 195.817 1554.01C194.525 1552.72 193.799 1550.97 193.799 1549.14C193.799 1547.31 194.525 1545.56 195.817 1544.27C197.109 1542.98 198.861 1542.25 200.688 1542.25C202.515 1542.25 204.268 1542.98 205.56 1544.27C206.852 1545.56 207.577 1547.31 207.577 1549.14ZM159.352 1549.14C159.352 1550.97 158.626 1552.72 157.334 1554.01C156.042 1555.3 154.29 1556.03 152.463 1556.03C150.636 1556.03 148.883 1555.3 147.591 1554.01C146.299 1552.72 145.574 1550.97 145.574 1549.14C145.574 1547.31 146.299 1545.56 147.591 1544.27C148.883 1542.98 150.636 1542.25 152.463 1542.25C154.29 1542.25 156.042 1542.98 157.334 1544.27C158.626 1545.56 159.352 1547.31 159.352 1549.14Z" stroke="#538AA1" stroke-width="6" stroke-linecap="round" stroke-linejoin="round"/>
<path d="M319.42 1309.43H329.66V1312.89H319.42V1309.43ZM319.644 1303.8L323.388 1304.34C322.46 1309.98 320.732 1315.13 318.172 1318.36C317.532 1317.78 315.868 1316.66 314.972 1316.22C317.468 1313.4 318.972 1308.73 319.644 1303.8ZM324.124 1310.81H325.98V1316.12C325.98 1319.29 327.228 1326.62 332.7 1330.52C332.028 1331.38 330.908 1332.98 330.332 1333.94C326.332 1331.1 324.476 1325.59 324.092 1322.78C323.612 1325.53 321.404 1330.97 316.86 1333.91C316.412 1333.05 315.324 1331.45 314.652 1330.71C320.86 1326.74 322.172 1319.42 322.172 1316.12V1310.81H324.124ZM328.732 1309.43H329.308L329.916 1309.27L332.476 1309.88C331.996 1313.05 331.1 1316.5 330.14 1318.78L327.1 1317.78C327.804 1315.83 328.444 1312.57 328.732 1310.04V1309.43ZM308.764 1309.94H312.156V1313.62H308.764V1309.94ZM304.7 1312.44H308.124V1330.26H304.7V1312.44ZM306.812 1316.6H314.204V1319.16H306.812V1316.6ZM302.428 1329.21C305.244 1328.6 309.564 1327.45 313.692 1326.3L314.14 1329.37C310.524 1330.55 306.716 1331.8 303.644 1332.76L302.428 1329.21ZM310.62 1324.6L313.724 1323.51C314.78 1325.59 315.996 1328.34 316.476 1330.07L313.148 1331.42C312.764 1329.66 311.676 1326.74 310.62 1324.6ZM306.812 1312.44H315.804V1323.38H306.812V1320.76H312.444V1315.1H306.812V1312.44ZM308.092 1303.83H310.14V1304.54H311.26V1305.56C309.852 1308.02 307.676 1311.26 304.06 1314.04C303.612 1313.24 302.588 1311.93 301.884 1311.38C304.924 1309.21 306.972 1306.3 308.092 1303.83ZM309.084 1303.83H311.676C313.564 1305.53 315.964 1307.93 317.244 1309.56L314.62 1312.06C313.564 1310.52 311.356 1307.86 309.692 1306.36H309.084V1303.83ZM349.372 1307.1C346.62 1310.3 341.532 1313.82 336.444 1315.99C335.996 1315.1 335.004 1313.66 334.236 1312.86C339.516 1310.81 344.7 1307.03 347.228 1303.74H351.132C354.716 1307.74 359.836 1310.9 364.828 1312.5C363.932 1313.46 363.068 1314.81 362.396 1315.93C357.788 1313.94 352.284 1310.39 349.372 1307.1ZM342.3 1317.27H356.412V1320.02H342.3V1317.27ZM347.42 1310.17H351.388V1314.49H347.42V1310.17ZM336.604 1330.04C340.188 1329.78 345.532 1329.37 350.556 1328.89L350.588 1332.31C345.852 1332.79 340.796 1333.24 337.116 1333.59L336.604 1330.04ZM350.492 1323.61C352.764 1327.51 357.532 1329.78 364.22 1330.55C363.388 1331.35 362.396 1332.89 361.884 1333.91C354.78 1332.73 350.076 1329.75 347.228 1324.5L350.492 1323.61ZM359.932 1322.97L362.716 1325.27C360.22 1326.9 357.148 1328.6 354.78 1329.62L352.476 1327.54C354.844 1326.42 358.012 1324.47 359.932 1322.97ZM342.3 1312.63H358.972V1324.76H342.3V1321.78H355.1V1315.61H342.3V1312.63ZM339.932 1312.63H343.74V1330.49L339.932 1330.9V1312.63ZM367.26 1308.76H379.004V1312.12H367.26V1308.76ZM366.716 1316.18H379.516V1319.64H366.716V1316.18ZM371.388 1304.15H375.004V1315.7C375.004 1321.69 374.268 1329.08 368.892 1333.5C368.38 1332.7 367.164 1331.38 366.3 1330.71C371.068 1327.22 371.388 1320.57 371.388 1315.7V1304.15ZM374.492 1320.18C375.58 1321.18 379.164 1325.3 379.964 1326.26L377.372 1329.05C376.188 1327.1 373.5 1323.58 372.124 1321.98L374.492 1320.18ZM384.06 1313.27V1315.13H391.068V1313.27H384.06ZM384.06 1318.17V1320.06H391.068V1318.17H384.06ZM384.06 1308.34V1310.2H391.068V1308.34H384.06ZM380.508 1304.95H394.748V1323.45H380.508V1304.95ZM387.772 1322.26H391.356V1328.95C391.356 1329.85 391.388 1329.94 391.868 1329.94C392.06 1329.94 392.764 1329.94 392.988 1329.94C393.5 1329.94 393.596 1329.5 393.692 1326.1C394.364 1326.68 395.9 1327.26 396.828 1327.51C396.508 1332.09 395.644 1333.24 393.372 1333.24C392.828 1333.24 391.772 1333.24 391.228 1333.24C388.38 1333.24 387.772 1332.15 387.772 1329.02V1322.26ZM382.588 1322.9H386.204C385.692 1327.9 384.38 1331.7 378.492 1333.91C378.108 1333.05 377.148 1331.7 376.412 1331.03C381.372 1329.4 382.204 1326.58 382.588 1322.9ZM417.724 1307.74H421.244V1325.85H417.724V1307.74ZM423.804 1304.47H427.452V1329.46C427.452 1331.48 427.036 1332.5 425.884 1333.11C424.732 1333.72 422.972 1333.85 420.412 1333.85C420.284 1332.82 419.772 1331.13 419.292 1330.07C420.956 1330.14 422.556 1330.14 423.1 1330.14C423.612 1330.1 423.804 1329.94 423.804 1329.43V1304.47ZM398.556 1308.63H416.828V1311H398.556V1308.63ZM400.188 1315.16H415.516V1317.27H400.188V1315.16ZM398.748 1318.23H416.7V1320.66H398.748V1318.23ZM406.172 1322.2H409.372V1328.28H406.172V1322.2ZM405.82 1303.8H409.244V1319.83H405.82V1303.8ZM398.556 1330.2C403.132 1330.07 410.204 1329.85 416.796 1329.56L416.7 1332.41C410.268 1332.73 403.42 1332.98 398.812 1333.14L398.556 1330.2ZM400.348 1305.56H415.196V1314.2H400.252V1312.12H411.932V1307.64H400.348V1305.56ZM403.228 1326.07V1327.13H412.22V1326.07H403.228ZM403.228 1323.35V1324.38H412.22V1323.35H403.228ZM400.252 1321.56H415.324V1328.92H400.252V1321.56ZM443.196 1307.22H459.548V1310.55H443.196V1307.22ZM442.108 1313.37H460.508V1316.76H442.108V1313.37ZM442.172 1319.48H460.284V1322.84H442.172V1319.48ZM449.372 1303.8H453.148V1315.54H449.372V1303.8ZM453.436 1316.57H457.18V1329.82C457.18 1331.67 456.828 1332.66 455.58 1333.21C454.3 1333.78 452.572 1333.85 450.172 1333.85C450.044 1332.79 449.468 1331.26 448.956 1330.26C450.524 1330.33 452.284 1330.33 452.764 1330.3C453.276 1330.3 453.436 1330.2 453.436 1329.75V1316.57ZM443.452 1324.98L446.524 1323.22C448.028 1324.79 449.724 1326.9 450.428 1328.47L447.132 1330.39C446.524 1328.89 444.924 1326.62 443.452 1324.98ZM433.308 1305.78H441.564V1327.67H433.308V1324.25H437.98V1309.21H433.308V1305.78ZM433.5 1314.87H439.708V1318.23H433.5V1314.87ZM431.516 1305.78H435.068V1330.52H431.516V1305.78ZM473.084 1323.35H481.852V1326.1H473.084V1323.35ZM472.86 1318.62H483.644V1330.9H472.86V1328.09H480.06V1321.43H472.86V1318.62ZM471.292 1318.62H474.748V1332.54H471.292V1318.62ZM465.916 1309.5H473.948V1312.09H465.916V1309.5ZM480.764 1309.5H488.86V1312.09H480.764V1309.5ZM487.292 1305.05H491.164V1329.34C491.164 1331.42 490.748 1332.54 489.468 1333.18C488.188 1333.82 486.332 1333.88 483.58 1333.88C483.42 1332.79 482.844 1331 482.332 1329.98C483.996 1330.07 485.948 1330.04 486.524 1330.04C487.1 1330.04 487.292 1329.85 487.292 1329.3V1305.05ZM466.236 1305.05H476.348V1316.66H466.236V1313.91H472.764V1307.83H466.236V1305.05ZM489.34 1305.05V1307.83H482.172V1314.01H489.34V1316.76H478.524V1305.05H489.34ZM464.028 1305.05H467.836V1333.88H464.028V1305.05ZM495.548 1305.98H523.452V1309.91H495.548V1305.98ZM511.004 1316.7L513.98 1314.2C517.404 1316.7 522.332 1320.38 524.668 1322.94L521.404 1325.88C519.292 1323.35 514.556 1319.42 511.004 1316.7ZM509.724 1307.42L514.012 1308.92C510.364 1315.67 504.54 1322.2 497.18 1326.04C496.572 1325.02 495.356 1323.42 494.556 1322.55C501.404 1319.32 507.068 1313.11 509.724 1307.42ZM507.388 1315.16L511.612 1310.97V1333.82H507.388V1315.16ZM527.484 1313.02H555.548V1320.02H551.772V1316.34H531.068V1320.02H527.484V1313.02ZM532.124 1318.81H548.988V1322.33H532.124V1318.81ZM551.772 1303.64L554.364 1306.74C547.132 1308.15 537.148 1308.86 528.636 1309.11C528.572 1308.15 528.124 1306.68 527.772 1305.85C536.252 1305.56 545.884 1304.79 551.772 1303.64ZM530.588 1309.72L533.948 1308.79C534.684 1309.94 535.484 1311.48 535.772 1312.54L532.252 1313.59C531.996 1312.54 531.26 1310.94 530.588 1309.72ZM539.036 1309.05L542.428 1308.28C543.1 1309.56 543.74 1311.29 543.9 1312.44L540.316 1313.3C540.188 1312.18 539.644 1310.39 539.036 1309.05ZM549.212 1308.22L553.276 1309.18C552.156 1311.16 550.876 1313.24 549.916 1314.62L546.78 1313.69C547.644 1312.15 548.668 1309.88 549.212 1308.22ZM547.58 1318.81H548.38L549.052 1318.68L551.644 1320.22C547.836 1328.6 539.068 1332.15 528.988 1333.59C528.604 1332.63 527.516 1330.94 526.748 1330.14C536.604 1329.14 544.7 1326.23 547.58 1319.42V1318.81ZM535.9 1321.4C539.484 1326.26 546.812 1329.05 556.124 1329.91C555.324 1330.78 554.268 1332.44 553.788 1333.53C544.156 1332.28 537.02 1328.92 532.54 1322.78L535.9 1321.4ZM573.66 1311.13H584.7V1314.26H573.66V1311.13ZM568.156 1329.66C571.068 1329.24 575.548 1328.44 579.836 1327.67L580.124 1331C576.412 1331.86 572.476 1332.73 569.436 1333.4L568.156 1329.66ZM571.484 1305.27H575.228V1330.55H571.484V1305.27ZM573.66 1305.27H586.428V1320.22H573.66V1316.92H582.652V1308.57H573.66V1305.27ZM580.348 1318.04C581.5 1323.74 583.964 1328.47 588.668 1330.55C587.836 1331.29 586.716 1332.79 586.172 1333.78C581.02 1331.06 578.524 1325.62 577.148 1318.55L580.348 1318.04ZM584.956 1320.44L587.964 1322.55C586.204 1324.22 584.156 1326.01 582.556 1327.16L580.156 1325.3C581.692 1324.06 583.772 1322.04 584.956 1320.44ZM559.836 1305.21H567.836V1308.63H563.42V1333.91H559.836V1305.21ZM566.78 1305.21H567.452L567.996 1305.08L570.588 1306.58C569.724 1309.37 568.572 1312.92 567.58 1315.42C569.692 1317.91 570.108 1320.12 570.108 1321.98C570.108 1324.12 569.628 1325.46 568.572 1326.2C568.06 1326.58 567.42 1326.81 566.684 1326.9C566.076 1327 565.244 1327 564.476 1326.97C564.444 1326.01 564.156 1324.5 563.612 1323.54C564.22 1323.61 564.668 1323.61 565.084 1323.61C565.436 1323.58 565.756 1323.51 566.044 1323.32C566.46 1323.03 566.62 1322.39 566.62 1321.5C566.62 1319.99 566.14 1318.01 564.252 1315.83C565.18 1312.95 566.268 1308.41 566.78 1306.36V1305.21Z" fill="#538AA2"/>
<path d="M309.984 1428.07H330.912V1431.02H309.984V1428.07ZM311.84 1436.68H328.768V1439.43H311.84V1436.68ZM310.432 1440.9H330.208V1443.94H310.432V1440.9ZM318.08 1422.09H321.824V1446.54H318.08V1422.09ZM312.192 1423.88H328.512V1435.27H312.032V1432.36H324.736V1426.79H312.192V1423.88ZM301.024 1423.59H307.776V1426.95H301.024V1423.59ZM306.464 1423.59H306.944L307.52 1423.46L310.112 1424.17C308.672 1427.94 306.432 1432.94 304.576 1436.94L301.088 1436.04C303.04 1432.1 305.344 1426.82 306.464 1424.01V1423.59ZM304.288 1432.65H308.96V1436.01H304.16L304.288 1432.65ZM307.424 1432.65H308.16L308.8 1432.58L311.04 1433.06C310.24 1442.73 307.776 1448.87 303.616 1452.01C303.04 1451.27 301.568 1449.9 300.736 1449.42C304.704 1446.66 306.816 1441.48 307.424 1433.35V1432.65ZM304.48 1437.83C307.072 1446.12 312.928 1447.43 320.48 1447.46C322.432 1447.46 328.96 1447.46 331.296 1447.37C330.72 1448.23 330.048 1449.99 329.824 1451.11H320.384C311.104 1451.11 304.8 1449.22 301.472 1438.89L304.48 1437.83ZM345.44 1428.14H361.824V1430.7H345.44V1428.14ZM344.096 1432.07H362.912V1434.79H344.096V1432.07ZM343.552 1444.01H363.264V1446.82H343.552V1444.01ZM347.328 1440.01H359.552V1442.5H347.328V1440.01ZM344.768 1424.17H362.336V1426.82H344.768V1424.17ZM348.064 1421.83H351.616V1433.29H348.064V1421.83ZM351.648 1433.61H355.104V1445.22H351.648V1433.61ZM355.136 1421.83H358.72V1433.26H355.136V1421.83ZM345.44 1435.98H359.36V1438.63H348.928V1451.66H345.44V1435.98ZM357.952 1435.98H361.504V1448.23C361.504 1449.8 361.184 1450.63 360.128 1451.14C359.04 1451.62 357.536 1451.66 355.488 1451.66C355.36 1450.76 354.912 1449.48 354.496 1448.65C355.68 1448.71 357.024 1448.68 357.408 1448.68C357.824 1448.65 357.952 1448.55 357.952 1448.17V1435.98ZM333.408 1428.46H344V1432.01H333.408V1428.46ZM337.312 1421.83H340.8V1451.88H337.312V1421.83ZM337.248 1430.89L339.392 1431.62C338.464 1436.68 336.64 1442.86 334.368 1446.15C334.048 1445.13 333.216 1443.66 332.672 1442.76C334.72 1439.98 336.512 1434.95 337.248 1430.89ZM340.64 1433.29C341.376 1434.22 344.032 1438.41 344.576 1439.37L342.592 1442.12C341.856 1440.17 339.936 1436.42 339.04 1434.86L340.64 1433.29ZM374.848 1423.46H394.08V1451.59H390.432V1426.79H378.336V1451.85H374.848V1423.46ZM379.168 1430.73H389.696V1433.51H379.168V1430.73ZM376.64 1446.63H392.192V1449.99H376.64V1446.63ZM382.848 1427.46H385.824V1437.74H382.848V1427.46ZM382.752 1438.95V1442.28H386.016V1438.95H382.752ZM380 1436.3H388.928V1444.94H380V1436.3ZM370.88 1421.93L374.4 1422.98C372.544 1428.52 369.472 1434.44 366.144 1438.22C365.856 1437.29 364.896 1435.05 364.288 1434.06C366.976 1431.11 369.44 1426.5 370.88 1421.93ZM368.256 1430.7L371.872 1427.08L371.904 1427.11V1451.91H368.256V1430.7ZM400.736 1421.83H404.608V1451.88H400.736V1421.83ZM398.048 1427.98L400.8 1428.36C400.64 1431.14 400.096 1434.95 399.328 1437.38L396.48 1436.39C397.28 1434.22 397.824 1430.63 398.048 1427.98ZM403.84 1428.23L406.432 1427.11C407.328 1428.78 408.256 1430.95 408.576 1432.3L405.824 1433.61C405.536 1432.2 404.672 1429.96 403.84 1428.23ZM409.92 1423.3L413.632 1423.88C412.992 1428.65 411.744 1433.38 410.08 1436.39C409.312 1435.85 407.584 1435.02 406.656 1434.63C408.352 1431.94 409.408 1427.59 409.92 1423.3ZM411.04 1428.3H425.824V1431.94H409.952L411.04 1428.3ZM415.424 1422.02H419.264V1449.32H415.424V1422.02ZM409.216 1437.19H425.152V1440.78H409.216V1437.19ZM406.816 1447.21H426.816V1450.86H406.816V1447.21ZM443.264 1422.66H447.168V1445.7C447.168 1447.62 447.392 1447.94 448.96 1447.94C449.664 1447.94 452.864 1447.94 453.632 1447.94C455.2 1447.94 455.456 1446.82 455.68 1442.31C456.608 1442.98 458.176 1443.69 459.264 1443.91C458.784 1449.45 457.76 1451.5 453.984 1451.5C453.056 1451.5 449.344 1451.5 448.48 1451.5C444.448 1451.5 443.264 1450.22 443.264 1445.67V1422.66ZM455.264 1428.01L458.08 1431.37C454.464 1433.93 449.888 1436.33 445.728 1438.28C445.472 1437.38 444.736 1436.04 444.192 1435.21C448.16 1433.32 452.416 1430.44 455.264 1428.01ZM437.088 1422.25L440.864 1423.53C438.464 1429.22 434.528 1435.14 430.496 1438.86C430.112 1437.86 428.992 1435.75 428.288 1434.79C431.744 1431.82 435.104 1427.08 437.088 1422.25ZM433.696 1431.27L437.472 1427.5L437.536 1427.56V1451.82H433.696V1431.27ZM477.92 1427.43H488.16V1430.89H477.92V1427.43ZM478.144 1421.8L481.888 1422.34C480.96 1427.98 479.232 1433.13 476.672 1436.36C476.032 1435.78 474.368 1434.66 473.472 1434.22C475.968 1431.4 477.472 1426.73 478.144 1421.8ZM482.624 1428.81H484.48V1434.12C484.48 1437.29 485.728 1444.62 491.2 1448.52C490.528 1449.38 489.408 1450.98 488.832 1451.94C484.832 1449.1 482.976 1443.59 482.592 1440.78C482.112 1443.53 479.904 1448.97 475.36 1451.91C474.912 1451.05 473.824 1449.45 473.152 1448.71C479.36 1444.74 480.672 1437.42 480.672 1434.12V1428.81H482.624ZM487.232 1427.43H487.808L488.416 1427.27L490.976 1427.88C490.496 1431.05 489.6 1434.5 488.64 1436.78L485.6 1435.78C486.304 1433.83 486.944 1430.57 487.232 1428.04V1427.43ZM467.264 1427.94H470.656V1431.62H467.264V1427.94ZM463.2 1430.44H466.624V1448.26H463.2V1430.44ZM465.312 1434.6H472.704V1437.16H465.312V1434.6ZM460.928 1447.21C463.744 1446.6 468.064 1445.45 472.192 1444.3L472.64 1447.37C469.024 1448.55 465.216 1449.8 462.144 1450.76L460.928 1447.21ZM469.12 1442.6L472.224 1441.51C473.28 1443.59 474.496 1446.34 474.976 1448.07L471.648 1449.42C471.264 1447.66 470.176 1444.74 469.12 1442.6ZM465.312 1430.44H474.304V1441.38H465.312V1438.76H470.944V1433.1H465.312V1430.44ZM466.592 1421.83H468.64V1422.54H469.76V1423.56C468.352 1426.02 466.176 1429.26 462.56 1432.04C462.112 1431.24 461.088 1429.93 460.384 1429.38C463.424 1427.21 465.472 1424.3 466.592 1421.83ZM467.584 1421.83H470.176C472.064 1423.53 474.464 1425.93 475.744 1427.56L473.12 1430.06C472.064 1428.52 469.856 1425.86 468.192 1424.36H467.584V1421.83ZM507.872 1425.1C505.12 1428.3 500.032 1431.82 494.944 1433.99C494.496 1433.1 493.504 1431.66 492.736 1430.86C498.016 1428.81 503.2 1425.03 505.728 1421.74H509.632C513.216 1425.74 518.336 1428.9 523.328 1430.5C522.432 1431.46 521.568 1432.81 520.896 1433.93C516.288 1431.94 510.784 1428.39 507.872 1425.1ZM500.8 1435.27H514.912V1438.02H500.8V1435.27ZM505.92 1428.17H509.888V1432.49H505.92V1428.17ZM495.104 1448.04C498.688 1447.78 504.032 1447.37 509.056 1446.89L509.088 1450.31C504.352 1450.79 499.296 1451.24 495.616 1451.59L495.104 1448.04ZM508.992 1441.61C511.264 1445.51 516.032 1447.78 522.72 1448.55C521.888 1449.35 520.896 1450.89 520.384 1451.91C513.28 1450.73 508.576 1447.75 505.728 1442.5L508.992 1441.61ZM518.432 1440.97L521.216 1443.27C518.72 1444.9 515.648 1446.6 513.28 1447.62L510.976 1445.54C513.344 1444.42 516.512 1442.47 518.432 1440.97ZM500.8 1430.63H517.472V1442.76H500.8V1439.78H513.6V1433.61H500.8V1430.63ZM498.432 1430.63H502.24V1448.49L498.432 1448.9V1430.63ZM537.952 1432.58H555.296V1436.39H537.952V1432.58ZM544.704 1421.96H548.608V1451.88H544.704V1421.96ZM526.496 1431.66H536.832V1434.54H526.496V1431.66ZM526.688 1422.82H536.896V1425.74H526.688V1422.82ZM526.496 1436.01H536.832V1438.92H526.496V1436.01ZM524.928 1427.14H538.112V1430.18H524.928V1427.14ZM528.256 1440.46H536.736V1450.18H528.256V1447.14H533.376V1443.5H528.256V1440.46ZM526.4 1440.46H529.728V1451.46H526.4V1440.46ZM570.08 1440.26H573.632V1446.63H570.08V1440.26ZM557.376 1448.52H586.624V1451.02H557.376V1448.52ZM557.536 1426.82H586.464V1428.9H557.536V1426.82ZM557.408 1436.3H586.688V1438.7H557.408V1436.3ZM559.712 1433.16H584.48V1435.21H559.712V1433.16ZM560.896 1423.72H583.232V1432.07H560.704V1430.02H579.36V1425.77H560.896V1423.72ZM569.856 1421.8H573.76V1437.48H569.856V1421.8ZM564.832 1444.46V1445.64H579.328V1444.46H564.832ZM564.832 1441.58V1442.7H579.328V1441.58H564.832ZM561.056 1439.69H583.264V1447.5H561.056V1439.69Z" fill="#538AA2"/>
<path d="M301.844 1560.06H331.156V1563.1H301.844V1560.06ZM302.74 1541.88H330.004V1544.79H302.74V1541.88ZM320.244 1558.2H323.956V1566.2C323.956 1567.93 323.604 1568.86 322.324 1569.37C321.012 1569.85 319.22 1569.88 316.756 1569.88C316.628 1568.89 316.148 1567.48 315.668 1566.55C317.204 1566.62 319.06 1566.62 319.572 1566.62C320.084 1566.58 320.244 1566.46 320.244 1566.07V1558.2ZM314.548 1539.83H318.324V1557.08H314.548V1539.83ZM306.964 1564.18L309.588 1561.98C311.348 1563.1 313.588 1564.79 314.612 1566.04L311.796 1568.47C310.836 1567.22 308.724 1565.4 306.964 1564.18ZM308.884 1551.64V1552.86H324.244V1551.64H308.884ZM308.884 1548.25V1549.46H324.244V1548.25H308.884ZM305.268 1545.94H328.02V1555.19H305.268V1545.94ZM321.012 1555.7L323.252 1553.98C325.62 1554.94 328.436 1556.6 329.972 1557.78L327.668 1559.74C326.164 1558.46 323.348 1556.7 321.012 1555.7ZM303.22 1556.38C309.108 1556.41 318.548 1556.38 327.38 1556.28L327.22 1558.65C318.644 1558.9 309.492 1559.06 303.348 1559.13L303.22 1556.38ZM334.292 1559.42H362.836V1562.55H334.292V1559.42ZM334.356 1545.05H362.708V1548.22H334.356V1545.05ZM335.668 1550.78H361.492V1553.78H335.668V1550.78ZM337.268 1555.19H359.988V1557.98H337.268V1555.19ZM346.548 1552.31H350.356V1569.88H346.548V1552.31ZM343.764 1539.8H347.348V1546.55H343.764V1539.8ZM349.684 1539.8H353.332V1546.33H349.684V1539.8ZM345.844 1560.82L348.852 1562.17C345.812 1565.5 340.692 1568.22 335.764 1569.5C335.252 1568.57 334.132 1567.1 333.3 1566.3C338.132 1565.37 343.22 1563.26 345.844 1560.82ZM351.124 1560.73C353.716 1563.26 358.708 1565.24 363.7 1566.07C362.836 1566.87 361.684 1568.47 361.108 1569.53C356.052 1568.25 351.156 1565.53 348.148 1561.91L351.124 1560.73ZM357.044 1540.06L361.076 1541.02C360.052 1542.78 358.964 1544.5 358.132 1545.69L355.028 1544.73C355.764 1543.42 356.596 1541.46 357.044 1540.06ZM352.82 1546.94L356.884 1547.86C356.02 1549.4 355.188 1550.81 354.516 1551.83L351.252 1550.9C351.828 1549.75 352.5 1548.12 352.82 1546.94ZM336.66 1541.08L339.956 1539.96C340.884 1541.34 341.94 1543.26 342.388 1544.5L338.9 1545.75C338.548 1544.5 337.524 1542.55 336.66 1541.08ZM340.724 1548.25L344.436 1547.67C344.98 1548.57 345.588 1549.82 345.844 1550.68L341.94 1551.35C341.748 1550.52 341.204 1549.18 340.724 1548.25ZM376.084 1551.26C377.652 1550.65 379.828 1549.59 382.1 1548.5L382.9 1551.22C381.14 1552.25 379.22 1553.27 377.556 1554.14L376.084 1551.26ZM376.692 1542.46L379.028 1540.63C380.372 1541.69 381.876 1543.22 382.548 1544.38L380.052 1546.39C379.412 1545.24 377.972 1543.61 376.692 1542.46ZM384.276 1542.94H393.46V1545.98H384.276V1542.94ZM380.596 1565.14H391.156V1568.54H380.596V1565.14ZM378.836 1557.46H393.204V1569.82H389.428V1560.82H382.42V1569.91H378.836V1557.46ZM384.436 1539.8L387.764 1540.5C386.9 1544.02 385.396 1547.48 383.604 1549.66C382.964 1549.11 381.588 1548.15 380.788 1547.7C382.516 1545.82 383.764 1542.81 384.436 1539.8ZM392.468 1542.94H392.916L393.428 1542.87L395.7 1543.29C395.22 1545.4 394.58 1547.8 394.036 1549.34L391.284 1548.79C391.668 1547.42 392.18 1545.14 392.468 1543.35V1542.94ZM388.34 1544.12H390.132V1547.61C390.132 1549.18 390.964 1552.38 395.924 1554.14C395.316 1554.9 394.42 1556.15 393.94 1556.98C390.644 1555.86 388.82 1553.02 388.308 1551.35C387.796 1553.02 385.716 1555.74 382.1 1556.95C381.716 1556.18 380.884 1554.94 380.244 1554.26C385.492 1552.44 386.452 1549.14 386.452 1547.64V1544.12H388.34ZM366.868 1549.66H375.796V1552.54H366.868V1549.66ZM367.06 1540.82H375.7V1543.74H367.06V1540.82ZM366.868 1554.01H375.796V1556.92H366.868V1554.01ZM365.428 1545.14H376.852V1548.18H365.428V1545.14ZM368.628 1558.46H375.86V1568.12H368.628V1565.11H372.724V1561.46H368.628V1558.46ZM366.772 1558.46H369.908V1569.46H366.772V1558.46ZM412.532 1555.38H418.9V1558.14H412.532V1555.38ZM412.916 1544.54H424.468V1548.06H412.916V1544.54ZM412.916 1550.55H420.692V1563.1H412.916V1560.18H417.46V1553.46H412.916V1550.55ZM410.804 1550.55H414.036V1564.54H410.804V1550.55ZM423.252 1544.54H426.9C426.9 1544.54 426.9 1545.85 426.9 1546.33C426.644 1561.18 426.42 1566.26 425.236 1567.93C424.404 1569.14 423.572 1569.53 422.292 1569.72C421.108 1569.91 419.22 1569.88 417.396 1569.78C417.332 1568.79 416.852 1567.19 416.212 1566.2C418.132 1566.33 419.828 1566.33 420.66 1566.33C421.236 1566.33 421.588 1566.23 421.94 1565.78C422.836 1564.73 423.06 1559.19 423.252 1545.34V1544.54ZM413.14 1539.8L417.012 1540.7C415.636 1545.46 413.3 1550.1 410.676 1553.05C410.004 1552.34 408.404 1551.03 407.508 1550.42C410.036 1547.96 412.052 1543.9 413.14 1539.8ZM398.9 1549.66H408.276V1552.54H398.9V1549.66ZM398.996 1540.82H408.18V1543.74H398.996V1540.82ZM398.9 1554.01H408.276V1556.92H398.9V1554.01ZM397.428 1545.14H409.108V1548.18H397.428V1545.14ZM400.564 1558.46H408.308V1568.18H400.564V1565.14H405.108V1561.5H400.564V1558.46ZM398.836 1558.46H401.972V1569.46H398.836V1558.46ZM448.244 1539.83H451.86V1562.42H448.244V1539.83ZM438.772 1552.7L455.348 1545.66L456.756 1548.92L440.212 1556.09L438.772 1552.7ZM441.94 1542.94H445.588V1563.67C445.588 1565.56 445.876 1565.82 447.86 1565.82C448.82 1565.82 453.076 1565.82 454.068 1565.82C455.828 1565.82 456.148 1565.11 456.404 1561.82C457.236 1562.39 458.74 1563 459.764 1563.19C459.284 1567.74 458.132 1569.24 454.388 1569.24C453.332 1569.24 448.532 1569.24 447.54 1569.24C443.156 1569.24 441.94 1568.09 441.94 1563.64V1542.94ZM454.612 1546.07H454.388L455.06 1545.59L455.732 1545.11L458.42 1546.07L458.26 1546.71C458.26 1552.82 458.196 1556.7 458.068 1558.01C457.94 1559.48 457.396 1560.25 456.404 1560.66C455.476 1561.11 454.1 1561.11 453.076 1561.11C452.948 1560.15 452.66 1558.71 452.244 1557.91C452.788 1557.94 453.524 1557.94 453.812 1557.94C454.196 1557.94 454.388 1557.85 454.484 1557.27C454.612 1556.63 454.612 1553.14 454.612 1546.07ZM429.588 1547.26H440.148V1550.87H429.588V1547.26ZM433.3 1540.28H436.884V1561.5H433.3V1540.28ZM429.14 1561.53C431.796 1560.57 435.956 1558.84 439.86 1557.18L440.724 1560.57C437.332 1562.3 433.652 1564.02 430.676 1565.37L429.14 1561.53ZM461.62 1547.48H470.516V1551.1H461.62V1547.48ZM464.5 1540.28H468.052V1561.72H464.5V1540.28ZM461.332 1562.2C463.572 1561.21 466.996 1559.48 470.26 1557.75L471.38 1561.14C468.532 1562.84 465.396 1564.63 462.772 1566.04L461.332 1562.2ZM470.996 1544.25H491.188V1547.7H470.996V1544.25ZM470.004 1562.84C472.82 1562.33 477.044 1561.37 481.108 1560.44L481.46 1563.64C477.812 1564.63 473.94 1565.66 470.9 1566.42L470.004 1562.84ZM481.204 1539.86H484.852C484.628 1552.73 486.388 1566.26 488.5 1566.26C488.916 1566.26 489.204 1565.11 489.268 1562.26C490.004 1563.13 491.092 1563.93 491.86 1564.34C491.348 1568.63 490.42 1569.88 487.988 1569.88C482.42 1569.88 481.268 1554.2 481.204 1539.86ZM485.46 1541.69L487.604 1539.83C488.852 1540.73 490.42 1542.04 491.156 1542.97L488.884 1545.05C488.18 1544.09 486.708 1542.68 485.46 1541.69ZM487.316 1549.82L490.74 1550.46C488.724 1559 485.012 1565.62 479.348 1569.69C478.804 1569.05 477.364 1567.8 476.596 1567.26C482.228 1563.7 485.652 1557.62 487.316 1549.82ZM474.74 1552.79V1556.7H477.204V1552.79H474.74ZM471.924 1549.85H480.18V1559.67H471.924V1549.85ZM494.548 1541.98H522.452V1545.91H494.548V1541.98ZM510.004 1552.7L512.98 1550.2C516.404 1552.7 521.332 1556.38 523.668 1558.94L520.404 1561.88C518.292 1559.35 513.556 1555.42 510.004 1552.7ZM508.724 1543.42L513.012 1544.92C509.364 1551.67 503.54 1558.2 496.18 1562.04C495.572 1561.02 494.356 1559.42 493.556 1558.55C500.404 1555.32 506.068 1549.11 508.724 1543.42ZM506.388 1551.16L510.612 1546.97V1569.82H506.388V1551.16ZM526.484 1549.02H554.548V1556.02H550.772V1552.34H530.068V1556.02H526.484V1549.02ZM531.124 1554.81H547.988V1558.33H531.124V1554.81ZM550.772 1539.64L553.364 1542.74C546.132 1544.15 536.148 1544.86 527.636 1545.11C527.572 1544.15 527.124 1542.68 526.772 1541.85C535.252 1541.56 544.884 1540.79 550.772 1539.64ZM529.588 1545.72L532.948 1544.79C533.684 1545.94 534.484 1547.48 534.772 1548.54L531.252 1549.59C530.996 1548.54 530.26 1546.94 529.588 1545.72ZM538.036 1545.05L541.428 1544.28C542.1 1545.56 542.74 1547.29 542.9 1548.44L539.316 1549.3C539.188 1548.18 538.644 1546.39 538.036 1545.05ZM548.212 1544.22L552.276 1545.18C551.156 1547.16 549.876 1549.24 548.916 1550.62L545.78 1549.69C546.644 1548.15 547.668 1545.88 548.212 1544.22ZM546.58 1554.81H547.38L548.052 1554.68L550.644 1556.22C546.836 1564.6 538.068 1568.15 527.988 1569.59C527.604 1568.63 526.516 1566.94 525.748 1566.14C535.604 1565.14 543.7 1562.23 546.58 1555.42V1554.81ZM534.9 1557.4C538.484 1562.26 545.812 1565.05 555.124 1565.91C554.324 1566.78 553.268 1568.44 552.788 1569.53C543.156 1568.28 536.02 1564.92 531.54 1558.78L534.9 1557.4ZM572.66 1547.13H583.7V1550.26H572.66V1547.13ZM567.156 1565.66C570.068 1565.24 574.548 1564.44 578.836 1563.67L579.124 1567C575.412 1567.86 571.476 1568.73 568.436 1569.4L567.156 1565.66ZM570.484 1541.27H574.228V1566.55H570.484V1541.27ZM572.66 1541.27H585.428V1556.22H572.66V1552.92H581.652V1544.57H572.66V1541.27ZM579.348 1554.04C580.5 1559.74 582.964 1564.47 587.668 1566.55C586.836 1567.29 585.716 1568.79 585.172 1569.78C580.02 1567.06 577.524 1561.62 576.148 1554.55L579.348 1554.04ZM583.956 1556.44L586.964 1558.55C585.204 1560.22 583.156 1562.01 581.556 1563.16L579.156 1561.3C580.692 1560.06 582.772 1558.04 583.956 1556.44ZM558.836 1541.21H566.836V1544.63H562.42V1569.91H558.836V1541.21ZM565.78 1541.21H566.452L566.996 1541.08L569.588 1542.58C568.724 1545.37 567.572 1548.92 566.58 1551.42C568.692 1553.91 569.108 1556.12 569.108 1557.98C569.108 1560.12 568.628 1561.46 567.572 1562.2C567.06 1562.58 566.42 1562.81 565.684 1562.9C565.076 1563 564.244 1563 563.476 1562.97C563.444 1562.01 563.156 1560.5 562.612 1559.54C563.22 1559.61 563.668 1559.61 564.084 1559.61C564.436 1559.58 564.756 1559.51 565.044 1559.32C565.46 1559.03 565.62 1558.39 565.62 1557.5C565.62 1555.99 565.14 1554.01 563.252 1551.83C564.18 1548.95 565.268 1544.41 565.78 1542.36V1541.21Z" fill="#538AA2"/>
<g clip-path="url(#clip1_1000_1311)">
<path d="M3.96756e-05 1078.95L0 139L1920 139V1110.68C1543.29 1047.23 1333.12 1099.22 960 1161.82C586.833 1220.86 376.749 1137.25 3.96756e-05 1078.95Z" fill="white"/>
<path d="M3.96756e-05 1078.95L0 139L1920 139V1110.68C1543.29 1047.23 1333.12 1099.22 960 1161.82C586.833 1220.86 376.749 1137.25 3.96756e-05 1078.95Z" fill="url(#paint0_linear_1000_1311)" fill-opacity="0.1"/>
<circle cx="384.5" cy="1016.5" r="50.5" fill="url(#paint1_linear_1000_1311)"/>
<path fill-rule="evenodd" clip-rule="evenodd" d="M384 988C382.343 988 381 989.343 381 991V1032.78L376.341 1028.58C374.905 1027.29 372.692 1027.41 371.399 1028.84C370.105 1030.28 370.222 1032.49 371.659 1033.79L381.659 1042.79C382.99 1043.98 385.01 1043.98 386.341 1042.79L396.341 1033.79C397.778 1032.49 397.895 1030.28 396.602 1028.84C395.308 1027.41 393.095 1027.29 391.659 1028.58L387 1032.78V991C387 989.343 385.657 988 384 988Z" fill="url(#paint2_linear_1000_1311)"/>
</g>
<path d="M357.924 4032.21L367.62 4034.42C362.628 4044.4 355.812 4053.71 345.924 4061.58C344.484 4059.18 341.508 4055.63 339.396 4054.1C348.228 4047.95 354.564 4039.5 357.924 4032.21ZM363.108 4069.26L372.804 4071.47C367.044 4082.42 358.5 4092.11 345.732 4099.7C344.484 4097.1 341.7 4093.26 339.684 4091.63C351.396 4085.68 359.076 4077.23 363.108 4069.26ZM357.924 4041.14H376.548V4050.35H350.82L357.924 4041.14ZM372.996 4041.14H374.724L376.356 4040.75L382.788 4044.21C376.356 4063.89 362.148 4075.6 345.924 4081.94C344.772 4079.25 342.468 4075.31 340.644 4073.3C355.044 4068.59 368.1 4057.65 372.996 4042.86V4041.14ZM362.148 4076.66H378.276V4086.26H354.66L362.148 4076.66ZM376.164 4076.66H377.988L379.812 4076.27L386.34 4079.63C379.62 4103.82 363.972 4116.5 344.484 4122.93C343.428 4120.24 341.22 4115.92 339.3 4113.62C356.676 4108.91 371.172 4097.1 376.164 4078.48V4076.66ZM349.476 4060.72L356.58 4055.34C360.036 4057.46 364.452 4060.82 366.66 4063.31L359.268 4069.17C357.252 4066.67 352.932 4063.12 349.476 4060.72ZM352.548 4097.49L359.748 4092.02C363.204 4094.13 367.716 4097.49 370.02 4100.08L362.34 4106.03C360.42 4103.63 356.004 4099.89 352.548 4097.49ZM393.06 4032.59L403.428 4035.18C399.108 4049.2 392.004 4062.83 384.228 4071.47C382.5 4069.55 378.18 4065.9 375.876 4064.27C383.46 4056.88 389.7 4044.88 393.06 4032.59ZM417.444 4046.32H427.62C427.62 4046.32 427.524 4049.97 427.524 4051.41C426.948 4095.95 426.372 4111.22 423.3 4115.82C421.284 4119.18 418.98 4120.34 415.812 4120.91C412.74 4121.49 408.228 4121.39 403.716 4121.3C403.524 4118.22 402.276 4113.62 400.452 4110.64C404.964 4111.02 408.996 4111.02 410.916 4111.02C412.452 4111.02 413.316 4110.64 414.18 4109.3C416.388 4106.22 416.964 4090.67 417.444 4048.72V4046.32ZM394.02 4064.37H412.932V4099.6H394.02V4090.58H403.812V4073.49H394.02V4064.37ZM387.78 4064.37H396.9V4106.32H387.78V4064.37ZM392.196 4046.32H421.476V4056.3H392.196V4046.32ZM451.236 4109.49H539.172V4119.66H451.236V4109.49ZM452.772 4052.37H537.828V4062.54H452.772V4052.37ZM464.1 4083.76H526.692V4114.77H515.94V4093.46H509.028V4114.77H498.468V4093.46H491.652V4114.77H481.092V4093.46H474.276V4114.77H464.1V4083.76ZM466.404 4037.58L476.292 4033.26C480.516 4038.45 484.932 4045.26 487.044 4049.87L476.676 4055.15C474.756 4050.35 470.34 4042.96 466.404 4037.58ZM513.252 4032.4L525.54 4036.05C521.508 4042.67 516.9 4049.39 513.252 4053.81L503.076 4050.35C506.724 4045.55 511.044 4038.06 513.252 4032.4ZM478.404 4054.77L489.924 4058.22C482.724 4073.39 470.628 4086.74 458.148 4094.99C456.324 4092.59 451.908 4088.18 449.22 4086.06C461.604 4079.25 472.548 4067.82 478.404 4054.77ZM510.18 4054.77C516.228 4066.86 528.516 4078.77 541.38 4084.91C538.788 4087.02 535.236 4091.34 533.412 4094.22C519.876 4086.74 507.588 4073.3 500.004 4058.42L510.18 4054.77ZM600.036 4090.67L612.9 4092.21C611.076 4096.53 609.252 4100.46 608.004 4103.25L597.828 4101.42C598.692 4098.06 599.652 4093.84 600.036 4090.67ZM590.052 4083.18V4087.79H620.292V4083.18H590.052ZM579.396 4076.08H631.716V4094.8H579.396V4076.08ZM572.676 4099.12H640.932V4122.64H629.508V4107.09H583.524V4122.64H572.676V4099.12ZM579.396 4112.37H634.308V4120.43H579.396V4112.37ZM564.42 4063.6H647.172V4082.32H635.556V4072.34H575.46V4082.32H564.42V4063.6ZM596.484 4036.62L605.7 4039.6C602.628 4043.34 599.556 4046.99 597.156 4049.39L590.532 4046.7C592.644 4043.82 595.14 4039.5 596.484 4036.62ZM579.396 4053.23L586.02 4046.99C591.012 4049.68 598.116 4053.81 601.764 4056.5L594.852 4063.5C591.396 4060.72 584.484 4056.3 579.396 4053.23ZM580.548 4032.5H590.532C589.668 4049.97 586.308 4059.86 566.82 4065.23C565.956 4062.74 563.364 4058.99 561.348 4057.17C577.86 4053.23 579.876 4046.32 580.548 4032.5ZM569.7 4036.34L576.996 4038.93C575.46 4043.63 573.156 4048.53 569.124 4051.5L562.116 4047.28C565.668 4044.78 568.356 4040.37 569.7 4036.34ZM639.108 4036.43L648.996 4039.7C645.636 4043.44 642.372 4047.28 639.876 4049.78L632.868 4046.99C635.076 4043.92 637.764 4039.5 639.108 4036.43ZM620.964 4053.62L627.396 4046.7C633.828 4049.78 643.332 4054.58 648.228 4057.74L641.412 4065.62C636.9 4062.35 627.588 4057.17 620.964 4053.62ZM621.732 4032.5H632.1C631.332 4049.97 628.068 4059.76 608.004 4064.75C607.236 4062.26 604.644 4058.32 602.532 4056.3C619.332 4052.66 621.156 4046.22 621.732 4032.5ZM610.692 4036.43L618.084 4039.12C616.452 4043.82 614.148 4048.43 610.212 4051.6L603.108 4047.18C606.66 4044.69 609.348 4040.37 610.692 4036.43ZM677.796 4040.85H753.828V4049.3H677.796V4040.85ZM682.692 4052.66H749.316V4060.62H682.692V4052.66ZM673.188 4063.98H758.628V4072.43H673.188V4063.98ZM696.036 4088.18H733.572V4094.13H696.036V4088.18ZM709.956 4045.46H721.86V4068.11H709.956V4045.46ZM710.34 4074.16H721.284V4082.8H710.34V4074.16ZM690.564 4035.38L700.74 4032.11C703.044 4034.51 705.348 4037.97 706.404 4040.46L695.748 4044.4C694.98 4041.9 692.772 4038.06 690.564 4035.38ZM730.5 4032.4L743.172 4034.8C740.484 4038.35 737.796 4041.33 735.78 4043.34L725.892 4040.75C727.524 4038.26 729.444 4034.7 730.5 4032.4ZM734.724 4066.38C740.004 4073.87 750.372 4080.3 761.508 4083.28C759.204 4085.49 755.94 4089.52 754.308 4092.3C742.5 4088.18 731.94 4079.63 725.7 4069.55L734.724 4066.38ZM719.364 4100.08C726.276 4108.43 740.676 4112.27 759.684 4113.04C757.38 4115.34 754.692 4119.76 753.348 4122.83C732.9 4120.72 718.692 4114.77 710.34 4102L719.364 4100.08ZM697.476 4078.1H742.404V4104.3H697.476V4097.3H730.788V4085.1H697.476V4078.1ZM689.796 4078.1H701.22V4115.44H689.796V4078.1ZM679.62 4112.18C690.18 4111.6 706.5 4110.54 721.956 4109.39V4118.42C707.364 4119.76 692.004 4121.1 680.772 4122.06L679.62 4112.18ZM746.148 4100.37L754.596 4105.17C749.124 4109.1 742.692 4112.75 737.604 4115.25L731.076 4111.12C735.876 4108.34 742.404 4103.73 746.148 4100.37ZM696.132 4066.67L706.788 4069.74C700.356 4080.11 689.124 4088.37 677.988 4093.36C676.356 4091.15 672.516 4087.02 670.116 4085.01C680.964 4081.17 691.044 4074.64 696.132 4066.67Z" fill="#538AA2" fill-opacity="0.5"/>
<path d="M48.1398 4289H32.3216L56.4239 4219.18H75.4466L99.5148 4289H83.6966L66.208 4235.14H65.6625L48.1398 4289ZM47.1511 4261.56H84.5148V4273.08H47.1511V4261.56ZM122.318 4289V4219.18H149.864C155.159 4219.18 159.67 4220.19 163.398 4222.22C167.125 4224.22 169.966 4227 171.92 4230.57C173.898 4234.11 174.886 4238.2 174.886 4242.84C174.886 4247.48 173.886 4251.57 171.886 4255.11C169.886 4258.66 166.989 4261.42 163.193 4263.4C159.42 4265.37 154.852 4266.36 149.489 4266.36H131.932V4254.53H147.102C149.943 4254.53 152.284 4254.05 154.125 4253.07C155.989 4252.07 157.375 4250.69 158.284 4248.94C159.216 4247.17 159.682 4245.14 159.682 4242.84C159.682 4240.52 159.216 4238.5 158.284 4236.77C157.375 4235.02 155.989 4233.67 154.125 4232.72C152.261 4231.74 149.898 4231.25 147.034 4231.25H137.08V4289H122.318ZM198.874 4289V4219.18H226.42C231.715 4219.18 236.227 4220.19 239.954 4222.22C243.681 4224.22 246.522 4227 248.477 4230.57C250.454 4234.11 251.443 4238.2 251.443 4242.84C251.443 4247.48 250.443 4251.57 248.443 4255.11C246.443 4258.66 243.545 4261.42 239.749 4263.4C235.977 4265.37 231.409 4266.36 226.045 4266.36H208.488V4254.53H223.659C226.499 4254.53 228.84 4254.05 230.681 4253.07C232.545 4252.07 233.931 4250.69 234.84 4248.94C235.772 4247.17 236.238 4245.14 236.238 4242.84C236.238 4240.52 235.772 4238.5 234.84 4236.77C233.931 4235.02 232.545 4233.67 230.681 4232.72C228.818 4231.74 226.454 4231.25 223.59 4231.25H213.636V4289H198.874Z" fill="#538AA2" fill-opacity="0.5"/>
<circle cx="384" cy="574" r="294" fill="white" fill-opacity="0.5"/>
<g filter="url(#filter0_d_1000_1311)">
<ellipse cx="384.5" cy="574" rx="245.5" ry="246" fill="white"/>
</g>
<ellipse cx="359" cy="810" rx="121" ry="12" fill="#8DBB8D" fill-opacity="0.3"/>
</g>
<defs>
<filter id="filter0_d_1000_1311" x="135" y="328" width="499" height="500" filterUnits="userSpaceOnUse" color-interpolation-filters="sRGB">
<feFlood flood-opacity="0" result="BackgroundImageFix"/>
<feColorMatrix in="SourceAlpha" type="matrix" values="0 0 0 0 0 0 0 0 0 0 0 0 0 0 0 0 0 0 127 0" result="hardAlpha"/>
<feOffset dy="4"/>
<feGaussianBlur stdDeviation="2"/>
<feComposite in2="hardAlpha" operator="out"/>
<feColorMatrix type="matrix" values="0 0 0 0 0 0 0 0 0 0 0 0 0 0 0 0 0 0 0.25 0"/>
<feBlend mode="normal" in2="BackgroundImageFix" result="effect1_dropShadow_1000_1311"/>
<feBlend mode="normal" in="SourceGraphic" in2="effect1_dropShadow_1000_1311" result="shape"/>
</filter>
<linearGradient id="paint0_linear_1000_1311" x1="-154.819" y1="1183.34" x2="-122.234" y2="77.529" gradientUnits="userSpaceOnUse">
<stop stop-color="#399983"/>
<stop offset="1" stop-color="#538AA2"/>
</linearGradient>
<linearGradient id="paint1_linear_1000_1311" x1="384.5" y1="966" x2="384.5" y2="1067" gradientUnits="userSpaceOnUse">
<stop stop-color="white"/>
<stop offset="0.544092" stop-color="white" stop-opacity="0.5"/>
<stop offset="0.824251" stop-color="white" stop-opacity="0"/>
</linearGradient>
<linearGradient id="paint2_linear_1000_1311" x1="370.465" y1="978.963" x2="399.098" y2="979.687" gradientUnits="userSpaceOnUse">
<stop stop-color="#399983"/>
<stop offset="1" stop-color="#538AA2"/>
</linearGradient>
<clipPath id="clip0_1000_1311">
<rect width="768" height="4923.54" fill="white"/>
</clipPath>
<clipPath id="clip1_1000_1311">
<rect width="768" height="1043" fill="white" transform="translate(0 139)"/>
</clipPath>
</defs>
</svg>
