<svg width="24" height="24" viewBox="0 0 24 24" fill="none" xmlns="http://www.w3.org/2000/svg">
<path fill-rule="evenodd" clip-rule="evenodd" d="M12.0004 2.39999C11.6821 2.39999 11.3769 2.52642 11.1519 2.75147C10.9268 2.97651 10.8004 3.28173 10.8004 3.59999V4.79999C10.8004 5.11825 10.9268 5.42348 11.1519 5.64852C11.3769 5.87357 11.6821 5.99999 12.0004 5.99999C12.3187 5.99999 12.6239 5.87357 12.8489 5.64852C13.074 5.42348 13.2004 5.11825 13.2004 4.79999V3.59999C13.2004 3.28173 13.074 2.97651 12.8489 2.75147C12.6239 2.52642 12.3187 2.39999 12.0004 2.39999V2.39999ZM4.80039 4.79999H8.40039C8.40039 5.75477 8.77968 6.67045 9.45481 7.34558C10.1299 8.02071 11.0456 8.39999 12.0004 8.39999C12.9552 8.39999 13.8708 8.02071 14.546 7.34558C15.2211 6.67045 15.6004 5.75477 15.6004 4.79999H19.2004C19.8369 4.79999 20.4474 5.05285 20.8974 5.50294C21.3475 5.95302 21.6004 6.56347 21.6004 7.19999V18C21.6004 18.6365 21.3475 19.247 20.8974 19.6971C20.4474 20.1471 19.8369 20.4 19.2004 20.4H4.80039C4.16387 20.4 3.55342 20.1471 3.10333 19.6971C2.65325 19.247 2.40039 18.6365 2.40039 18V7.19999C2.40039 6.56347 2.65325 5.95302 3.10333 5.50294C3.55342 5.05285 4.16387 4.79999 4.80039 4.79999V4.79999ZM7.80039 13.2C8.27778 13.2 8.73562 13.0104 9.07318 12.6728C9.41075 12.3352 9.60039 11.8774 9.60039 11.4C9.60039 10.9226 9.41075 10.4648 9.07318 10.1272C8.73562 9.78964 8.27778 9.59999 7.80039 9.59999C7.323 9.59999 6.86516 9.78964 6.5276 10.1272C6.19003 10.4648 6.00039 10.9226 6.00039 11.4C6.00039 11.8774 6.19003 12.3352 6.5276 12.6728C6.86516 13.0104 7.323 13.2 7.80039 13.2V13.2ZM10.7404 18C10.8289 17.5643 10.8194 17.1144 10.7127 16.6828C10.6059 16.2512 10.4046 15.8487 10.1232 15.5044C9.84184 15.1602 9.48748 14.8828 9.08576 14.6923C8.68403 14.5018 8.24499 14.403 7.80039 14.403C7.35579 14.403 6.91675 14.5018 6.51502 14.6923C6.1133 14.8828 5.75894 15.1602 5.47757 15.5044C5.19621 15.8487 4.99487 16.2512 4.88813 16.6828C4.78139 17.1144 4.77192 17.5643 4.86039 18H10.7404ZM14.4004 10.8C14.0821 10.8 13.7769 10.9264 13.5519 11.1515C13.3268 11.3765 13.2004 11.6817 13.2004 12C13.2004 12.3183 13.3268 12.6235 13.5519 12.8485C13.7769 13.0736 14.0821 13.2 14.4004 13.2H18.0004C18.3187 13.2 18.6239 13.0736 18.8489 12.8485C19.074 12.6235 19.2004 12.3183 19.2004 12C19.2004 11.6817 19.074 11.3765 18.8489 11.1515C18.6239 10.9264 18.3187 10.8 18.0004 10.8H14.4004ZM13.2004 15.6C13.2004 15.2817 13.3268 14.9765 13.5519 14.7515C13.7769 14.5264 14.0821 14.4 14.4004 14.4H16.8004C17.1187 14.4 17.4239 14.5264 17.6489 14.7515C17.874 14.9765 18.0004 15.2817 18.0004 15.6C18.0004 15.9183 17.874 16.2235 17.6489 16.4485C17.4239 16.6736 17.1187 16.8 16.8004 16.8H14.4004C14.0821 16.8 13.7769 16.6736 13.5519 16.4485C13.3268 16.2235 13.2004 15.9183 13.2004 15.6Z" fill="url(#paint0_linear_511_778)"/>
<defs>
<linearGradient id="paint0_linear_511_778" x1="21.6004" y1="20.4" x2="2.40039" y2="2.39999" gradientUnits="userSpaceOnUse">
<stop stop-color="#538AA2"/>
<stop offset="1" stop-color="#399983"/>
</linearGradient>
</defs>
</svg>
