<svg width="112" height="66" viewBox="0 0 112 66" fill="none" xmlns="http://www.w3.org/2000/svg">
<path d="M107 37.8037V39.7601H101.299V53.869H99.1468V39.7601H93.4463V37.8037H107Z" fill="#538AA1"/>
<path d="M94.67 53.869L92.9863 49.7491H85.3759L83.6922 53.869H81.4697L88.1148 37.8037H90.2475L96.8925 53.869H94.67ZM86.1841 47.7237V47.8387H92.1781V47.7237L89.2148 40.3815H89.1699L86.1841 47.7237Z" fill="#538AA1"/>
<path d="M82.3912 39.7601H73.2266V44.8466H81.5517V46.803H73.2266V51.9126H82.3912V53.869H71.1045V37.8037H82.3912V39.7601Z" fill="#538AA1"/>
<path d="M53.094 40.2284C54.4473 38.7428 56.2493 38 58.5 38C60.7507 38 62.5527 38.7428 63.906 40.2284C65.2593 41.714 65.9573 43.6379 66 46C65.9573 48.3621 65.2593 50.286 63.906 51.7716C62.5527 53.2572 60.7507 54 58.5 54C56.2493 54 54.4473 53.2572 53.094 51.7716C51.7407 50.286 51.0427 48.3621 51 46C51.0427 43.6379 51.7407 41.714 53.094 40.2284ZM52.9444 46C52.9444 47.7679 53.4359 49.2312 54.4188 50.39C55.416 51.5339 56.7692 52.1059 58.4786 52.1059C60.2023 52.1059 61.5627 51.5339 62.5598 50.39C63.557 49.2312 64.0556 47.7679 64.0556 46C64.0556 44.2321 63.557 42.7762 62.5598 41.6323C61.5627 40.4735 60.2023 39.8942 58.4786 39.8942C56.7692 39.8942 55.416 40.4735 54.4188 41.6323C53.4359 42.7762 52.9444 44.2321 52.9444 46Z" fill="#616161"/>
<path d="M42.0421 45.2423H48V52.2841C46.0518 53.428 44.0356 54 41.9515 54C39.5804 54 37.6624 53.2572 36.1974 51.7716C34.7325 50.286 34 48.3621 34 46C34 43.6379 34.7551 41.714 36.2654 40.2284C37.7756 38.7428 39.5879 38 41.7023 38C43.8317 38 45.8479 38.572 47.7508 39.7159V41.8106H47.6602C45.8026 40.5775 43.9676 39.961 42.1553 39.961C40.3581 39.961 38.8932 40.4958 37.7605 41.5655C36.6278 42.6351 36.0615 44.091 36.0615 45.9331C36.0615 47.7604 36.6127 49.2461 37.7152 50.39C38.8177 51.519 40.3204 52.0836 42.2233 52.0836C43.6429 52.0836 44.9644 51.7567 46.1877 51.1031V47.0696H42.0421V45.2423Z" fill="#616161"/>
<path fill-rule="evenodd" clip-rule="evenodd" d="M9.1955 54.3249C8.40756 58.3968 7.63616 62.3831 4.83343 64.2609C-8.99828 42.8779 9.11728 8.78794 30.6431 1C32.5433 10.1914 27.5592 18.4982 23.951 24.5116C23.4933 25.2746 23.0576 26.0006 22.661 26.6869C17.8056 34.284 13.9762 40.9418 11.0978 47.2876C10.1551 49.3658 9.67229 51.861 9.1955 54.3249ZM27.526 36.6889C25.548 47.7489 24.4875 53.6785 8.10845 62.8646C9.39307 60.6597 9.96587 57.6996 10.5471 54.6961L10.6164 54.3382C10.773 54.0004 10.9315 53.6581 11.0918 53.3117C15.7329 43.2857 21.9487 29.858 30.3296 23.8961C28.9182 28.9049 28.173 33.0714 27.526 36.6889ZM5.29946 64.3646L5.3122 64.3859L5.25977 64.4136L5.29946 64.3646Z" fill="url(#paint0_linear_659_977)"/>
<defs>
<linearGradient id="paint0_linear_659_977" x1="15.5307" y1="1" x2="55.1558" y2="39.8186" gradientUnits="userSpaceOnUse">
<stop stop-color="#399983"/>
<stop offset="1" stop-color="#538AA1"/>
</linearGradient>
</defs>
</svg>
