<svg width="93" height="80" viewBox="0 0 93 80" fill="none" xmlns="http://www.w3.org/2000/svg">
<path fill-rule="evenodd" clip-rule="evenodd" d="M11.6009 67.2737C10.6068 72.4106 9.63363 77.4397 6.09776 79.8087C-11.352 52.8323 11.5022 9.82511 38.6587 0C41.056 11.5957 34.7681 22.0754 30.2162 29.6618C29.6386 30.6243 29.0891 31.5403 28.5887 32.406C22.4632 41.9904 17.6321 50.3898 14.0008 58.3955C12.8115 61.0173 12.2024 64.1653 11.6009 67.2737ZM34.7264 45.0228C32.2309 58.9757 30.893 66.4563 10.2304 78.0451C11.8505 75.2635 12.573 71.5298 13.3061 67.7412L13.3939 67.2881C13.5913 66.8622 13.7912 66.4305 13.9934 65.9937C19.8485 53.3451 27.6901 36.405 38.2634 28.8837C36.4827 35.2026 35.5426 40.4589 34.7264 45.0227L34.7264 45.0228ZM6.68554 79.9382L6.70151 79.9649L6.63574 79.9997L6.68554 79.9382Z" fill="url(#paint0_linear_485_322)"/>
<path d="M92.9708 52.8777V55.3459H85.7792V73.1454H83.0637V55.3459H75.8721V52.8777H92.9708Z" fill="#538AA1"/>
<path d="M77.415 73.1454L75.2908 67.9478H65.6897L63.5656 73.1454H60.7617L69.145 52.8777H71.8356L80.2188 73.1454H77.415ZM66.7093 65.3926V65.5377H74.2712V65.3926L70.5328 56.1299H70.4761L66.7093 65.3926Z" fill="#538AA1"/>
<path d="M61.9236 55.3459H50.3618V61.763H60.8645V64.2311H50.3618V70.6772H61.9236V73.1454H47.6846V52.8777H61.9236V55.3459Z" fill="#538AA1"/>
<path d="M67.4423 33.9404C68.8647 32.426 70.7589 31.6688 73.1246 31.6688C75.4904 31.6688 77.3845 32.426 78.807 33.9404C80.2294 35.4549 80.9631 37.4161 81.008 39.824C80.9631 42.232 80.2294 44.1932 78.807 45.7076C77.3845 47.2221 75.4904 47.9793 73.1246 47.9793C70.7589 47.9793 68.8647 47.2221 67.4423 45.7076C66.0198 44.1932 65.2861 42.232 65.2412 39.824C65.2861 37.4161 66.0198 35.4549 67.4423 33.9404ZM67.2851 39.824C67.2851 41.6262 67.8016 43.1179 68.8348 44.2992C69.8829 45.4653 71.3054 46.0484 73.1022 46.0484C74.9139 46.0484 76.3439 45.4653 77.392 44.2992C78.4401 43.1179 78.9642 41.6262 78.9642 39.824C78.9642 38.0218 78.4401 36.5377 77.392 35.3716C76.3439 34.1903 74.9139 33.5997 73.1022 33.5997C71.3054 33.5997 69.8829 34.1903 68.8348 35.3716C67.8016 36.5377 67.2851 38.0218 67.2851 39.824Z" fill="#616161"/>
<path d="M55.9638 39.0517H61.9795V46.2301C60.0124 47.3962 57.9767 47.9793 55.8723 47.9793C53.4782 47.9793 51.5416 47.2221 50.0625 45.7076C48.5833 44.1932 47.8438 42.232 47.8438 39.824C47.8438 37.4161 48.6062 35.4549 50.1311 33.9404C51.656 32.426 53.4859 31.6688 55.6207 31.6688C57.7708 31.6688 59.8066 32.2518 61.7279 33.4179V35.5533H61.6364C59.7608 34.2963 57.9081 33.6678 56.0782 33.6678C54.2636 33.6678 52.7844 34.213 51.6407 35.3034C50.4971 36.3938 49.9252 37.878 49.9252 39.7559C49.9252 41.6186 50.4818 43.1331 51.595 44.2992C52.7082 45.4502 54.2254 46.0256 56.1468 46.0256C57.5802 46.0256 58.9145 45.6925 60.1497 45.0261V40.9144H55.9638V39.0517Z" fill="#616161"/>
<defs>
<linearGradient id="paint0_linear_485_322" x1="19.5932" y1="1.19209e-06" x2="69.5825" y2="48.9727" gradientUnits="userSpaceOnUse">
<stop stop-color="#399983"/>
<stop offset="1" stop-color="#538AA1"/>
</linearGradient>
</defs>
</svg>
