<svg width="24" height="24" viewBox="0 0 24 24" fill="none" xmlns="http://www.w3.org/2000/svg">
<path fill-rule="evenodd" clip-rule="evenodd" d="M22 13.1752C22 11.8525 21.3621 10.6989 20.4164 10.0888C20.0386 5.55769 16.3055 2 11.7561 2C7.06922 2 3.24879 5.77588 3.07079 10.5021C2.41457 11.1524 2 12.1089 2 13.1752C2 15.1345 3.39973 16.7228 5.12639 16.7228C6.85304 16.7228 8.25277 15.1345 8.25277 13.1752C8.25277 11.2158 6.85304 9.62749 5.12639 9.62749H5.12015C5.6849 6.37902 8.46616 3.95122 11.7561 3.95122C15.0597 3.95122 17.8504 6.39928 18.399 9.66812C16.8976 9.92758 15.7472 11.3989 15.7472 13.1752C15.7472 15.1345 17.147 16.7228 18.8736 16.7228C19.0702 16.7228 19.2625 16.7023 19.449 16.6629C19.045 17.4627 18.5367 18.0596 17.8093 18.6519C16.7081 19.3434 15.6312 19.6922 13.9922 19.9197C13.7206 19.4198 13.1293 19.0732 12.4435 19.0732C11.5005 19.0732 10.7361 19.7284 10.7361 20.5366C10.7361 21.3448 11.5005 22 12.4435 22C13.1134 22 13.6933 21.6693 13.9728 21.1878C16.4103 20.8467 17.6612 20.3672 18.7849 19.5831C19.8487 18.6699 20.4569 17.8317 21.0363 15.7371C21.6302 15.0913 22 14.1823 22 13.1752ZM5.12639 15.082C5.75809 15.082 6.61197 14.4294 6.61197 13.1752C6.61197 11.921 5.75809 11.2683 5.12639 11.2683C4.49468 11.2683 3.6408 11.921 3.6408 13.1752C3.6408 14.4294 4.49468 15.082 5.12639 15.082ZM18.8736 15.082C19.5053 15.082 20.3592 14.4294 20.3592 13.1752C20.3592 11.921 19.5053 11.2683 18.8736 11.2683C18.2419 11.2683 17.388 11.921 17.388 13.1752C17.388 14.4294 18.2419 15.082 18.8736 15.082Z" fill="#83BBAE"/>
</svg>
