<svg width="32" height="30" viewBox="0 0 32 30" fill="none" xmlns="http://www.w3.org/2000/svg">
<path fill-rule="evenodd" clip-rule="evenodd" d="M14.8047 2.41935C11.5116 2.41935 8.35329 3.74481 6.02468 6.10414C3.69606 8.46346 2.38786 11.6634 2.38786 15C2.38786 16.6521 2.70903 18.2881 3.33304 19.8144C3.95705 21.3407 4.87166 22.7276 6.02468 23.8959C7.17769 25.064 8.54651 25.9907 10.053 26.623C11.5594 27.2552 13.1741 27.5806 14.8047 27.5806C15.4411 27.5806 16.0752 27.5311 16.7013 27.4331C16.9541 28.2784 17.4089 29.0348 18.0088 29.6445C16.9592 29.8802 15.8849 30 14.8047 30C12.8605 30 10.9354 29.612 9.1392 28.8582C7.34301 28.1044 5.71095 26.9995 4.3362 25.6066C2.96146 24.2137 1.87096 22.5601 1.12695 20.7403C0.382936 18.9203 0 16.9698 0 15C0 11.0217 1.55978 7.20645 4.3362 4.39339C7.11263 1.58035 10.8782 0 14.8047 0C18.7312 0 22.4968 1.58035 25.2733 4.39339C28.0497 7.20645 29.6095 11.0217 29.6095 15C29.6095 16.9072 29.2505 18.7964 28.5524 20.5663C28.5069 20.5651 28.4613 20.5645 28.4155 20.5645H25.9409C26.0607 20.3186 26.1726 20.0685 26.2764 19.8144C26.9004 18.2881 27.2216 16.6521 27.2216 15C27.2216 11.6634 25.9134 8.46346 23.5848 6.10414C21.2562 3.74481 18.0979 2.41935 14.8047 2.41935ZM14.8047 6.12903C15.4642 6.12903 15.9987 6.67063 15.9987 7.33871V7.75239C17.4672 7.97933 18.7918 8.62366 19.6369 9.61035C20.0691 10.1149 20.0158 10.8789 19.5178 11.3168C19.0198 11.7547 18.2657 11.7007 17.8335 11.1961C17.4838 10.7878 16.8424 10.4051 15.9987 10.2118V13.881C17.0005 14.0355 17.9234 14.3831 18.6752 14.8907C19.7098 15.5895 20.5356 16.6877 20.5356 18.0645C20.5356 19.4413 19.7098 20.5394 18.6752 21.2383C17.9234 21.746 17.0005 22.0935 15.9987 22.248V22.6613C15.9987 23.3294 15.4642 23.871 14.8047 23.871C14.1453 23.871 13.6108 23.3294 13.6108 22.6613V22.2476C12.1423 22.0207 10.8177 21.3764 9.97256 20.3896C9.54036 19.8851 9.59366 19.1211 10.0917 18.6832C10.5897 18.2453 11.3438 18.2993 11.776 18.8039C12.1256 19.2122 12.767 19.5949 13.6108 19.7882V16.119C12.609 15.9645 11.6861 15.6169 10.9343 15.1093C9.89969 14.4105 9.07387 13.3123 9.07387 11.9355C9.07387 10.5587 9.89969 9.46055 10.9343 8.76175C11.6861 8.254 12.609 7.90642 13.6108 7.75195V7.33871C13.6108 6.67063 14.1453 6.12903 14.8047 6.12903ZM13.6108 10.2122C13.0753 10.3348 12.6146 10.5345 12.2588 10.7748C11.6514 11.1851 11.4617 11.6191 11.4617 11.9355C11.4617 12.2519 11.6514 12.6859 12.2588 13.0962C12.6146 13.3365 13.0753 13.5362 13.6108 13.6587V10.2122ZM15.9987 16.3413V19.7878C16.5342 19.6652 16.9949 19.4655 17.3507 19.2252C17.958 18.8149 18.1477 18.3809 18.1477 18.0645C18.1477 17.7481 17.958 17.3141 17.3507 16.9038C16.9949 16.6635 16.5342 16.4638 15.9987 16.3413ZM20.6101 23.7765C20.9495 23.3823 21.4379 23.1852 22.0753 23.1852C22.3981 23.1852 22.6796 23.2355 22.9196 23.3361C23.168 23.4368 23.3998 23.5584 23.615 23.701C23.7557 23.6087 23.8798 23.4829 23.9875 23.3235C24.0951 23.1642 24.1489 22.9755 24.1489 22.7574C24.1489 22.3633 23.9378 22.0403 23.5156 21.7887C23.1018 21.5371 22.514 21.4113 21.7525 21.4113C21.2144 21.4113 20.7094 21.4994 20.2376 21.6755C19.7658 21.8516 19.3519 22.1116 18.9959 22.4555C18.6482 22.7993 18.371 23.2229 18.164 23.7261C17.9653 24.2209 17.866 24.7955 17.866 25.4497C17.866 26.1542 17.9694 26.7622 18.1764 27.2739C18.3916 27.7771 18.6814 28.1964 19.0456 28.5319C19.4098 28.859 19.8361 29.1022 20.3245 29.2616C20.8129 29.421 21.3344 29.5006 21.889 29.5006C22.6589 29.5006 23.2301 29.3833 23.6026 29.1484C23.9834 28.9052 24.1737 28.6116 24.1737 28.2677C24.1737 28.0497 24.1324 27.861 24.0496 27.7016C23.9751 27.5339 23.8674 27.3913 23.7267 27.2739C23.5115 27.3913 23.2838 27.4962 23.0438 27.5884C22.812 27.6806 22.5264 27.7268 22.187 27.7268C21.5497 27.7268 21.0406 27.5296 20.6598 27.1355C20.2873 26.7413 20.101 26.1794 20.101 25.4497C20.101 24.7284 20.2707 24.1706 20.6101 23.7765ZM31.7641 27.7016C31.9213 27.3242 32 26.909 32 26.4561V22.5813C32 22.3633 31.9752 22.1871 31.9255 22.0529C31.8758 21.9187 31.8013 21.8139 31.702 21.7384C31.6027 21.6629 31.4785 21.6126 31.3295 21.5874C31.1887 21.5538 31.0232 21.5371 30.8328 21.5371C30.6507 21.5371 30.4603 21.5538 30.2616 21.5874C30.063 21.6126 29.9181 21.6336 29.827 21.6503V26.4184C29.827 26.821 29.7194 27.1355 29.5042 27.3619C29.2889 27.5884 29.0033 27.7016 28.6474 27.7016C28.2998 27.7016 28.0142 27.5884 27.7907 27.3619C27.5754 27.1355 27.4678 26.821 27.4678 26.4184V22.5813C27.4678 22.3633 27.443 22.1871 27.3933 22.0529C27.3437 21.9187 27.2692 21.8139 27.1698 21.7384C27.0705 21.6629 26.9463 21.6126 26.7973 21.5874C26.6565 21.5538 26.491 21.5371 26.3007 21.5371C26.1185 21.5371 25.9281 21.5538 25.7295 21.5874C25.5308 21.6126 25.3859 21.6336 25.2949 21.6503V26.4561C25.2949 26.909 25.3694 27.3242 25.5184 27.7016C25.6756 28.0706 25.8991 28.3894 26.1889 28.6577C26.4786 28.9178 26.8304 29.1191 27.2443 29.2616C27.6582 29.4042 28.1259 29.4755 28.6474 29.4755C29.169 29.4755 29.6366 29.4042 30.0506 29.2616C30.4644 29.1191 30.8162 28.9178 31.106 28.6577C31.3957 28.3894 31.6151 28.0706 31.7641 27.7016Z" fill="#538AA1"/>
</svg>
