<svg width="245" height="46" viewBox="0 0 245 46" fill="none" xmlns="http://www.w3.org/2000/svg">
<rect x="1.00512" y="2.25017" width="242.777" height="42.1736" rx="21.0868" transform="rotate(-0.293843 1.00512 2.25017)" stroke="url(#paint0_linear_485_317)" stroke-width="2"/>
<path d="M37.0696 13.9236H44.1296V15.2836H37.0696V13.9236ZM38.9096 18.1236H42.5296V19.3836H38.9096V18.1236ZM44.8496 26.6036H47.8496V27.6836H44.8496V26.6036ZM50.9696 26.6036H54.1296V27.6836H50.9696V26.6036ZM38.9096 22.2436H42.5296V23.5236H38.9096V22.2436ZM38.1296 14.6036H39.4096V27.4036H38.1296V14.6036ZM41.7096 14.6036H43.0096V31.4636H41.7096V14.6036ZM50.2496 22.6036H51.5096V31.4636H50.2496V22.6036ZM44.3896 23.3636H45.5496V28.6036H44.3896V23.3636ZM53.4296 23.3636H54.6296V28.5436H53.4296V23.3636ZM36.8496 27.1636C38.2696 26.9436 40.3096 26.5436 42.3696 26.1236L42.4696 27.4436C40.5896 27.8436 38.6696 28.2636 37.1096 28.5836L36.8496 27.1636ZM47.3696 22.6436H48.6096V25.8436C48.6096 28.0636 48.2296 30.1236 45.4096 31.5236C45.2496 31.2236 44.8696 30.7436 44.6096 30.5236C47.0696 29.2836 47.3696 27.5836 47.3696 25.8236V22.6436ZM43.7096 21.0636C45.0096 20.9836 46.7896 20.8436 48.6896 20.7036V21.7436C46.9496 21.9036 45.2496 22.0636 43.8696 22.1636L43.7096 21.0636ZM43.9896 16.5036L44.7096 15.6436C45.6296 16.3836 46.6696 17.4236 47.0896 18.2036L46.3696 19.1636C45.9296 18.3836 44.9296 17.2636 43.9896 16.5036ZM47.3696 19.5236L48.3096 19.2236C48.9096 20.1036 49.4296 21.3036 49.5896 22.1036L48.5696 22.4836C48.4496 21.6836 47.9296 20.4636 47.3696 19.5236ZM46.5096 13.0836L47.7696 13.5036C47.1296 14.6836 46.3496 16.1036 45.7296 16.9836L44.8696 16.6236C45.4296 15.6836 46.1296 14.1236 46.5096 13.0836ZM47.9096 15.5036L49.0696 15.9236C48.0496 17.8036 46.6296 20.1836 45.5096 21.6236L44.6496 21.2636C45.7696 19.7636 47.1296 17.2636 47.9096 15.5036ZM49.5896 21.0036C50.8896 20.9236 52.6696 20.7836 54.5496 20.6436L54.5696 21.6836C52.8496 21.8436 51.1696 22.0036 49.7896 22.1236L49.5896 21.0036ZM49.5096 16.4636L50.2096 15.5636C51.2096 16.3236 52.2896 17.4036 52.7496 18.2036L52.0096 19.2036C51.5496 18.3836 50.4896 17.2436 49.5096 16.4636ZM53.0696 19.5036L54.0296 19.1636C54.6896 20.1236 55.2896 21.4036 55.4696 22.2436L54.4296 22.6436C54.2696 21.8036 53.6896 20.5036 53.0696 19.5036ZM52.1096 13.0836L53.3896 13.5036C52.7496 14.7036 51.9696 16.1236 51.3496 17.0036L50.4296 16.6236C51.0096 15.6836 51.7296 14.1436 52.1096 13.0836ZM53.5696 15.4636L54.7896 15.9036C53.7496 17.7836 52.3296 20.1636 51.1696 21.6036L50.3096 21.2036C51.4296 19.7236 52.7896 17.2036 53.5696 15.4636ZM65.5896 24.1036H74.0896V31.4636H72.6296V25.4236H67.0096V31.5036H65.5896V24.1036ZM66.4496 29.1836H73.1296V30.5236H66.4496V29.1836ZM67.9896 13.0836L69.4696 13.3236C68.4496 15.5436 66.8696 18.0436 64.5096 20.0036C64.2696 19.7036 63.7896 19.2236 63.4896 19.0436C65.6896 17.3036 67.2096 14.9636 67.9896 13.0836ZM67.6296 15.0236H73.1296V16.3436H66.9696L67.6296 15.0236ZM72.6696 15.0236H72.9896L73.2496 14.9636L74.1496 15.4836C72.4496 20.0036 68.7296 23.0836 64.8696 24.6836C64.6896 24.3236 64.2296 23.7436 63.9296 23.4836C67.7096 22.0636 71.2696 19.2036 72.6696 15.3036V15.0236ZM67.3896 16.4236C69.0496 19.3236 72.3896 21.9636 75.7896 23.1236C75.4496 23.4236 75.0296 23.9836 74.8096 24.3436C71.3496 22.9836 68.0296 20.1636 66.1496 16.9236L67.3896 16.4236ZM60.0496 13.0836L61.3696 13.6036C60.6096 15.0636 59.6696 16.8436 58.8896 17.9436L57.8496 17.4636C58.6096 16.3236 59.5296 14.4036 60.0496 13.0836ZM62.2896 15.3636L63.5496 15.9236C62.1896 18.2236 60.2696 21.1236 58.7896 22.8836L57.8696 22.3636C59.3496 20.5636 61.2296 17.5236 62.2896 15.3636ZM56.8896 17.2836L57.6496 16.3036C58.7696 17.2436 60.0296 18.5436 60.5696 19.4436L59.7696 20.5836C59.2296 19.6436 57.9696 18.2436 56.8896 17.2836ZM61.5896 20.0036L62.6296 19.5836C63.4496 20.8636 64.2296 22.5636 64.5096 23.6436L63.3696 24.1436C63.1296 23.0436 62.3696 21.3236 61.5896 20.0036ZM56.8296 22.0436C58.5696 21.9836 61.0696 21.8836 63.6096 21.7436L63.5896 22.9836C61.1896 23.1436 58.7696 23.2836 56.9496 23.4036L56.8296 22.0436ZM62.1096 24.7236L63.1896 24.3836C63.7496 25.5036 64.2896 27.0236 64.4896 28.0236L63.3296 28.4236C63.1496 27.4236 62.6096 25.8836 62.1096 24.7236ZM57.9496 24.5036L59.2496 24.7436C58.9696 26.6236 58.4696 28.5636 57.8296 29.8436C57.5696 29.6836 56.9696 29.4036 56.6496 29.2636C57.3096 28.0436 57.7096 26.2636 57.9496 24.5036ZM60.1096 22.6036H61.4496V31.5236H60.1096V22.6036ZM90.2096 14.3836L91.3496 13.6036C92.5296 14.6036 93.9296 16.0236 94.5896 16.9436L93.3496 17.8236C92.7496 16.8636 91.3896 15.4236 90.2096 14.3836ZM77.2496 18.9836H95.0696V20.4236H77.2496V18.9836ZM76.9496 24.8636C79.3296 24.4236 83.0896 23.6236 86.6096 22.8636L86.7296 24.2236C83.4496 24.9836 79.9096 25.8036 77.3896 26.3636L76.9496 24.8636ZM81.5496 15.1036H83.0496V29.5436C83.0496 30.5236 82.8096 30.9636 82.1696 31.2036C81.5296 31.4436 80.4696 31.5036 78.8096 31.4836C78.7296 31.0836 78.4696 30.4036 78.2496 29.9636C79.5296 30.0236 80.7096 30.0036 81.0696 29.9836C81.4296 29.9836 81.5496 29.8836 81.5496 29.5236V15.1036ZM85.3496 13.3036L86.4096 14.5636C84.0896 15.3636 80.6896 15.9836 77.8296 16.3836C77.7496 16.0436 77.5696 15.4836 77.3696 15.1436C80.1896 14.7036 83.4296 14.0236 85.3496 13.3036ZM87.3496 13.2436H88.9096C88.8696 22.4236 90.8296 30.0236 93.2696 30.0236C93.8096 30.0236 94.0496 28.9836 94.1696 26.4036C94.4896 26.7436 95.0296 27.0836 95.4496 27.2436C95.1696 30.5636 94.6296 31.5436 93.1296 31.5436C89.2096 31.5436 87.4296 22.7636 87.3496 13.2436ZM92.7696 21.3436L94.1096 21.9036C92.1496 25.5636 88.8496 28.7836 85.1696 30.7236C84.9296 30.3436 84.5096 29.8636 84.1296 29.5236C87.6896 27.8036 90.9896 24.7236 92.7696 21.3436ZM103.33 17.2436H107.37V18.3836H103.33V17.2436ZM109.67 17.2436H113.75V18.3836H109.67V17.2436ZM113.27 14.2236H114.71V29.5036C114.71 30.4836 114.47 30.9436 113.79 31.1836C113.13 31.4436 111.95 31.4636 110.05 31.4636C109.97 31.0636 109.73 30.4036 109.53 30.0036C110.95 30.0436 112.35 30.0436 112.75 30.0236C113.13 30.0036 113.27 29.8836 113.27 29.5036V14.2236ZM102.49 14.2236H103.89V31.4236H102.49V14.2236ZM103.41 14.2236H107.87V21.5236H103.41V20.3236H106.69V15.4236H103.41V14.2236ZM113.99 14.2236V15.4236H110.31V20.3236H113.99V21.5236H109.07V14.2236H113.99ZM100.79 13.1836L102.19 13.5636C101.05 17.0236 99.2696 20.5436 97.2896 22.8836C97.1496 22.5236 96.7496 21.7236 96.4896 21.3436C98.2496 19.3436 99.8296 16.2636 100.79 13.1836ZM99.1896 18.0836L100.57 16.7036L100.61 16.7436V31.4636H99.1896V18.0836Z" fill="url(#paint1_linear_485_317)"/>
<path fill-rule="evenodd" clip-rule="evenodd" d="M191.262 26.8477L207.154 26.8477L191.262 13.2266V22.0402L162.285 22.0402V26.8477L191.262 26.8477ZM159.881 22.0402V26.8477H152.67V22.0402H159.881ZM150.266 26.8477V22.0402H143.055L143.055 26.8477H150.266Z" fill="url(#paint2_linear_485_317)"/>
<defs>
<linearGradient id="paint0_linear_485_317" x1="-0.314078" y1="1.22975" x2="233.112" y2="79.6064" gradientUnits="userSpaceOnUse">
<stop stop-color="#399983"/>
<stop offset="1" stop-color="#538AA2"/>
</linearGradient>
<linearGradient id="paint1_linear_485_317" x1="24.3371" y1="8.84782" x2="128.51" y2="32.7973" gradientUnits="userSpaceOnUse">
<stop stop-color="#399983"/>
<stop offset="1" stop-color="#538AA2"/>
</linearGradient>
<linearGradient id="paint2_linear_485_317" x1="142.972" y1="13.2187" x2="205.876" y2="31.1554" gradientUnits="userSpaceOnUse">
<stop stop-color="#399983"/>
<stop offset="1" stop-color="#538AA2"/>
</linearGradient>
</defs>
</svg>
