<svg width="764" height="355" viewBox="0 0 764 355" fill="none" xmlns="http://www.w3.org/2000/svg">
<g filter="url(#filter0_d_485_487)">
<rect x="4" width="756" height="347" rx="20" fill="#F4F8F8"/>
<rect x="4" width="756" height="347" rx="20" fill="#3F3F46" fill-opacity="0.5"/>
</g>
<path d="M51.584 190.696V195.736H49.792V192.424H48.16V190.696H51.584ZM51.584 194.888C52.256 195.944 53.52 196.392 55.216 196.456C57.168 196.552 61.056 196.504 63.264 196.328C63.072 196.728 62.784 197.576 62.704 198.104C60.688 198.2 57.2 198.232 55.216 198.152C53.216 198.072 51.856 197.608 50.816 196.392C50.224 197 49.6 197.608 48.864 198.312L47.968 196.488C48.608 196.04 49.344 195.464 49.984 194.888H51.584ZM48.784 184.632L50.048 183.544C50.864 184.056 51.904 184.84 52.4 185.448L51.04 186.664C50.608 186.056 49.616 185.192 48.784 184.632ZM48.176 187.976L49.408 186.824C50.272 187.32 51.376 188.072 51.904 188.648L50.592 189.912C50.112 189.32 49.04 188.504 48.176 187.976ZM53.984 187.448V188.088H55.984V187.448H53.984ZM53.984 185.72V186.344H55.984V185.72H53.984ZM52.48 184.552H57.552V189.256H52.48V184.552ZM54.416 183.416L56.352 183.56C56.064 184.312 55.696 185.048 55.424 185.56L54.032 185.304C54.192 184.728 54.352 183.96 54.416 183.416ZM51.952 190.04H58.224V191.32H51.952V190.04ZM58.928 185.736H62.928V187.352H58.928V185.736ZM54.16 191.896H56.624V193.192H54.16V191.896ZM54.224 189.096H55.84V190.536H54.224V189.096ZM56.096 191.896H57.632C57.632 191.896 57.616 192.248 57.6 192.424C57.52 194.312 57.408 195.144 57.12 195.48C56.896 195.752 56.608 195.864 56.272 195.912C56 195.944 55.504 195.96 55.008 195.928C54.992 195.544 54.848 195.016 54.672 194.68C55.04 194.728 55.312 194.728 55.472 194.728C55.632 194.744 55.728 194.728 55.824 194.6C55.952 194.424 56.016 193.8 56.096 192.104V191.896ZM53.52 190.664H55.088C54.96 192.984 54.592 194.856 52.864 195.976C52.688 195.624 52.256 195.096 51.904 194.84C53.232 193.96 53.44 192.472 53.52 190.664ZM58.768 183.496L60.448 183.736C60.064 186.328 59.344 188.776 58.256 190.36C57.968 190.088 57.248 189.56 56.864 189.336C57.872 187.976 58.48 185.768 58.768 183.496ZM60.832 186.84L62.432 186.968C61.952 191.16 60.864 194.216 58.352 196.12C58.144 195.8 57.568 195.16 57.248 194.888C59.568 193.304 60.496 190.536 60.832 186.84ZM59.568 187.096C60.128 190.296 61.28 193.352 63.152 194.808C62.784 195.112 62.272 195.688 62 196.12C60 194.344 58.88 191.032 58.256 187.352L59.568 187.096ZM68.032 188.328H72.864V189.768H68.032V188.328ZM68.08 183.912H72.816V185.368H68.08V183.912ZM68.032 190.504H72.864V191.96H68.032V190.504ZM67.264 186.072H73.392V187.592H67.264V186.072ZM68.864 192.728H72.88V197.592H68.864V196.072H71.248V194.248H68.864V192.728ZM68 192.728H69.616V198.232H68V192.728ZM73.776 184.28H81.936V185.656H73.776V184.28ZM74.176 186.232H81.68V187.528H74.176V186.232ZM73.392 188.152H82.24V189.528H73.392V188.152ZM76.88 183.416H78.704V189.32H76.88V183.416ZM74.48 190.136H80.624V191.496H76.256V198.424H74.48V190.136ZM79.568 190.136H81.36V196.648C81.36 197.464 81.2 197.88 80.672 198.136C80.128 198.376 79.376 198.392 78.336 198.392C78.288 197.928 78.048 197.272 77.84 196.856C78.432 196.888 79.104 196.872 79.312 196.872C79.52 196.872 79.568 196.808 79.568 196.632V190.136ZM75.264 192.216H80.496V193.464H75.264V192.216ZM75.264 194.216H80.496V195.464H75.264V194.216ZM93.232 183.432L94.992 183.864C94.4 185.56 93.392 187.192 92.304 188.248C92 187.912 91.312 187.304 90.912 187.032C91.92 186.168 92.768 184.824 93.232 183.432ZM93.104 187.528L94.864 187.992C94.368 189.24 93.536 190.536 92.768 191.352C92.416 191.064 91.664 190.6 91.248 190.376C92.016 189.656 92.704 188.568 93.104 187.528ZM93.584 184.776H99.952V186.392H92.944L93.584 184.776ZM95.408 186.008H97.248V190.984C97.248 191.816 97.12 192.28 96.528 192.552C95.984 192.824 95.264 192.84 94.272 192.84C94.192 192.344 93.936 191.624 93.68 191.16C94.288 191.192 94.96 191.192 95.152 191.192C95.344 191.176 95.408 191.128 95.408 190.952V186.008ZM97.6 188.072L99.168 187.4C99.92 188.456 100.656 189.832 100.992 190.792L99.344 191.576C99.04 190.632 98.288 189.144 97.6 188.072ZM99.472 184.776H99.744L100.032 184.728L101.392 185.016C101.04 186.104 100.576 187.32 100.192 188.088L98.56 187.768C98.864 187.064 99.248 185.928 99.472 185V184.776ZM90.592 193.448H92.496V195.912C92.496 196.392 92.624 196.44 93.376 196.44C93.712 196.44 95.12 196.44 95.552 196.44C96.16 196.44 96.272 196.248 96.352 194.856C96.736 195.144 97.536 195.432 98.048 195.544C97.84 197.624 97.296 198.152 95.712 198.152C95.28 198.152 93.568 198.152 93.136 198.152C91.088 198.152 90.592 197.608 90.592 195.928V193.448ZM91.952 193L93.232 191.912C94.208 192.44 95.408 193.272 95.968 193.928L94.592 195.144C94.08 194.488 92.928 193.576 91.952 193ZM97.12 194.056L98.704 193.192C99.84 194.248 101.04 195.72 101.52 196.84L99.808 197.8C99.392 196.712 98.256 195.16 97.12 194.056ZM88.608 193.496L90.336 194.072C89.904 195.56 89.28 197.032 88.064 197.96L86.464 196.856C87.552 196.088 88.256 194.84 88.608 193.496ZM90.064 183.416L91.76 183.992C90.72 186.008 89.056 188.056 87.456 189.336C87.248 188.952 86.656 188.136 86.304 187.784C87.76 186.744 89.216 185.08 90.064 183.416ZM88.688 186.76L90.48 184.952L90.528 184.968V192.808H88.688V186.76ZM105.808 189.72H120.624V191.816H105.808V189.72ZM128.384 187.128H136.384V188.744H128.384V187.128ZM129.136 189.96H130.896V196.408H129.136V189.96ZM130.096 189.96H135.68V195.352H130.096V193.752H133.904V191.528H130.096V189.96ZM125.6 184.168H138.4V185.992H127.456V198.456H125.6V184.168ZM137.328 184.168H139.216V196.248C139.216 197.24 139.024 197.784 138.4 198.088C137.792 198.408 136.912 198.456 135.552 198.456C135.488 197.928 135.2 197.048 134.912 196.568C135.76 196.6 136.688 196.6 136.96 196.6C137.232 196.584 137.328 196.488 137.328 196.216V184.168ZM151.536 185.24C150.208 187.128 147.76 189.288 145.136 190.744C144.88 190.296 144.336 189.592 143.92 189.192C146.672 187.8 149.264 185.336 150.448 183.352H152.448C154.16 185.816 156.768 187.912 159.312 189C158.832 189.496 158.4 190.136 158.048 190.728C155.584 189.368 152.896 187.144 151.536 185.24ZM146.096 192.744H157.04V194.408H146.096V192.744ZM146.912 189.208H156.304V190.888H146.912V189.208ZM144.816 196.344H158.48V198.056H144.816V196.344ZM150.528 189.96H152.56V197.304H150.528V189.96ZM170.672 189.096H172.64C172.864 193.016 174.64 196.568 176.032 196.552C176.432 196.536 176.592 195.864 176.688 194.232C177.12 194.632 177.824 195.016 178.352 195.176C178.08 197.88 177.392 198.456 175.936 198.456C173.104 198.456 170.976 194.056 170.672 189.096ZM166.208 191.016H177.984V192.808H166.208V191.016ZM163.504 196.168C165.52 195.976 168.608 195.608 171.424 195.256L171.488 197.144C168.832 197.528 165.984 197.896 163.92 198.168L163.504 196.168ZM165.2 184.152H167.184V196.904H165.2V184.152ZM166.16 184.152H176.848V189.432H166.16V187.656H174.896V185.928H166.16V184.152ZM187.312 183.352L189.344 183.624C188.752 184.632 188.064 185.608 187.52 186.264L185.904 185.944C186.416 185.208 187.008 184.136 187.312 183.352ZM191.072 184.328L192.496 183.656C193.664 184.456 195.184 185.672 195.952 186.52L194.416 187.272C193.728 186.456 192.272 185.176 191.072 184.328ZM186.368 188.104L187.712 187.72C188.112 188.408 188.544 189.304 188.688 189.912L187.28 190.328C187.152 189.736 186.768 188.792 186.368 188.104ZM183.84 185.32C186.4 185.256 190.368 185.112 194.064 184.968L194 186.392C190.384 186.584 186.528 186.76 183.936 186.856L183.84 185.32ZM184.752 186.984L186.48 187.384C185.92 188.328 185.328 189.352 184.848 190.008L183.616 189.624C184.032 188.888 184.512 187.768 184.752 186.984ZM182.704 189.224C183.92 189.16 185.632 189.016 187.36 188.856L187.392 190.12C185.776 190.296 184.16 190.472 182.864 190.6L182.704 189.224ZM194.512 188.184L195.856 187.64C196.496 188.392 197.152 189.432 197.424 190.152L196 190.76C195.76 190.056 195.136 188.984 194.512 188.184ZM192.592 186.904L194.352 187.304C193.872 188.216 193.376 189.24 192.96 189.88L191.696 189.496C192.032 188.76 192.416 187.688 192.592 186.904ZM191.456 189.096C192.704 189.048 194.48 188.952 196.288 188.84L196.304 189.976C194.656 190.152 193.008 190.328 191.664 190.456L191.456 189.096ZM190.288 190.808L191.648 191.496C190.304 192.472 188.256 193.272 186.592 193.752C186.352 193.416 185.936 192.92 185.568 192.6C187.136 192.248 189.2 191.544 190.288 190.808ZM191.984 192.264L193.424 192.984C191.68 194.44 188.88 195.432 186.24 195.992C186.032 195.592 185.648 195.016 185.28 194.632C187.744 194.232 190.544 193.4 191.984 192.264ZM193.728 193.864L195.296 194.6C193.168 196.84 189.472 197.912 185.344 198.456C185.184 197.992 184.832 197.336 184.48 196.904C188.336 196.552 191.952 195.672 193.728 193.864ZM189.92 189.24C188.592 190.968 185.92 192.648 183.216 193.576C183.056 193.176 182.672 192.568 182.368 192.2C185.2 191.352 187.744 189.576 189.008 187.8H190.688C192.432 189.96 195.088 191.4 197.68 192.008C197.312 192.424 196.976 193.016 196.736 193.464C194.24 192.68 191.392 191.08 189.92 189.24ZM211.664 184.344H214.624V186.008H211.664V184.344ZM208.048 185.032H211.344V186.6H208.048V185.032ZM211.856 187.288H214.56V188.856H211.856V187.288ZM211.84 190.232H214.528V191.8H211.84V190.232ZM203.984 187.288H206.672V188.856H203.984V187.288ZM204 190.216H206.672V191.784H204V190.216ZM203.056 184.472L205.2 185.048C205.168 185.176 205.056 185.24 204.8 185.288L205.056 193.896H203.344L203.056 184.472ZM213.52 184.344H215.28C215.28 187.48 215.2 191.448 215.024 193.832H213.232C213.424 191.4 213.552 187.416 213.52 184.344ZM206.032 183.576L207.472 184.952C206.384 185.496 205.12 186.024 204.08 186.408C203.984 186.056 203.712 185.448 203.504 185.08C204.4 184.648 205.408 184.04 206.032 183.576ZM207.232 189.72H208.752V193.704H207.232V189.72ZM207.264 183.608H208.896V187.704H210.592V189.192H207.264V183.608ZM209.648 187.704H211.28V193.752H209.648V187.704ZM201.824 193.112H216.624V194.888H201.824V193.112ZM210.272 195.944L211.712 194.664C213.44 195.448 215.44 196.472 216.592 197.16L214.672 198.472C213.68 197.768 211.888 196.712 210.272 195.944ZM206.352 194.696L208.048 195.912C206.752 196.808 204.832 197.832 203.36 198.456C203.008 198.072 202.352 197.48 201.872 197.128C203.408 196.552 205.328 195.496 206.352 194.696ZM220.928 191.544C222.48 191.224 224.784 190.648 226.944 190.104L227.184 191.944C225.216 192.472 223.088 193.032 221.44 193.464L220.928 191.544ZM221.088 186.456H226.928V188.28H221.088V186.456ZM223.168 183.416H225.104V196.232C225.104 197.176 224.928 197.656 224.384 197.96C223.824 198.264 223.056 198.312 221.888 198.312C221.84 197.8 221.584 197 221.344 196.504C221.968 196.52 222.656 196.52 222.864 196.52C223.088 196.52 223.168 196.44 223.168 196.216V183.416ZM227.184 184.632H235.888V186.552H227.184V184.632ZM231.248 185.32H233.328V195.944C233.328 197.048 233.088 197.64 232.352 197.96C231.616 198.312 230.544 198.344 229.04 198.344C228.944 197.752 228.576 196.792 228.272 196.248C229.28 196.312 230.464 196.312 230.816 196.296C231.136 196.296 231.248 196.2 231.248 195.912V185.32ZM246.64 185.224H254.24V186.856H246.64V185.224ZM244.544 188.2H254.896V189.8H244.544V188.2ZM246.416 183.576L248.192 183.976C247.648 185.624 246.704 187.208 245.744 188.232C245.376 187.944 244.576 187.512 244.128 187.304C245.136 186.408 245.952 184.984 246.416 183.576ZM248.832 183.416H250.736V189.272H248.832V183.416ZM244.032 189.656V195.544H242.16V191.432H240.288V189.656H244.032ZM244.032 194.712C244.672 195.768 245.888 196.232 247.552 196.296C249.424 196.376 253.056 196.328 255.216 196.152C255.008 196.6 254.688 197.528 254.608 198.104C252.672 198.2 249.44 198.232 247.52 198.152C245.552 198.072 244.224 197.608 243.184 196.36C242.48 196.984 241.76 197.592 240.896 198.296L239.952 196.296C240.672 195.848 241.536 195.288 242.272 194.712H244.032ZM240.32 184.936L241.744 183.784C242.704 184.456 243.872 185.464 244.432 186.216L242.896 187.48C242.416 186.728 241.264 185.656 240.32 184.936ZM247.712 192.2V193.832H251.936V192.2H247.712ZM245.84 190.68H253.936V195.368H245.84V190.68ZM266.736 185.24C265.408 187.128 262.96 189.288 260.336 190.744C260.08 190.296 259.536 189.592 259.12 189.192C261.872 187.8 264.464 185.336 265.648 183.352H267.648C269.36 185.816 271.968 187.912 274.512 189C274.032 189.496 273.6 190.136 273.248 190.728C270.784 189.368 268.096 187.144 266.736 185.24ZM261.296 192.744H272.24V194.408H261.296V192.744ZM262.112 189.208H271.504V190.888H262.112V189.208ZM260.016 196.344H273.68V198.056H260.016V196.344ZM265.728 189.96H267.76V197.304H265.728V189.96ZM283.76 190.472H287.872V191.976H283.76V190.472ZM283.76 193.16H287.888V194.664H283.76V193.16ZM280.656 195.864H291.456V197.624H280.656V195.864ZM279.456 187.592H292.528V198.44H290.576V189.352H281.296V198.44H279.456V187.592ZM282.944 188.76H284.656V196.648H282.944V188.76ZM287.12 188.76H288.848V196.632H287.12V188.76ZM284.752 185.16L287.024 185.64C286.64 186.824 286.288 188.072 285.968 188.904L284.208 188.44C284.432 187.512 284.688 186.168 284.752 185.16ZM278.784 184.328H293.248V186.152H278.784V184.328ZM299.568 183.416H301.504V198.44H299.568V183.416ZM298.224 186.488L299.6 186.68C299.52 188.072 299.248 189.976 298.864 191.192L297.44 190.696C297.84 189.608 298.112 187.816 298.224 186.488ZM301.12 186.616L302.416 186.056C302.864 186.888 303.328 187.976 303.488 188.648L302.112 189.304C301.968 188.6 301.536 187.48 301.12 186.616ZM304.16 184.152L306.016 184.44C305.696 186.824 305.072 189.192 304.24 190.696C303.856 190.424 302.992 190.008 302.528 189.816C303.376 188.472 303.904 186.296 304.16 184.152ZM304.72 186.648H312.112V188.472H304.176L304.72 186.648ZM306.912 183.512H308.832V197.16H306.912V183.512ZM303.808 191.096H311.776V192.888H303.808V191.096ZM302.608 196.104H312.608V197.928H302.608V196.104ZM326.72 183.528H328.464V196.12H326.72V183.528ZM323.68 186.824H331.968V188.216H323.68V186.824ZM324.128 193.272H331.664V194.664H324.128V193.272ZM324.528 191.096H331.264V192.488H324.528V191.096ZM320.72 184.696H322.944V186.232H320.72V184.696ZM321.536 189.096H323.296V190.488H321.536V189.096ZM322.512 184.696H322.736L323.008 184.632L324.208 184.936C323.552 186.76 322.528 189.208 321.68 191.144L320.112 190.776C320.976 188.856 322.016 186.248 322.512 184.888V184.696ZM322.832 189.096H323.136L323.44 189.064L324.448 189.224C324.128 193.736 323.104 196.728 320.944 198.408C320.72 197.992 320.24 197.32 319.888 196.984C321.632 195.752 322.592 192.904 322.832 189.368V189.096ZM321.632 191.48C322.496 195.688 324.544 196.52 327.568 196.536C328.304 196.536 331.184 196.536 332.096 196.488C331.84 196.904 331.584 197.72 331.488 198.216H327.472C323.648 198.216 321.344 197.112 320.192 191.896L321.632 191.48ZM324.72 184.712H331.168V190.344H324.72V188.952H329.552V186.104H324.72V184.712ZM319.44 183.464L321.152 183.976C320.32 186.632 318.944 189.512 317.424 191.352C317.296 190.904 316.848 189.784 316.576 189.288C317.76 187.848 318.816 185.672 319.44 183.464ZM318.352 188.088L320 186.44L320.032 186.472V198.424H318.352V188.088ZM339.456 189.256H351.088V190.6H339.456V189.256ZM340.4 187.24H349.648V192.648H340.224V191.368H347.84V188.536H340.4V187.24ZM343.76 186.312H345.6V196.552C345.6 197.512 345.392 197.928 344.768 198.184C344.144 198.44 343.232 198.472 341.904 198.472C341.824 198.008 341.584 197.304 341.328 196.856C342.16 196.888 343.12 196.888 343.392 196.872C343.664 196.872 343.76 196.792 343.76 196.536V186.312ZM339.456 193.624L340.496 192.6C341.28 192.968 342.304 193.592 342.832 194.04L341.712 195.176C341.248 194.712 340.24 194.056 339.456 193.624ZM349.04 192.712L350.448 193.848C349.44 194.504 348.272 195.176 347.36 195.576L346.288 194.616C347.152 194.152 348.352 193.32 349.04 192.712ZM345.904 192.248C346.704 194.376 348.368 196.024 350.832 196.728C350.432 197.08 349.92 197.784 349.664 198.264C347.056 197.32 345.408 195.32 344.464 192.584L345.904 192.248ZM338.784 196.328C339.84 195.992 341.424 195.4 342.976 194.808L343.312 196.184C342.08 196.776 340.752 197.368 339.68 197.848L338.784 196.328ZM343.104 183.416H345.104V185.672H343.104V183.416ZM338.256 184.792H350.896V186.456H338.256V184.792ZM337.344 184.792H339.168V189.432C339.168 192.056 338.928 196.008 337.488 198.504C337.152 198.184 336.352 197.64 335.92 197.464C337.248 195.16 337.344 191.816 337.344 189.432V184.792ZM359.52 196.616H367.328V198.024H359.52V196.616ZM361.808 186.776H363.664V188.696H361.808V186.776ZM355.904 187.88H369.824V191.064H367.952V189.32H357.712V191.064H355.904V187.88ZM359.456 189.992H367.296V193.576H359.456V192.2H365.376V191.368H359.456V189.992ZM359.536 194.296H368.512V198.456H366.592V195.704H359.536V194.296ZM358.4 189.992H360.224V198.472H358.4V189.992ZM357.52 184.536H362.56V186.04H357.52V184.536ZM364 184.536H370.208V186.04H364V184.536ZM357.584 183.288L359.376 183.768C358.752 185.208 357.728 186.664 356.784 187.576C356.416 187.288 355.648 186.776 355.216 186.552C356.176 185.752 357.088 184.504 357.584 183.288ZM364.096 183.288L365.92 183.736C365.344 185.112 364.352 186.44 363.392 187.272C363.008 186.984 362.192 186.568 361.712 186.36C362.736 185.624 363.632 184.456 364.096 183.288ZM358.112 185.704L359.744 185.272C360.144 185.816 360.592 186.584 360.784 187.096L359.056 187.592C358.912 187.096 358.496 186.28 358.112 185.704ZM365.264 185.752L366.944 185.304C367.408 185.832 367.968 186.6 368.224 187.112L366.448 187.608C366.24 187.128 365.712 186.312 365.264 185.752ZM382.208 188.568V189.944H387.056V188.568H382.208ZM382.208 185.72V187.064H387.056V185.72H382.208ZM380.48 184.088H388.88V191.56H380.48V184.088ZM380.368 192.936H389.056V194.664H380.368V192.936ZM379.248 196.2H389.584V197.928H379.248V196.2ZM374.56 184.328H379.872V186.12H374.56V184.328ZM374.72 188.936H379.6V190.712H374.72V188.936ZM374.384 195.016C375.76 194.664 377.808 194.024 379.728 193.4L380.064 195.24C378.272 195.848 376.352 196.472 374.816 196.968L374.384 195.016ZM376.336 185.032H378.16V194.872L376.336 195.16V185.032ZM383.856 184.776H385.472V190.808H385.648V197.016H383.68V190.808H383.856V184.776ZM396.288 199.208L395.776 197.928C397.12 197.496 397.856 196.712 397.856 195.8L397.744 194.216L398.624 195.656C398.368 195.896 398.032 196.008 397.68 196.008C396.88 196.008 396.144 195.496 396.144 194.568C396.144 193.672 396.864 193.128 397.728 193.128C398.848 193.128 399.456 193.992 399.456 195.336C399.456 197.144 398.272 198.616 396.288 199.208ZM413.008 189.72H427.824V191.816H413.008V189.72ZM432.704 185H439.264V186.68H432.704V185ZM441.008 188.168H445.392V189.832H441.008V188.168ZM432.256 188.152H439.664V189.848H432.256V188.152ZM436.432 191.576H439.52V193.24H436.432V191.576ZM435.088 183.464H436.896V189.064H435.088V183.464ZM435.488 189.24H437.248V196.36H435.488V189.24ZM440.128 184.024H446.208V190.232H444.352V185.72H440.128V184.024ZM440.272 188.168H442.112V193.112C442.112 193.688 442.224 193.768 442.848 193.768C443.136 193.768 444.336 193.768 444.704 193.768C445.28 193.768 445.376 193.48 445.44 191.688C445.824 191.992 446.624 192.296 447.12 192.408C446.912 194.824 446.416 195.48 444.864 195.48C444.464 195.48 442.96 195.48 442.592 195.48C440.816 195.48 440.272 194.968 440.272 193.128V188.168ZM434.304 192.344C435.152 195.704 436.96 196.2 440.336 196.2C441.568 196.216 445.84 196.216 447.296 196.136C446.992 196.568 446.672 197.464 446.544 198.04H440.336C436.112 198.04 434.032 197.24 432.928 192.744L434.304 192.344ZM432.816 190.776L434.576 190.904C434.496 193.96 434.256 196.808 433.44 198.648C433.104 198.424 432.256 198.008 431.824 197.832C432.624 196.216 432.784 193.544 432.816 190.776ZM456.992 188.264V189.048H459.152V188.264H456.992ZM456.992 186.264V187.032H459.152V186.264H456.992ZM455.472 184.936H460.752V190.376H455.472V184.936ZM454.96 191.368H461.152V192.92H454.96V191.368ZM462.08 186.312H466.352V188.056H462.08V186.312ZM456.976 193.656H459.696V195.16H456.976V193.656ZM457.152 190.232H458.928V192.136H457.152V190.232ZM457.28 183.4L459.312 183.608C459.024 184.488 458.704 185.352 458.464 185.944L456.8 185.688C456.992 185.016 457.2 184.072 457.28 183.4ZM458.976 193.656H460.656C460.656 193.656 460.64 194.04 460.624 194.248C460.544 196.44 460.448 197.432 460.128 197.816C459.872 198.136 459.584 198.248 459.2 198.296C458.896 198.36 458.32 198.376 457.728 198.36C457.696 197.88 457.536 197.24 457.312 196.84C457.744 196.888 458.112 196.888 458.304 196.888C458.496 196.888 458.608 196.872 458.688 196.76C458.848 196.536 458.912 195.832 458.976 193.88V193.656ZM464.032 187.4L465.712 187.528C465.264 192.616 464.128 196.248 461.28 198.472C461.024 198.184 460.336 197.56 459.952 197.272C462.72 195.384 463.696 192.008 464.032 187.4ZM462.56 187.544C462.928 190.776 463.808 194.968 466.544 196.92C466.192 197.24 465.6 197.976 465.36 198.424C462.64 196.152 461.76 191.688 461.376 188.52L462.56 187.544ZM451.872 184.952L452.96 183.56C453.824 183.944 454.944 184.568 455.488 185.096L454.352 186.616C453.856 186.104 452.752 185.384 451.872 184.952ZM451.264 189.208L452.336 187.8C453.2 188.152 454.32 188.744 454.864 189.24L453.744 190.792C453.232 190.28 452.144 189.608 451.264 189.208ZM451.504 197.288C452.112 196.04 452.96 194.008 453.584 192.136L455.136 193.128C454.592 194.856 453.904 196.712 453.232 198.28L451.504 197.288ZM461.872 183.4L463.648 183.704C463.216 186.664 462.432 189.608 461.2 191.496C460.96 191.144 460.304 190.392 459.92 190.072C460.96 188.488 461.552 185.96 461.872 183.4ZM456.512 192.392H458.112V193.368C458.112 194.824 457.792 197.064 455.552 198.584C455.264 198.248 454.672 197.752 454.272 197.48C456.256 196.136 456.512 194.408 456.512 193.304V192.392ZM472.848 186.248H479.536V187.384H472.848V186.248ZM471.952 183.864H479.712V185.32H471.952V183.864ZM471.2 183.864H472.704V189.304C472.704 191.832 472.544 195.624 471.6 198.104C471.328 197.848 470.64 197.416 470.272 197.288C471.136 194.984 471.2 191.656 471.2 189.304V183.864ZM474.064 185.496H475.392V188.072H474.064V185.496ZM476.736 185.496H478.08V188.072H476.736V185.496ZM472.624 193.128H478.672V194.392H474V198.44H472.624V193.128ZM477.024 194.824L477.824 194.648C478.08 195.288 478.272 196.168 478.32 196.712L477.456 196.92C477.44 196.36 477.264 195.496 477.024 194.824ZM474.144 195.608C475.088 195.528 476.336 195.416 477.664 195.288L477.696 196.392C476.496 196.552 475.376 196.696 474.336 196.808L474.144 195.608ZM474.336 190.888V191.496H477.968V190.888H474.336ZM474.336 189.32V189.896H477.968V189.32H474.336ZM473.072 188.264H479.28V192.552H473.072V188.264ZM478.176 193.128H479.568V197.048C479.568 197.624 479.472 197.928 479.088 198.136C478.704 198.328 478.192 198.328 477.488 198.328C477.44 197.976 477.28 197.512 477.12 197.176C477.504 197.192 477.872 197.192 478 197.192C478.128 197.192 478.176 197.16 478.176 197.032V193.128ZM475.456 188.76H476.832V193.672H475.456V188.76ZM475.424 193.48H476.656V196.088H475.424V193.48ZM479.632 187.096H484.384V188.824H479.632V187.096ZM483.504 187.096H485.168C485.168 187.096 485.168 187.656 485.168 187.88C485.024 194.584 484.912 196.92 484.448 197.608C484.128 198.104 483.792 198.264 483.312 198.36C482.88 198.44 482.24 198.44 481.552 198.408C481.52 197.928 481.36 197.224 481.088 196.744C481.664 196.808 482.16 196.808 482.448 196.808C482.672 196.808 482.8 196.744 482.944 196.536C483.264 196.056 483.392 193.864 483.504 187.48V187.096ZM480.72 183.544H482.432C482.4 189.8 482.352 195.16 480.272 198.456C479.984 198.04 479.376 197.464 478.928 197.208C480.784 194.28 480.704 189.384 480.72 183.544ZM490.16 184.136H504.256V185.848H490.16V184.136ZM496.32 184.872H498.336V191.336C498.336 194.568 497.008 197.256 490.976 198.456C490.768 198.024 490.224 197.192 489.808 196.76C495.584 195.88 496.32 193.864 496.32 191.304V184.872ZM493.36 190.808V191.864H501.328V190.808H493.36ZM493.36 188.344V189.368H501.328V188.344H493.36ZM491.552 186.792H503.248V193.4H491.552V186.792ZM493.456 193.336C495.696 196.2 499.44 196.424 504.896 196.376C504.56 196.824 504.192 197.64 504.096 198.28C498.448 198.168 494.224 197.64 491.776 194.008L493.456 193.336ZM512.24 187.384L513.536 186.312C514.496 186.776 515.776 187.512 516.4 188.072L515.04 189.256C514.464 188.696 513.216 187.896 512.24 187.384ZM519.456 184.616H519.824L520.128 184.536L521.376 185.256C519.296 189.112 514.768 191.192 510.112 192.136C509.952 191.656 509.568 190.904 509.232 190.488C513.552 189.8 517.872 187.88 519.456 184.888V184.616ZM514.4 184.616H519.888V186.184H514.4V184.616ZM515.28 183.368L517.376 183.816C515.744 185.672 513.632 187.176 510.64 188.36C510.368 187.912 509.776 187.256 509.36 186.952C512.208 186.024 514.192 184.68 515.28 183.368ZM514.416 193.448L515.808 192.376C516.784 192.904 518.064 193.72 518.704 194.344L517.216 195.528C516.656 194.92 515.408 194.024 514.416 193.448ZM521.472 190.456H521.856L522.192 190.376L523.472 191.032C521.52 195.8 516.896 197.688 511.392 198.456C511.248 197.928 510.896 197.144 510.576 196.712C515.648 196.184 519.984 194.504 521.472 190.728V190.456ZM516.768 190.456H521.984V192.056H516.768V190.456ZM517.888 188.904L519.984 189.384C518.192 191.48 515.728 193.176 512.192 194.456C511.968 194.008 511.424 193.304 511.024 192.968C514.368 191.96 516.656 190.424 517.888 188.904ZM534.944 184.856L536.208 183.384C537.504 183.992 539.2 185 540.016 185.784L538.64 187.432C537.904 186.632 536.256 185.544 534.944 184.856ZM533.888 191.352H542.192V193.192H533.888V191.352ZM532.736 196.104H543.12V197.928H532.736V196.104ZM533.312 186.904H542.784V188.728H533.312V186.904ZM536.96 187.512H538.96V196.92H536.96V187.512ZM529.104 184.904L530.144 183.496C531.168 183.864 532.528 184.552 533.2 185.128L532.08 186.696C531.456 186.12 530.144 185.352 529.104 184.904ZM528.032 189.256L529.024 187.8C530.064 188.152 531.456 188.808 532.144 189.336L531.088 190.936C530.448 190.392 529.088 189.672 528.032 189.256ZM528.72 196.952C529.568 195.752 530.8 193.752 531.76 191.912L533.168 193.176C532.32 194.872 531.296 196.696 530.336 198.248L528.72 196.952ZM557.904 192.888H559.648V196.2C559.648 196.632 559.68 196.696 559.92 196.696C560.016 196.696 560.432 196.696 560.544 196.696C560.816 196.696 560.864 196.488 560.912 194.904C561.232 195.192 561.984 195.464 562.448 195.576C562.288 197.752 561.84 198.312 560.752 198.312C560.464 198.312 559.872 198.312 559.616 198.312C558.208 198.312 557.904 197.768 557.904 196.216V192.888ZM556 188.2V189.272H559.504V188.2H556ZM556 190.712V191.784H559.504V190.712H556ZM556 185.72V186.776H559.504V185.72H556ZM554.24 184.2H561.344V193.304H554.24V184.2ZM555.328 192.872H557.152C556.928 195.368 556.304 197.304 553.504 198.44C553.312 197.992 552.8 197.304 552.416 196.952C554.752 196.136 555.136 194.712 555.328 192.872ZM547.584 186.376H552.48V188.104H547.584V186.376ZM549.664 191.832L551.536 189.592V198.456H549.664V191.832ZM549.664 183.432H551.536V187.192H549.664V183.432ZM551.504 189.944C552.016 190.344 553.696 191.928 554.096 192.328L552.928 193.928C552.352 193.08 551.088 191.608 550.416 190.92L551.504 189.944ZM551.824 186.376H552.192L552.528 186.312L553.584 187C552.448 190.12 550.16 192.936 547.888 194.44C547.728 193.928 547.264 192.984 546.992 192.616C549.04 191.432 551.024 189.08 551.824 186.728V186.376ZM576.32 183.528H578.064V196.12H576.32V183.528ZM573.28 186.824H581.568V188.216H573.28V186.824ZM573.728 193.272H581.264V194.664H573.728V193.272ZM574.128 191.096H580.864V192.488H574.128V191.096ZM570.32 184.696H572.544V186.232H570.32V184.696ZM571.136 189.096H572.896V190.488H571.136V189.096ZM572.112 184.696H572.336L572.608 184.632L573.808 184.936C573.152 186.76 572.128 189.208 571.28 191.144L569.712 190.776C570.576 188.856 571.616 186.248 572.112 184.888V184.696ZM572.432 189.096H572.736L573.04 189.064L574.048 189.224C573.728 193.736 572.704 196.728 570.544 198.408C570.32 197.992 569.84 197.32 569.488 196.984C571.232 195.752 572.192 192.904 572.432 189.368V189.096ZM571.232 191.48C572.096 195.688 574.144 196.52 577.168 196.536C577.904 196.536 580.784 196.536 581.696 196.488C581.44 196.904 581.184 197.72 581.088 198.216H577.072C573.248 198.216 570.944 197.112 569.792 191.896L571.232 191.48ZM574.32 184.712H580.768V190.344H574.32V188.952H579.152V186.104H574.32V184.712ZM569.04 183.464L570.752 183.976C569.92 186.632 568.544 189.512 567.024 191.352C566.896 190.904 566.448 189.784 566.176 189.288C567.36 187.848 568.416 185.672 569.04 183.464ZM567.952 188.088L569.6 186.44L569.632 186.472V198.424H567.952V188.088ZM589.056 189.256H600.688V190.6H589.056V189.256ZM590 187.24H599.248V192.648H589.824V191.368H597.44V188.536H590V187.24ZM593.36 186.312H595.2V196.552C595.2 197.512 594.992 197.928 594.368 198.184C593.744 198.44 592.832 198.472 591.504 198.472C591.424 198.008 591.184 197.304 590.928 196.856C591.76 196.888 592.72 196.888 592.992 196.872C593.264 196.872 593.36 196.792 593.36 196.536V186.312ZM589.056 193.624L590.096 192.6C590.88 192.968 591.904 193.592 592.432 194.04L591.312 195.176C590.848 194.712 589.84 194.056 589.056 193.624ZM598.64 192.712L600.048 193.848C599.04 194.504 597.872 195.176 596.96 195.576L595.888 194.616C596.752 194.152 597.952 193.32 598.64 192.712ZM595.504 192.248C596.304 194.376 597.968 196.024 600.432 196.728C600.032 197.08 599.52 197.784 599.264 198.264C596.656 197.32 595.008 195.32 594.064 192.584L595.504 192.248ZM588.384 196.328C589.44 195.992 591.024 195.4 592.576 194.808L592.912 196.184C591.68 196.776 590.352 197.368 589.28 197.848L588.384 196.328ZM592.704 183.416H594.704V185.672H592.704V183.416ZM587.856 184.792H600.496V186.456H587.856V184.792ZM586.944 184.792H588.768V189.432C588.768 192.056 588.528 196.008 587.088 198.504C586.752 198.184 585.952 197.64 585.52 197.464C586.848 195.16 586.944 191.816 586.944 189.432V184.792ZM606.688 186.008H611.6V196.792H606.688V195.096H609.856V187.688H606.688V186.008ZM605.568 186.008H607.312V197.976H605.568V186.008ZM606.608 190.28H610.704V191.944H606.608V190.28ZM607.84 183.4L609.936 183.704C609.568 184.792 609.168 185.928 608.848 186.68L607.312 186.344C607.536 185.512 607.76 184.28 607.84 183.4ZM613.712 185.896H618.384V187.64H613.712V185.896ZM617.728 185.896H619.504C619.504 185.896 619.504 186.52 619.488 186.76C619.28 193.96 619.088 196.504 618.432 197.352C617.984 197.976 617.536 198.152 616.88 198.248C616.272 198.344 615.296 198.328 614.368 198.28C614.336 197.752 614.08 196.936 613.728 196.424C614.768 196.504 615.728 196.52 616.128 196.52C616.448 196.52 616.624 196.456 616.832 196.232C617.344 195.688 617.552 192.936 617.728 186.264V185.896ZM613.76 183.416L615.6 183.848C614.976 186.216 613.936 188.648 612.848 190.184C612.496 189.864 611.712 189.32 611.264 189.064C612.336 187.72 613.248 185.544 613.76 183.416ZM612.976 190.504L614.48 189.656C615.264 190.76 616.32 192.296 616.816 193.24L615.184 194.232C614.752 193.256 613.744 191.688 612.976 190.504ZM633.248 184.12H637.36V185.864H633.248V184.12ZM633.248 187.704H637.36V189.4H633.248V187.704ZM633.216 191.288H637.376V193H633.216V191.288ZM636.512 184.12H638.352V196.168C638.352 197.112 638.208 197.64 637.632 197.96C637.072 198.264 636.256 198.312 635.056 198.312C635.008 197.784 634.752 196.92 634.496 196.424C635.2 196.472 635.952 196.472 636.192 196.456C636.432 196.456 636.512 196.376 636.512 196.136V184.12ZM632.368 184.12H634.192V189.512C634.192 192.216 633.92 196.088 632.176 198.504C631.84 198.2 631.04 197.704 630.592 197.528C632.224 195.288 632.368 191.976 632.368 189.512V184.12ZM626.08 184.12H630.144V185.864H626.08V184.12ZM626.08 187.704H630.144V189.4H626.08V187.704ZM626.08 191.288H630.144V193H626.08V191.288ZM629.136 184.12H630.928V196.2C630.928 197.048 630.784 197.528 630.272 197.832C629.76 198.12 629.04 198.152 628.016 198.152C627.952 197.672 627.712 196.904 627.488 196.44C628.048 196.472 628.672 196.472 628.864 196.472C629.072 196.472 629.136 196.392 629.136 196.2V184.12ZM625.344 184.12H627.104V189.896C627.104 192.472 626.88 196.168 625.424 198.472C625.088 198.184 624.304 197.704 623.872 197.528C625.232 195.4 625.344 192.248 625.344 189.912V184.12ZM649.488 190.28C650.832 193.64 653.696 195.832 658.208 196.632C657.776 197.032 657.232 197.864 656.96 198.392C652.256 197.352 649.472 194.84 647.808 190.776L649.488 190.28ZM654.384 189.32H654.752L655.104 189.24L656.416 189.8C655.136 194.584 651.968 197.112 647.808 198.424C647.568 197.928 647.104 197.192 646.72 196.792C650.432 195.832 653.392 193.432 654.384 189.656V189.32ZM643.808 185.8H657.776V187.656H643.808V185.8ZM648.336 189.32H654.576V191.176H647.792L648.336 189.32ZM647.808 183.416H649.808C649.68 185.928 649.44 193.672 644.832 197.864C644.432 197.352 643.824 196.872 643.168 196.488C647.744 192.76 647.712 185.368 647.808 183.416ZM662.96 184.136H677.056V185.848H662.96V184.136ZM669.12 184.872H671.136V191.336C671.136 194.568 669.808 197.256 663.776 198.456C663.568 198.024 663.024 197.192 662.608 196.76C668.384 195.88 669.12 193.864 669.12 191.304V184.872ZM666.16 190.808V191.864H674.128V190.808H666.16ZM666.16 188.344V189.368H674.128V188.344H666.16ZM664.352 186.792H676.048V193.4H664.352V186.792ZM666.256 193.336C668.496 196.2 672.24 196.424 677.696 196.376C677.36 196.824 676.992 197.64 676.896 198.28C671.248 198.168 667.024 197.64 664.576 194.008L666.256 193.336ZM688.432 184.216H694.928V185.992H688.432V184.216ZM687.888 189.784H696.72V191.592H687.888V189.784ZM691.264 187.912H693.2V196.312C693.2 197.272 693.008 197.784 692.384 198.088C691.744 198.376 690.864 198.44 689.68 198.424C689.584 197.896 689.264 197.064 689.008 196.552C689.824 196.584 690.656 196.6 690.928 196.584C691.184 196.568 691.264 196.504 691.264 196.28V187.912ZM694.24 184.216H694.704L695.104 184.12L696.352 185.064C695.408 186.456 694.048 188.152 692.8 189.208C692.544 188.872 692.016 188.344 691.712 188.088C692.656 187.176 693.76 185.592 694.24 184.632V184.216ZM681.792 186.6H686.96V188.376H681.792V186.6ZM683.936 183.416L685.744 183.608C685.136 187.016 684.208 191.304 683.456 194.184L681.888 193.352C682.576 190.824 683.44 186.6 683.936 183.416ZM682.72 193.08L683.776 191.736C685.44 192.776 687.552 194.328 688.48 195.528L687.328 197.08C686.432 195.864 684.4 194.184 682.72 193.08ZM686.304 186.6H686.608L686.944 186.552L688.08 186.744C687.712 192.984 686.16 196.52 682.992 198.488C682.736 198.024 682.224 197.336 681.84 196.968C684.56 195.544 685.984 192.008 686.304 186.952V186.6ZM710.272 183.416H712.08V194.712H710.272V183.416ZM705.536 189.848L713.824 186.328L714.528 187.96L706.256 191.544L705.536 189.848ZM707.12 184.968H708.944V195.336C708.944 196.28 709.088 196.408 710.08 196.408C710.56 196.408 712.688 196.408 713.184 196.408C714.064 196.408 714.224 196.056 714.352 194.408C714.768 194.696 715.52 195 716.032 195.096C715.792 197.368 715.216 198.12 713.344 198.12C712.816 198.12 710.416 198.12 709.92 198.12C707.728 198.12 707.12 197.544 707.12 195.32V184.968ZM713.456 186.536H713.344L713.68 186.296L714.016 186.056L715.36 186.536L715.28 186.856C715.28 189.912 715.248 191.848 715.184 192.504C715.12 193.24 714.848 193.624 714.352 193.832C713.888 194.056 713.2 194.056 712.688 194.056C712.624 193.576 712.48 192.856 712.272 192.456C712.544 192.472 712.912 192.472 713.056 192.472C713.248 192.472 713.344 192.424 713.392 192.136C713.456 191.816 713.456 190.072 713.456 186.536ZM700.944 187.128H706.224V188.936H700.944V187.128ZM702.8 183.64H704.592V194.248H702.8V183.64ZM700.72 194.264C702.048 193.784 704.128 192.92 706.08 192.088L706.512 193.784C704.816 194.648 702.976 195.512 701.488 196.184L700.72 194.264ZM129.12 220.616H136.928V222.024H129.12V220.616ZM131.408 210.776H133.264V212.696H131.408V210.776ZM125.504 211.88H139.424V215.064H137.552V213.32H127.312V215.064H125.504V211.88ZM129.056 213.992H136.896V217.576H129.056V216.2H134.976V215.368H129.056V213.992ZM129.136 218.296H138.112V222.456H136.192V219.704H129.136V218.296ZM128 213.992H129.824V222.472H128V213.992ZM127.12 208.536H132.16V210.04H127.12V208.536ZM133.6 208.536H139.808V210.04H133.6V208.536ZM127.184 207.288L128.976 207.768C128.352 209.208 127.328 210.664 126.384 211.576C126.016 211.288 125.248 210.776 124.816 210.552C125.776 209.752 126.688 208.504 127.184 207.288ZM133.696 207.288L135.52 207.736C134.944 209.112 133.952 210.44 132.992 211.272C132.608 210.984 131.792 210.568 131.312 210.36C132.336 209.624 133.232 208.456 133.696 207.288ZM127.712 209.704L129.344 209.272C129.744 209.816 130.192 210.584 130.384 211.096L128.656 211.592C128.512 211.096 128.096 210.28 127.712 209.704ZM134.864 209.752L136.544 209.304C137.008 209.832 137.568 210.6 137.824 211.112L136.048 211.608C135.84 211.128 135.312 210.312 134.864 209.752ZM151.808 212.568V213.944H156.656V212.568H151.808ZM151.808 209.72V211.064H156.656V209.72H151.808ZM150.08 208.088H158.48V215.56H150.08V208.088ZM149.968 216.936H158.656V218.664H149.968V216.936ZM148.848 220.2H159.184V221.928H148.848V220.2ZM144.16 208.328H149.472V210.12H144.16V208.328ZM144.32 212.936H149.2V214.712H144.32V212.936ZM143.984 219.016C145.36 218.664 147.408 218.024 149.328 217.4L149.664 219.24C147.872 219.848 145.952 220.472 144.416 220.968L143.984 219.016ZM145.936 209.032H147.76V218.872L145.936 219.16V209.032ZM153.456 208.776H155.072V214.808H155.248V221.016H153.28V214.808H153.456V208.776ZM166.4 212.984H175.104V214.76H166.4V212.984ZM166.4 216.408H175.104V218.184H166.4V216.408ZM166.4 219.848H175.104V221.624H166.4V219.848ZM165.088 209.496H176.72V222.392H174.672V211.336H167.04V222.424H165.088V209.496ZM169.632 207.4L171.952 207.64C171.568 208.712 171.104 209.768 170.752 210.472L168.992 210.152C169.248 209.352 169.52 208.232 169.632 207.4ZM185.312 213.48H194.384V215.368H185.312V213.48ZM184.128 208.328H195.52V216.28H193.472V210.296H184.128V208.328ZM184.32 213.48H186.32V219.224C186.32 220.088 186.608 220.232 188.336 220.232C189.136 220.232 192.512 220.232 193.456 220.232C195.072 220.232 195.296 219.832 195.504 217.496C196.016 217.8 196.88 218.136 197.44 218.248C197.104 221.32 196.4 222.136 193.504 222.136C192.784 222.136 188.992 222.136 188.304 222.136C185.296 222.136 184.32 221.56 184.32 219.256V213.48ZM203.488 210.008H208.4V220.792H203.488V219.096H206.656V211.688H203.488V210.008ZM202.368 210.008H204.112V221.976H202.368V210.008ZM203.408 214.28H207.504V215.944H203.408V214.28ZM204.64 207.4L206.736 207.704C206.368 208.792 205.968 209.928 205.648 210.68L204.112 210.344C204.336 209.512 204.56 208.28 204.64 207.4ZM210.512 209.896H215.184V211.64H210.512V209.896ZM214.528 209.896H216.304C216.304 209.896 216.304 210.52 216.288 210.76C216.08 217.96 215.888 220.504 215.232 221.352C214.784 221.976 214.336 222.152 213.68 222.248C213.072 222.344 212.096 222.328 211.168 222.28C211.136 221.752 210.88 220.936 210.528 220.424C211.568 220.504 212.528 220.52 212.928 220.52C213.248 220.52 213.424 220.456 213.632 220.232C214.144 219.688 214.352 216.936 214.528 210.264V209.896ZM210.56 207.416L212.4 207.848C211.776 210.216 210.736 212.648 209.648 214.184C209.296 213.864 208.512 213.32 208.064 213.064C209.136 211.72 210.048 209.544 210.56 207.416ZM209.776 214.504L211.28 213.656C212.064 214.76 213.12 216.296 213.616 217.24L211.984 218.232C211.552 217.256 210.544 215.688 209.776 214.504ZM230.72 207.528H232.464V220.12H230.72V207.528ZM227.68 210.824H235.968V212.216H227.68V210.824ZM228.128 217.272H235.664V218.664H228.128V217.272ZM228.528 215.096H235.264V216.488H228.528V215.096ZM224.72 208.696H226.944V210.232H224.72V208.696ZM225.536 213.096H227.296V214.488H225.536V213.096ZM226.512 208.696H226.736L227.008 208.632L228.208 208.936C227.552 210.76 226.528 213.208 225.68 215.144L224.112 214.776C224.976 212.856 226.016 210.248 226.512 208.888V208.696ZM226.832 213.096H227.136L227.44 213.064L228.448 213.224C228.128 217.736 227.104 220.728 224.944 222.408C224.72 221.992 224.24 221.32 223.888 220.984C225.632 219.752 226.592 216.904 226.832 213.368V213.096ZM225.632 215.48C226.496 219.688 228.544 220.52 231.568 220.536C232.304 220.536 235.184 220.536 236.096 220.488C235.84 220.904 235.584 221.72 235.488 222.216H231.472C227.648 222.216 225.344 221.112 224.192 215.896L225.632 215.48ZM228.72 208.712H235.168V214.344H228.72V212.952H233.552V210.104H228.72V208.712ZM223.44 207.464L225.152 207.976C224.32 210.632 222.944 213.512 221.424 215.352C221.296 214.904 220.848 213.784 220.576 213.288C221.76 211.848 222.816 209.672 223.44 207.464ZM222.352 212.088L224 210.44L224.032 210.472V222.424H222.352V212.088ZM243.456 213.256H255.088V214.6H243.456V213.256ZM244.4 211.24H253.648V216.648H244.224V215.368H251.84V212.536H244.4V211.24ZM247.76 210.312H249.6V220.552C249.6 221.512 249.392 221.928 248.768 222.184C248.144 222.44 247.232 222.472 245.904 222.472C245.824 222.008 245.584 221.304 245.328 220.856C246.16 220.888 247.12 220.888 247.392 220.872C247.664 220.872 247.76 220.792 247.76 220.536V210.312ZM243.456 217.624L244.496 216.6C245.28 216.968 246.304 217.592 246.832 218.04L245.712 219.176C245.248 218.712 244.24 218.056 243.456 217.624ZM253.04 216.712L254.448 217.848C253.44 218.504 252.272 219.176 251.36 219.576L250.288 218.616C251.152 218.152 252.352 217.32 253.04 216.712ZM249.904 216.248C250.704 218.376 252.368 220.024 254.832 220.728C254.432 221.08 253.92 221.784 253.664 222.264C251.056 221.32 249.408 219.32 248.464 216.584L249.904 216.248ZM242.784 220.328C243.84 219.992 245.424 219.4 246.976 218.808L247.312 220.184C246.08 220.776 244.752 221.368 243.68 221.848L242.784 220.328ZM247.104 207.416H249.104V209.672H247.104V207.416ZM242.256 208.792H254.896V210.456H242.256V208.792ZM241.344 208.792H243.168V213.432C243.168 216.056 242.928 220.008 241.488 222.504C241.152 222.184 240.352 221.64 239.92 221.464C241.248 219.16 241.344 215.816 241.344 213.432V208.792ZM267.744 218.552H272.528V220.392H267.744V218.552ZM267.056 208.92H273.472V221.544H271.504V210.744H268.928V221.656H267.056V208.92ZM262.368 209H264.288V222.424H262.368V209ZM259.488 212.184H266.624V213.96H259.488V212.184ZM262.24 212.856L263.52 213.288C262.832 215.88 261.584 218.904 260.112 220.536C259.92 219.976 259.472 219.224 259.152 218.728C260.48 217.32 261.696 214.904 262.24 212.856ZM265.44 207.544L266.688 209.048C264.8 209.72 262.256 210.184 260.08 210.44C260 210.008 259.76 209.352 259.552 208.936C261.648 208.648 263.984 208.136 265.44 207.544ZM264.112 214.056C264.608 214.52 266.352 216.52 266.736 217L265.632 218.584C265.104 217.608 263.824 215.784 263.2 214.968L264.112 214.056ZM285.056 217.112L287.2 217.368C286.896 218.088 286.592 218.744 286.384 219.208L284.688 218.904C284.832 218.344 284.992 217.64 285.056 217.112ZM283.392 215.864V216.632H288.432V215.864H283.392ZM281.616 214.68H290.336V217.8H281.616V214.68ZM280.496 218.52H291.872V222.44H289.968V219.848H282.304V222.44H280.496V218.52ZM281.616 220.728H290.768V222.072H281.616V220.728ZM279.12 212.6H292.912V215.72H290.976V214.056H280.96V215.72H279.12V212.6ZM284.464 208.104L286 208.6C285.488 209.224 284.976 209.832 284.576 210.232L283.472 209.784C283.824 209.304 284.24 208.584 284.464 208.104ZM281.616 210.872L282.72 209.832C283.552 210.28 284.736 210.968 285.344 211.416L284.192 212.584C283.616 212.12 282.464 211.384 281.616 210.872ZM281.808 207.416H283.472C283.328 210.328 282.768 211.976 279.52 212.872C279.376 212.456 278.944 211.832 278.608 211.528C281.36 210.872 281.696 209.72 281.808 207.416ZM280 208.056L281.216 208.488C280.96 209.272 280.576 210.088 279.904 210.584L278.736 209.88C279.328 209.464 279.776 208.728 280 208.056ZM291.568 208.072L293.216 208.616C292.656 209.24 292.112 209.88 291.696 210.296L290.528 209.832C290.896 209.32 291.344 208.584 291.568 208.072ZM288.544 210.936L289.616 209.784C290.688 210.296 292.272 211.096 293.088 211.624L291.952 212.936C291.2 212.392 289.648 211.528 288.544 210.936ZM288.672 207.416H290.4C290.272 210.328 289.728 211.96 286.384 212.792C286.256 212.376 285.824 211.72 285.472 211.384C288.272 210.776 288.576 209.704 288.672 207.416ZM286.832 208.072L288.064 208.52C287.792 209.304 287.408 210.072 286.752 210.6L285.568 209.864C286.16 209.448 286.608 208.728 286.832 208.072ZM298.816 208.808H311.488V210.216H298.816V208.808ZM299.632 210.776H310.736V212.104H299.632V210.776ZM298.048 212.664H312.288V214.072H298.048V212.664ZM301.856 216.696H308.112V217.688H301.856V216.696ZM304.176 209.576H306.16V213.352H304.176V209.576ZM304.24 214.36H306.064V215.8H304.24V214.36ZM300.944 207.896L302.64 207.352C303.024 207.752 303.408 208.328 303.584 208.744L301.808 209.4C301.68 208.984 301.312 208.344 300.944 207.896ZM307.6 207.4L309.712 207.8C309.264 208.392 308.816 208.888 308.48 209.224L306.832 208.792C307.104 208.376 307.424 207.784 307.6 207.4ZM308.304 213.064C309.184 214.312 310.912 215.384 312.768 215.88C312.384 216.248 311.84 216.92 311.568 217.384C309.6 216.696 307.84 215.272 306.8 213.592L308.304 213.064ZM305.744 218.68C306.896 220.072 309.296 220.712 312.464 220.84C312.08 221.224 311.632 221.96 311.408 222.472C308 222.12 305.632 221.128 304.24 219L305.744 218.68ZM302.096 215.016H309.584V219.384H302.096V218.216H307.648V216.184H302.096V215.016ZM300.816 215.016H302.72V221.24H300.816V215.016ZM299.12 220.696C300.88 220.6 303.6 220.424 306.176 220.232V221.736C303.744 221.96 301.184 222.184 299.312 222.344L299.12 220.696ZM310.208 218.728L311.616 219.528C310.704 220.184 309.632 220.792 308.784 221.208L307.696 220.52C308.496 220.056 309.584 219.288 310.208 218.728ZM301.872 213.112L303.648 213.624C302.576 215.352 300.704 216.728 298.848 217.56C298.576 217.192 297.936 216.504 297.536 216.168C299.344 215.528 301.024 214.44 301.872 213.112ZM319.488 223.208L318.976 221.928C320.32 221.496 321.056 220.712 321.056 219.8L320.944 218.216L321.824 219.656C321.568 219.896 321.232 220.008 320.88 220.008C320.08 220.008 319.344 219.496 319.344 218.568C319.344 217.672 320.064 217.128 320.928 217.128C322.048 217.128 322.656 217.992 322.656 219.336C322.656 221.144 321.472 222.616 319.488 223.208ZM342.624 207.4H344.544V209.56H342.624V207.4ZM336.752 208.392H350.448V211.208H348.64V209.88H338.48V211.208H336.752V208.392ZM342.768 210.824H344.352C344.272 211.864 344.128 213.096 344 213.896H342.4C342.544 213.064 342.688 211.832 342.768 210.824ZM340.176 217.224V217.704H347.024V217.224H340.176ZM340.176 218.664V219.144H347.024V218.664H340.176ZM340.176 215.8V216.264H347.024V215.8H340.176ZM338.32 214.792H348.976V220.152H338.32V214.792ZM344.256 220.856L345.52 219.816C347.344 220.312 349.44 220.952 350.688 221.384L349.04 222.44C347.968 222.024 346.112 221.368 344.256 220.856ZM340.736 211.368L340.48 213.368H346.272L346.448 211.368H340.736ZM339.168 210.408H348.32L347.936 214.328H338.656L339.168 210.408ZM341.44 219.8L342.928 220.808C341.616 221.544 339.36 222.168 337.488 222.44C337.232 222.088 336.704 221.528 336.336 221.192C338.192 220.952 340.432 220.36 341.44 219.8ZM336.496 211.688H340.048V211.864H346.928V211.688H350.736V213.048H346.928V212.872H340.048V213.048H336.496V211.688ZM355.456 208.248H361.088V210.024H355.456V208.248ZM355.6 212.824H360.912V214.584H355.6V212.824ZM355.072 218.376C356.624 218.024 358.944 217.4 361.152 216.792L361.408 218.472C359.392 219.08 357.216 219.704 355.552 220.2L355.072 218.376ZM363.488 212.024V213.016H367.696V212.024H363.488ZM363.488 214.488V215.464H367.696V214.488H363.488ZM363.488 209.592V210.568H367.696V209.592H363.488ZM361.712 208.024H369.568V217.048H361.712V208.024ZM365.744 216.344H367.584V220.184C367.584 220.664 367.632 220.712 367.888 220.712C368 220.712 368.416 220.712 368.56 220.712C368.832 220.712 368.896 220.456 368.928 218.856C369.296 219.144 370.064 219.448 370.544 219.56C370.384 221.752 369.936 222.36 368.768 222.36C368.48 222.36 367.824 222.36 367.552 222.36C366.064 222.36 365.744 221.816 365.744 220.2V216.344ZM362.912 216.808H364.784C364.544 219.544 363.856 221.48 360.304 222.552C360.112 222.072 359.632 221.336 359.248 220.968C362.288 220.2 362.704 218.84 362.912 216.808ZM357.392 208.952H359.248V218.36L357.392 218.632V208.952ZM379.424 208.232H389.04V222.296H387.216V209.896H381.168V222.424H379.424V208.232ZM381.584 211.864H386.848V213.256H381.584V211.864ZM380.32 219.816H388.096V221.496H380.32V219.816ZM383.424 210.232H384.912V215.368H383.424V210.232ZM383.376 215.976V217.64H385.008V215.976H383.376ZM382 214.648H386.464V218.968H382V214.648ZM377.44 207.464L379.2 207.992C378.272 210.76 376.736 213.72 375.072 215.608C374.928 215.144 374.448 214.024 374.144 213.528C375.488 212.056 376.72 209.752 377.44 207.464ZM376.128 211.848L377.936 210.04L377.952 210.056V222.456H376.128V211.848ZM395.568 207.416H397.504V222.44H395.568V207.416ZM394.224 210.488L395.6 210.68C395.52 212.072 395.248 213.976 394.864 215.192L393.44 214.696C393.84 213.608 394.112 211.816 394.224 210.488ZM397.12 210.616L398.416 210.056C398.864 210.888 399.328 211.976 399.488 212.648L398.112 213.304C397.968 212.6 397.536 211.48 397.12 210.616ZM400.16 208.152L402.016 208.44C401.696 210.824 401.072 213.192 400.24 214.696C399.856 214.424 398.992 214.008 398.528 213.816C399.376 212.472 399.904 210.296 400.16 208.152ZM400.72 210.648H408.112V212.472H400.176L400.72 210.648ZM402.912 207.512H404.832V221.16H402.912V207.512ZM399.808 215.096H407.776V216.888H399.808V215.096ZM398.608 220.104H408.608V221.928H398.608V220.104ZM420.032 207.832H421.984V219.352C421.984 220.312 422.096 220.472 422.88 220.472C423.232 220.472 424.832 220.472 425.216 220.472C426 220.472 426.128 219.912 426.24 217.656C426.704 217.992 427.488 218.344 428.032 218.456C427.792 221.224 427.28 222.248 425.392 222.248C424.928 222.248 423.072 222.248 422.64 222.248C420.624 222.248 420.032 221.608 420.032 219.336V207.832ZM426.032 210.504L427.44 212.184C425.632 213.464 423.344 214.664 421.264 215.64C421.136 215.192 420.768 214.52 420.496 214.104C422.48 213.16 424.608 211.72 426.032 210.504ZM416.944 207.624L418.832 208.264C417.632 211.112 415.664 214.072 413.648 215.928C413.456 215.432 412.896 214.376 412.544 213.896C414.272 212.408 415.952 210.04 416.944 207.624ZM415.248 212.136L417.136 210.248L417.168 210.28V222.408H415.248V212.136ZM433.888 210.008H438.8V220.792H433.888V219.096H437.056V211.688H433.888V210.008ZM432.768 210.008H434.512V221.976H432.768V210.008ZM433.808 214.28H437.904V215.944H433.808V214.28ZM435.04 207.4L437.136 207.704C436.768 208.792 436.368 209.928 436.048 210.68L434.512 210.344C434.736 209.512 434.96 208.28 435.04 207.4ZM440.912 209.896H445.584V211.64H440.912V209.896ZM444.928 209.896H446.704C446.704 209.896 446.704 210.52 446.688 210.76C446.48 217.96 446.288 220.504 445.632 221.352C445.184 221.976 444.736 222.152 444.08 222.248C443.472 222.344 442.496 222.328 441.568 222.28C441.536 221.752 441.28 220.936 440.928 220.424C441.968 220.504 442.928 220.52 443.328 220.52C443.648 220.52 443.824 220.456 444.032 220.232C444.544 219.688 444.752 216.936 444.928 210.264V209.896ZM440.96 207.416L442.8 207.848C442.176 210.216 441.136 212.648 440.048 214.184C439.696 213.864 438.912 213.32 438.464 213.064C439.536 211.72 440.448 209.544 440.96 207.416ZM440.176 214.504L441.68 213.656C442.464 214.76 443.52 216.296 444.016 217.24L442.384 218.232C441.952 217.256 440.944 215.688 440.176 214.504ZM459.76 210.216H464.88V211.944H459.76V210.216ZM459.872 207.4L461.744 207.672C461.28 210.488 460.416 213.064 459.136 214.68C458.816 214.392 457.984 213.832 457.536 213.608C458.784 212.2 459.536 209.864 459.872 207.4ZM462.112 210.904H463.04V213.56C463.04 215.144 463.664 218.808 466.4 220.76C466.064 221.192 465.504 221.992 465.216 222.472C463.216 221.048 462.288 218.296 462.096 216.888C461.856 218.264 460.752 220.984 458.48 222.456C458.256 222.024 457.712 221.224 457.376 220.856C460.48 218.872 461.136 215.208 461.136 213.56V210.904H462.112ZM464.416 210.216H464.704L465.008 210.136L466.288 210.44C466.048 212.024 465.6 213.752 465.12 214.888L463.6 214.392C463.952 213.416 464.272 211.784 464.416 210.52V210.216ZM454.432 210.472H456.128V212.312H454.432V210.472ZM452.4 211.72H454.112V220.632H452.4V211.72ZM453.456 213.8H457.152V215.08H453.456V213.8ZM451.264 220.104C452.672 219.8 454.832 219.224 456.896 218.648L457.12 220.184C455.312 220.776 453.408 221.4 451.872 221.88L451.264 220.104ZM455.36 217.8L456.912 217.256C457.44 218.296 458.048 219.672 458.288 220.536L456.624 221.208C456.432 220.328 455.888 218.872 455.36 217.8ZM453.456 211.72H457.952V217.192H453.456V215.88H456.272V213.048H453.456V211.72ZM454.096 207.416H455.12V207.768H455.68V208.28C454.976 209.512 453.888 211.128 452.08 212.52C451.856 212.12 451.344 211.464 450.992 211.192C452.512 210.104 453.536 208.648 454.096 207.416ZM454.592 207.416H455.888C456.832 208.264 458.032 209.464 458.672 210.28L457.36 211.528C456.832 210.76 455.728 209.432 454.896 208.68H454.592V207.416ZM477.936 209.048C476.56 210.648 474.016 212.408 471.472 213.496C471.248 213.048 470.752 212.328 470.368 211.928C473.008 210.904 475.6 209.016 476.864 207.368H478.816C480.608 209.368 483.168 210.952 485.664 211.752C485.216 212.232 484.784 212.904 484.448 213.464C482.144 212.472 479.392 210.696 477.936 209.048ZM474.4 214.136H481.456V215.512H474.4V214.136ZM476.96 210.584H478.944V212.744H476.96V210.584ZM471.552 220.52C473.344 220.392 476.016 220.184 478.528 219.944L478.544 221.656C476.176 221.896 473.648 222.12 471.808 222.296L471.552 220.52ZM478.496 217.304C479.632 219.256 482.016 220.392 485.36 220.776C484.944 221.176 484.448 221.944 484.192 222.456C480.64 221.864 478.288 220.376 476.864 217.752L478.496 217.304ZM483.216 216.984L484.608 218.136C483.36 218.952 481.824 219.8 480.64 220.312L479.488 219.272C480.672 218.712 482.256 217.736 483.216 216.984ZM474.4 211.816H482.736V217.88H474.4V216.392H480.8V213.304H474.4V211.816ZM473.216 211.816H475.12V220.744L473.216 220.952V211.816ZM496.176 212.792H504.848V214.696H496.176V212.792ZM499.552 207.48H501.504V222.44H499.552V207.48ZM490.448 212.328H495.616V213.768H490.448V212.328ZM490.544 207.912H495.648V209.368H490.544V207.912ZM490.448 214.504H495.616V215.96H490.448V214.504ZM489.664 210.072H496.256V211.592H489.664V210.072ZM491.328 216.728H495.568V221.592H491.328V220.072H493.888V218.248H491.328V216.728ZM490.4 216.728H492.064V222.232H490.4V216.728ZM515.44 216.632H517.216V219.816H515.44V216.632ZM509.088 220.76H523.712V222.008H509.088V220.76ZM509.168 209.912H523.632V210.952H509.168V209.912ZM509.104 214.648H523.744V215.848H509.104V214.648ZM510.256 213.08H522.64V214.104H510.256V213.08ZM510.848 208.36H522.016V212.536H510.752V211.512H520.08V209.384H510.848V208.36ZM515.328 207.4H517.28V215.24H515.328V207.4ZM512.816 218.728V219.32H520.064V218.728H512.816ZM512.816 217.288V217.848H520.064V217.288H512.816ZM510.928 216.344H522.032V220.248H510.928V216.344ZM536.544 218.552H541.328V220.392H536.544V218.552ZM535.856 208.92H542.272V221.544H540.304V210.744H537.728V221.656H535.856V208.92ZM531.168 209H533.088V222.424H531.168V209ZM528.288 212.184H535.424V213.96H528.288V212.184ZM531.04 212.856L532.32 213.288C531.632 215.88 530.384 218.904 528.912 220.536C528.72 219.976 528.272 219.224 527.952 218.728C529.28 217.32 530.496 214.904 531.04 212.856ZM534.24 207.544L535.488 209.048C533.6 209.72 531.056 210.184 528.88 210.44C528.8 210.008 528.56 209.352 528.352 208.936C530.448 208.648 532.784 208.136 534.24 207.544ZM532.912 214.056C533.408 214.52 535.152 216.52 535.536 217L534.432 218.584C533.904 217.608 532.624 215.784 532 214.968L532.912 214.056ZM557.12 207.528H558.864V220.12H557.12V207.528ZM554.08 210.824H562.368V212.216H554.08V210.824ZM554.528 217.272H562.064V218.664H554.528V217.272ZM554.928 215.096H561.664V216.488H554.928V215.096ZM551.12 208.696H553.344V210.232H551.12V208.696ZM551.936 213.096H553.696V214.488H551.936V213.096ZM552.912 208.696H553.136L553.408 208.632L554.608 208.936C553.952 210.76 552.928 213.208 552.08 215.144L550.512 214.776C551.376 212.856 552.416 210.248 552.912 208.888V208.696ZM553.232 213.096H553.536L553.84 213.064L554.848 213.224C554.528 217.736 553.504 220.728 551.344 222.408C551.12 221.992 550.64 221.32 550.288 220.984C552.032 219.752 552.992 216.904 553.232 213.368V213.096ZM552.032 215.48C552.896 219.688 554.944 220.52 557.968 220.536C558.704 220.536 561.584 220.536 562.496 220.488C562.24 220.904 561.984 221.72 561.888 222.216H557.872C554.048 222.216 551.744 221.112 550.592 215.896L552.032 215.48ZM555.12 208.712H561.568V214.344H555.12V212.952H559.952V210.104H555.12V208.712ZM549.84 207.464L551.552 207.976C550.72 210.632 549.344 213.512 547.824 215.352C547.696 214.904 547.248 213.784 546.976 213.288C548.16 211.848 549.216 209.672 549.84 207.464ZM548.752 212.088L550.4 210.44L550.432 210.472V222.424H548.752V212.088ZM569.856 213.256H581.488V214.6H569.856V213.256ZM570.8 211.24H580.048V216.648H570.624V215.368H578.24V212.536H570.8V211.24ZM574.16 210.312H576V220.552C576 221.512 575.792 221.928 575.168 222.184C574.544 222.44 573.632 222.472 572.304 222.472C572.224 222.008 571.984 221.304 571.728 220.856C572.56 220.888 573.52 220.888 573.792 220.872C574.064 220.872 574.16 220.792 574.16 220.536V210.312ZM569.856 217.624L570.896 216.6C571.68 216.968 572.704 217.592 573.232 218.04L572.112 219.176C571.648 218.712 570.64 218.056 569.856 217.624ZM579.44 216.712L580.848 217.848C579.84 218.504 578.672 219.176 577.76 219.576L576.688 218.616C577.552 218.152 578.752 217.32 579.44 216.712ZM576.304 216.248C577.104 218.376 578.768 220.024 581.232 220.728C580.832 221.08 580.32 221.784 580.064 222.264C577.456 221.32 575.808 219.32 574.864 216.584L576.304 216.248ZM569.184 220.328C570.24 219.992 571.824 219.4 573.376 218.808L573.712 220.184C572.48 220.776 571.152 221.368 570.08 221.848L569.184 220.328ZM573.504 207.416H575.504V209.672H573.504V207.416ZM568.656 208.792H581.296V210.456H568.656V208.792ZM567.744 208.792H569.568V213.432C569.568 216.056 569.328 220.008 567.888 222.504C567.552 222.184 566.752 221.64 566.32 221.464C567.648 219.16 567.744 215.816 567.744 213.432V208.792ZM588.832 211.992H597.52V213.8H588.832V211.992ZM588.832 215.704H597.52V217.512H588.832V215.704ZM588.832 219.4H597.52V221.272H588.832V219.4ZM587.44 208.28H598.848V222.264H596.816V210.168H589.376V222.264H587.44V208.28ZM611.488 215.016H619.04V216.392H611.488V215.016ZM610.528 208.072H619.872V209.592H610.528V208.072ZM610.448 217.032H619.904V218.552H610.448V217.032ZM616.528 219.608L617.888 218.728C618.656 219.416 619.6 220.392 620.032 221.08L618.592 222.088C618.192 221.416 617.28 220.36 616.528 219.608ZM612.56 211.736V213.048H617.808V211.736H612.56ZM610.992 210.344H619.456V214.424H610.992V210.344ZM614.256 217.784H616.032V220.76C616.032 221.512 615.92 221.944 615.408 222.2C614.912 222.44 614.256 222.456 613.376 222.456C613.296 221.976 613.072 221.352 612.864 220.904C613.376 220.936 613.888 220.936 614.032 220.92C614.208 220.92 614.256 220.872 614.256 220.728V217.784ZM612.064 218.696L613.52 219.496C612.864 220.488 611.904 221.464 611.008 222.072C610.736 221.72 610.224 221.224 609.84 220.92C610.672 220.376 611.552 219.464 612.064 218.696ZM613.216 208.968H614.704V211.176H613.216V208.968ZM613.392 210.936H614.688V214.056H613.392V210.936ZM615.568 208.968H617.056V211.176H615.568V208.968ZM615.568 210.936H616.864V214.056H615.568V210.936ZM605.104 210.728H610.384V212.504H605.104V210.728ZM607.056 207.416H608.8V222.44H607.056V207.416ZM607.024 211.944L608.096 212.312C607.632 214.84 606.72 217.928 605.584 219.576C605.424 219.064 605.008 218.328 604.736 217.88C605.76 216.488 606.656 213.976 607.024 211.944ZM608.72 213.144C609.088 213.608 610.416 215.704 610.688 216.184L609.696 217.56C609.328 216.584 608.368 214.712 607.92 213.928L608.72 213.144ZM626.688 217.048C628.128 217.048 629.28 218.2 629.28 219.624C629.28 221.064 628.128 222.216 626.688 222.216C625.264 222.216 624.096 221.064 624.096 219.624C624.096 218.2 625.264 217.048 626.688 217.048ZM626.688 221.064C627.488 221.064 628.128 220.424 628.128 219.624C628.128 218.84 627.488 218.2 626.688 218.2C625.904 218.2 625.248 218.84 625.248 219.624C625.248 220.424 625.904 221.064 626.688 221.064Z" fill="white"/>
<path d="M311.244 107.048H323.052V110.472H311.244V107.048ZM314.7 113.864H320.332V116.968H314.7V113.864ZM323.98 127.368H328.78V129.928H323.98V127.368ZM333.996 127.368H338.86V129.928H333.996V127.368ZM314.7 120.36H320.332V123.496H314.7V120.36ZM312.684 108.872H315.852V128.936H312.684V108.872ZM318.316 108.84H321.516V135.88H318.316V108.84ZM332.108 121.64H335.212V135.88H332.108V121.64ZM322.956 122.632H325.74V131.112H322.956V122.632ZM337.036 122.632H339.916V131.048H337.036V122.632ZM310.668 128.136C313.068 127.816 316.492 127.24 319.852 126.664L320.14 129.96C317.1 130.568 313.932 131.208 311.308 131.688L310.668 128.136ZM327.5 121.672H330.572V127.368C330.572 130.952 329.9 134.12 325.388 136.04C325.036 135.304 324.14 134.056 323.5 133.544C327.02 132.04 327.5 129.8 327.5 127.304V121.672ZM322.124 118.632C324.236 118.504 327.148 118.28 330.188 118.056L330.22 120.52C327.468 120.776 324.748 121.064 322.476 121.256L322.124 118.632ZM322.508 112.136L324.108 109.896C325.548 111.08 327.276 112.712 327.98 113.928L326.348 116.392C325.644 115.144 323.98 113.352 322.508 112.136ZM328.236 116.552L330.476 115.912C331.244 117.384 331.884 119.336 331.98 120.616L329.612 121.384C329.548 120.104 328.972 118.088 328.236 116.552ZM326.348 105.832L329.452 106.76C328.3 108.776 327.02 111.144 326.028 112.584L324.012 111.784C324.844 110.152 325.836 107.592 326.348 105.832ZM328.716 109.96L331.5 110.952C329.708 113.992 327.372 117.704 325.516 119.944L323.564 119.112C325.388 116.68 327.5 112.776 328.716 109.96ZM331.404 118.536C333.548 118.408 336.46 118.184 339.468 117.96L339.532 120.36C336.812 120.68 334.124 120.968 331.884 121.192L331.404 118.536ZM331.116 112.072L332.62 109.736C334.188 110.888 335.948 112.52 336.684 113.768L335.052 116.328C334.348 115.048 332.652 113.256 331.116 112.072ZM337.132 116.584L339.404 115.848C340.3 117.512 341.068 119.688 341.196 121.096L338.764 121.928C338.636 120.52 337.964 118.312 337.132 116.584ZM335.052 105.832L338.22 106.792C337.068 108.84 335.788 111.176 334.764 112.648L332.588 111.784C333.484 110.152 334.508 107.624 335.052 105.832ZM337.484 109.864L340.46 110.92C338.636 113.928 336.332 117.64 334.444 119.912L332.428 118.984C334.22 116.584 336.3 112.648 337.484 109.864ZM363.084 123.56H377.388V135.784H373.644V126.856H366.668V135.88H363.084V123.56ZM365.164 131.272H374.828V134.568H365.164V131.272ZM366.796 105.832L370.508 106.472C368.812 110.376 366.284 114.248 362.348 117.384C361.804 116.616 360.588 115.368 359.788 114.888C363.34 112.296 365.612 108.84 366.796 105.832ZM367.244 108.68H375.212V111.944H365.612L367.244 108.68ZM374.22 108.68H374.956L375.564 108.52L377.9 109.832C375.052 117.256 369.036 122.312 362.54 124.808C362.124 123.912 360.972 122.408 360.236 121.768C366.508 119.656 372.076 115.304 374.22 109.32V108.68ZM366.796 111.656C369.356 115.72 374.54 119.432 379.884 121.192C379.052 121.896 377.996 123.336 377.42 124.264C371.884 122.088 366.796 117.864 363.628 112.936L366.796 111.656ZM354.06 105.864L357.388 107.112C356.076 109.544 354.604 112.392 353.356 114.184L350.796 113.064C351.948 111.176 353.324 108.104 354.06 105.864ZM357.74 109.64L360.844 111.048C358.54 114.728 355.404 119.176 352.972 121.96L350.764 120.712C353.132 117.8 356.076 113.096 357.74 109.64ZM349.132 113.448L350.956 110.824C352.652 112.296 354.636 114.312 355.468 115.784L353.484 118.76C352.716 117.224 350.764 114.984 349.132 113.448ZM356.78 117.288L359.308 116.232C360.556 118.376 361.772 121.192 362.124 123.016L359.404 124.232C359.084 122.376 357.964 119.496 356.78 117.288ZM349.1 119.944C352.044 119.848 356.364 119.688 360.588 119.496L360.556 122.536C356.62 122.824 352.524 123.08 349.42 123.304L349.1 119.944ZM357.484 125.256L360.172 124.392C360.972 126.216 361.804 128.616 362.156 130.216L359.34 131.208C359.02 129.608 358.188 127.144 357.484 125.256ZM350.476 124.648L353.644 125.192C353.324 128.264 352.62 131.464 351.692 133.512C351.02 133.096 349.58 132.424 348.78 132.104C349.708 130.216 350.22 127.368 350.476 124.648ZM354.06 121.64H357.42V135.912H354.06V121.64ZM409.228 108.68L412.108 106.696C413.868 108.2 415.948 110.344 416.908 111.848L413.804 114.024C412.972 112.488 410.956 110.248 409.228 108.68ZM388.268 114.92H417.164V118.568H388.268V114.92ZM387.66 123.976C391.532 123.4 397.612 122.344 403.212 121.32L403.5 124.808C398.316 125.896 392.748 127.016 388.62 127.848L387.66 123.976ZM394.348 109.768H398.22V131.4C398.22 133.48 397.804 134.536 396.492 135.144C395.212 135.752 393.324 135.88 390.7 135.88C390.54 134.792 389.9 133.064 389.324 131.976C391.148 132.072 393.004 132.072 393.58 132.04C394.156 132.04 394.348 131.88 394.348 131.336V109.768ZM400.908 106.024L403.5 109.288C399.34 110.568 393.868 111.432 389.228 111.944C389.036 111.048 388.556 109.608 388.108 108.744C392.62 108.136 397.612 107.144 400.908 106.024ZM404.044 106.088H408.076C407.852 118.984 410.732 132.104 413.644 132.104C414.316 132.104 414.668 130.536 414.86 126.728C415.66 127.624 416.972 128.52 417.996 128.936C417.388 134.6 416.172 136.008 413.26 136.008C406.636 136.008 404.14 120.456 404.044 106.088ZM412.748 119.624L416.14 121.064C412.812 127.016 407.596 131.784 401.804 134.856C401.228 133.896 400.172 132.616 399.212 131.752C404.684 129.256 409.9 124.904 412.748 119.624ZM437.356 112.264H443.02V114.984H437.356V112.264ZM446.988 112.264H452.684V114.984H446.988V112.264ZM451.532 107.528H455.18V131.432C455.18 133.512 454.764 134.536 453.452 135.112C452.14 135.752 450.124 135.816 447.116 135.816C446.956 134.792 446.38 133.096 445.868 132.136C447.82 132.232 450.06 132.232 450.7 132.2C451.308 132.2 451.532 132.008 451.532 131.4V107.528ZM435.116 107.528H438.668V135.784H435.116V107.528ZM437.58 107.528H444.204V119.816H437.58V116.904H441.324V110.44H437.58V107.528ZM453.324 107.528V110.44H448.652V116.904H453.324V119.816H445.644V107.528H453.324ZM431.788 105.896L435.34 106.92C433.516 112.52 430.572 118.6 427.308 122.44C426.988 121.48 426.06 119.304 425.452 118.28C428.044 115.272 430.412 110.568 431.788 105.896ZM429.26 114.664L432.812 111.144L432.908 111.208V135.848H429.26V114.664Z" fill="white"/>
<defs>
<filter id="filter0_d_485_487" x="0" y="0" width="764" height="355" filterUnits="userSpaceOnUse" color-interpolation-filters="sRGB">
<feFlood flood-opacity="0" result="BackgroundImageFix"/>
<feColorMatrix in="SourceAlpha" type="matrix" values="0 0 0 0 0 0 0 0 0 0 0 0 0 0 0 0 0 0 127 0" result="hardAlpha"/>
<feOffset dy="4"/>
<feGaussianBlur stdDeviation="2"/>
<feComposite in2="hardAlpha" operator="out"/>
<feColorMatrix type="matrix" values="0 0 0 0 0 0 0 0 0 0 0 0 0 0 0 0 0 0 0.25 0"/>
<feBlend mode="normal" in2="BackgroundImageFix" result="effect1_dropShadow_485_487"/>
<feBlend mode="normal" in="SourceGraphic" in2="effect1_dropShadow_485_487" result="shape"/>
</filter>
</defs>
</svg>
