<svg width="245" height="46" viewBox="0 0 245 46" fill="none" xmlns="http://www.w3.org/2000/svg">
<rect x="1.00512" y="2.25017" width="242.777" height="42.1736" rx="21.0868" transform="rotate(-0.293843 1.00512 2.25017)" stroke="url(#paint0_linear_485_318)" stroke-width="2"/>
<path d="M42.4296 23.2436H55.1296V24.6036H42.4296V23.2436ZM49.8096 15.1036H51.2096V19.0236C51.2096 19.4636 51.2696 19.5436 51.7896 19.5436C52.0096 19.5436 53.1896 19.5436 53.4896 19.5436C53.9096 19.5436 53.9896 19.3436 54.0296 17.9836C54.3296 18.2036 54.8896 18.3836 55.2696 18.4836C55.1296 20.3036 54.7496 20.7636 53.6496 20.7636C53.3496 20.7636 51.8896 20.7636 51.6096 20.7636C50.1496 20.7636 49.8096 20.4036 49.8096 19.0436V15.1036ZM42.7096 13.9636H54.9896V17.3036H53.6096V15.2436H44.0496V17.6436H42.7096V13.9636ZM47.8896 20.9836H49.3496V31.4636H47.8896V20.9836ZM46.4896 15.1236H47.9096C47.7096 18.6836 46.9096 20.5036 43.1696 21.5036C43.0496 21.1636 42.6696 20.6436 42.4096 20.3836C45.7296 19.5836 46.3296 18.1436 46.4896 15.1236ZM49.9496 23.8836C51.0696 26.0236 53.3096 28.2436 55.4496 29.2636C55.0896 29.5436 54.6096 30.0836 54.3696 30.4836C52.2496 29.2436 50.0496 26.7436 48.8496 24.2836L49.9496 23.8836ZM47.4296 23.7636L48.6096 24.1636C47.2896 26.8836 44.8696 29.3636 42.4096 30.6236C42.1896 30.2836 41.7696 29.7636 41.4496 29.4836C43.8296 28.4236 46.2096 26.1436 47.4296 23.7636ZM37.8496 14.3836L38.7296 13.3036C39.9696 13.8636 41.5096 14.8036 42.2696 15.5036L41.3696 16.7236C40.6296 15.9836 39.1296 15.0036 37.8496 14.3836ZM36.9296 19.8836L37.6896 18.7236C38.9696 19.1236 40.5696 19.8636 41.3696 20.4836L40.5696 21.8036C39.7896 21.1436 38.2096 20.3636 36.9296 19.8836ZM37.4496 30.3236C38.4096 28.8036 39.7896 26.2036 40.8096 23.9836L41.9696 24.8636C41.0296 26.9436 39.8096 29.4036 38.7496 31.2436L37.4496 30.3236ZM60.6896 14.2836H66.3496V15.8036H60.6896V14.2836ZM65.5896 14.2836H67.1296C67.1296 17.8636 67.5696 25.4636 75.4696 30.1436C75.1296 30.4036 74.5296 31.0436 74.2496 31.4036C66.2496 26.5636 65.5896 18.0436 65.5896 14.2836ZM65.0296 18.2036L66.7296 18.5236C65.2896 24.6236 62.6496 28.8436 58.2296 31.4436C57.9496 31.1236 57.2696 30.5036 56.8696 30.2236C61.3096 27.9036 63.8096 23.8636 65.0296 18.2036ZM85.3896 19.8836H86.9496V29.5436C86.9496 30.5436 86.6896 31.0036 85.9096 31.2236C85.1296 31.4636 83.7896 31.4836 81.7696 31.4836C81.6696 31.0436 81.3896 30.4036 81.1496 29.9636C82.8096 30.0236 84.3496 30.0236 84.8096 30.0036C85.2496 29.9836 85.3896 29.8636 85.3896 29.5036V19.8836ZM78.1096 14.6436H92.5496V16.1036H78.1096V14.6436ZM92.0096 14.6436H92.4096L92.7696 14.5436L93.9296 15.3836C92.1496 17.5036 89.3296 19.8636 86.8496 21.2636C86.6296 20.9436 86.1496 20.4436 85.8296 20.2236C88.1096 18.9636 90.7496 16.6636 92.0096 15.0036V14.6436ZM98.9096 18.1436H104.69V19.3236H98.9096V18.1436ZM98.9096 21.5436H104.69V22.6836H98.9096V21.5436ZM98.9096 25.0236H104.69V26.2036H98.9096V25.0236ZM107.43 22.5436H115.05V23.8436H107.43V22.5436ZM99.9496 14.8636H103.27V16.0436H99.9496V14.8636ZM106.15 14.0836H113.97V15.3636H106.15V14.0836ZM105.91 26.2836H115.39V27.6236H105.91V26.2836ZM110.13 20.4836H111.57V31.3836H110.13V20.4836ZM101.39 18.7236H102.47V25.5236H101.39V18.7236ZM113.49 14.0836H114.85C114.85 14.0836 114.85 14.4636 114.83 14.6436C114.69 17.9836 114.49 19.2836 114.07 19.7436C113.79 20.0836 113.49 20.2036 112.97 20.2436C112.57 20.2836 111.73 20.2836 110.89 20.2436C110.87 19.8436 110.73 19.3236 110.55 18.9836C111.35 19.0636 112.07 19.0636 112.35 19.0636C112.63 19.0836 112.81 19.0436 112.93 18.8836C113.19 18.5836 113.35 17.4236 113.49 14.2836V14.0836ZM107.51 20.6636L108.81 20.9236C108.41 22.7836 107.71 24.6036 106.87 25.8036C106.61 25.6236 106.01 25.3236 105.69 25.1636C106.55 24.0436 107.17 22.3636 107.51 20.6636ZM99.9096 13.0636L101.29 13.3636C100.55 16.0636 99.3296 18.6436 97.9096 20.3436C97.6696 20.1036 97.0896 19.6436 96.7696 19.4436C98.1896 17.9036 99.3096 15.5236 99.9096 13.0636ZM98.3296 18.1436H99.5696V23.4636C99.5696 25.9036 99.3296 29.2836 97.9096 31.5036C97.6896 31.3036 97.1296 30.9636 96.8296 30.8236C98.1896 28.7036 98.3296 25.7236 98.3296 23.4636V18.1436ZM104.29 18.1436H105.55V29.8236C105.55 30.5636 105.39 30.9836 104.87 31.2036C104.37 31.4236 103.55 31.4436 102.17 31.4436C102.11 31.1036 101.89 30.5236 101.71 30.1636C102.73 30.2036 103.63 30.2036 103.91 30.1836C104.17 30.1636 104.29 30.0836 104.29 29.8236V18.1436ZM108.99 14.5036H110.37C110.03 17.2636 109.17 19.5436 106.37 20.8036C106.19 20.4836 105.83 20.0036 105.53 19.7836C107.99 18.7436 108.71 16.7636 108.99 14.5036ZM102.91 14.8636H103.21L103.41 14.7836L104.29 15.3636C103.87 16.6036 103.11 18.0836 102.51 19.0236C102.27 18.8236 101.83 18.5636 101.55 18.4436C102.05 17.5436 102.61 16.1036 102.91 15.1036V14.8636Z" fill="url(#paint1_linear_485_318)"/>
<path fill-rule="evenodd" clip-rule="evenodd" d="M191.262 26.8477L207.154 26.8477L191.262 13.2266V22.0402L162.285 22.0402V26.8477L191.262 26.8477ZM159.881 22.0402V26.8477H152.67V22.0402H159.881ZM150.266 26.8477V22.0402H143.055L143.055 26.8477H150.266Z" fill="url(#paint2_linear_485_318)"/>
<defs>
<linearGradient id="paint0_linear_485_318" x1="-0.314078" y1="1.22975" x2="233.112" y2="79.6064" gradientUnits="userSpaceOnUse">
<stop stop-color="#399983"/>
<stop offset="1" stop-color="#538AA2"/>
</linearGradient>
<linearGradient id="paint1_linear_485_318" x1="24.3371" y1="8.84782" x2="128.51" y2="32.7973" gradientUnits="userSpaceOnUse">
<stop stop-color="#399983"/>
<stop offset="1" stop-color="#538AA2"/>
</linearGradient>
<linearGradient id="paint2_linear_485_318" x1="142.972" y1="13.2187" x2="205.876" y2="31.1554" gradientUnits="userSpaceOnUse">
<stop stop-color="#399983"/>
<stop offset="1" stop-color="#538AA2"/>
</linearGradient>
</defs>
</svg>
