<svg width="25" height="25" viewBox="0 0 25 25" fill="none" xmlns="http://www.w3.org/2000/svg">
<path d="M14.4546 19.1904C13.8365 19.3072 13.2087 19.3658 12.5796 19.3654C8.10162 19.3654 4.31162 16.4224 3.03662 12.3654C3.37989 11.2735 3.90861 10.2488 4.59962 9.33636M10.4576 10.2444C11.0203 9.6817 11.7834 9.3656 12.5791 9.3656C13.3748 9.3656 14.138 9.6817 14.7006 10.2444C15.2633 10.807 15.5794 11.5701 15.5794 12.3659C15.5794 13.1616 15.2633 13.9247 14.7006 14.4874M10.4576 10.2444L14.7006 14.4874M10.4576 10.2444L14.6996 14.4854M14.7006 14.4874L17.9916 17.7774M10.4596 10.2454L7.16962 6.95536M7.16962 6.95536L3.57962 3.36536M7.16962 6.95536C8.78198 5.91492 10.6607 5.36276 12.5796 5.36536C17.0576 5.36536 20.8476 8.30836 22.1226 12.3654C21.4187 14.5958 19.957 16.5099 17.9906 17.7764M7.16962 6.95536L17.9906 17.7764M17.9906 17.7764L21.5796 21.3654" stroke="#C9C9C9" stroke-width="2" stroke-linecap="round" stroke-linejoin="round"/>
</svg>
