<svg width="29" height="29" viewBox="0 0 29 29" fill="none" xmlns="http://www.w3.org/2000/svg">
<path d="M20.9329 8.47854H20.9446M8.65325 3.21582H20.3482C23.5776 3.21582 26.1956 5.83382 26.1956 9.06328V20.7582C26.1956 23.9877 23.5776 26.6057 20.3482 26.6057H8.65325C5.42378 26.6057 2.80579 23.9877 2.80579 20.7582V9.06328C2.80579 5.83382 5.42378 3.21582 8.65325 3.21582ZM19.1787 14.174C19.323 15.1473 19.1568 16.1413 18.7036 17.0147C18.2504 17.8881 17.5334 18.5963 16.6545 19.0387C15.7756 19.481 14.7796 19.635 13.8081 19.4787C12.8367 19.3224 11.9392 18.8637 11.2435 18.168C10.5477 17.4722 10.0891 16.5748 9.93275 15.6033C9.77643 14.6319 9.93041 13.6359 10.3728 12.757C10.8152 11.8781 11.5234 11.161 12.3968 10.7079C13.2701 10.2547 14.2642 10.0884 15.2375 10.2328C16.2303 10.38 17.1494 10.8426 17.8591 11.5523C18.5688 12.262 19.0315 13.1812 19.1787 14.174Z" stroke="#B3B3B3" stroke-width="2" stroke-linecap="round" stroke-linejoin="round"/>
</svg>
