<svg width="197" height="59" viewBox="0 0 197 59" fill="none" xmlns="http://www.w3.org/2000/svg">
<path fill-rule="evenodd" clip-rule="evenodd" d="M88.2837 41.124C88.8825 40.9687 89.3372 40.7359 89.6475 40.4255V23.3289C89.6475 22.2423 89.3923 21.5328 88.8825 21.2002C88.3726 20.8454 87.6295 20.668 86.6539 20.668C86.1659 20.668 85.667 20.7012 85.1571 20.7678C84.6692 20.8343 84.3033 20.9008 84.0595 20.9673V26.3557C84.0595 27.5532 84.0704 28.7506 84.0927 29.948C84.115 31.1455 84.1702 32.3429 84.2591 33.5403L84.0927 33.5736C83.7824 32.7753 83.494 32.0768 83.2279 31.4781C82.9618 30.8572 82.6625 30.203 82.3299 29.5156L79.0037 22.7967C78.5603 21.8875 77.9616 21.311 77.2075 21.0671C76.4758 20.801 75.6998 20.668 74.8792 20.668C74.1475 20.668 73.4599 20.7788 72.817 21.0006C72.174 21.2223 71.697 21.5549 71.3867 21.9984V34.8998C72.2281 34.5273 73.159 34.3204 74.1384 34.3204C75.1498 34.3204 76.1099 34.5412 76.9728 34.9371C76.9687 34.0294 76.9581 33.1093 76.9414 32.1766C76.9414 30.9348 76.8972 29.7152 76.8084 28.5178L77.008 28.4845C77.3183 29.2828 77.6067 29.9924 77.8728 30.6133C78.1389 31.212 78.4382 31.855 78.7708 32.5424L82.0638 39.2614C82.5294 40.1927 83.1282 40.7805 83.8599 41.0243C84.5917 41.2681 85.3677 41.3901 86.1882 41.3901C87.0088 41.3901 87.7073 41.3013 88.2837 41.124ZM76.9747 37.1111C76.1734 36.5437 75.1948 36.2103 74.1384 36.2103C73.119 36.2103 72.1718 36.5208 71.3867 37.0525V38.6294C71.3867 39.1839 71.4532 39.6382 71.5863 39.9931C71.7193 40.3258 71.9079 40.5919 72.1517 40.7914C72.3955 40.991 72.7062 41.124 73.0831 41.1906C73.4599 41.2571 73.8923 41.2904 74.3803 41.2904C74.8683 41.2904 75.3558 41.2571 75.8438 41.1906C76.3537 41.124 76.7309 41.0575 76.9747 40.991V37.1111ZM101.014 37.432C100.57 37.4985 100.16 37.5318 99.7829 37.5318C98.9623 37.5318 98.3746 37.3987 98.02 37.1326C97.6874 36.8442 97.5211 36.4784 97.5211 36.0349C97.5211 35.5915 97.7207 35.2588 98.1198 35.0371C98.5189 34.8153 99.0288 34.6823 99.6498 34.6379L102.045 34.4384V37.0994C101.823 37.2324 101.479 37.3432 101.014 37.432ZM102.776 24.8257C101.801 24.5818 100.714 24.4598 99.5168 24.4598C98.7404 24.4598 97.9089 24.5152 97.0222 24.6261C96.1573 24.737 95.4033 24.9144 94.7604 25.1583C94.1836 25.4022 93.7512 25.7016 93.4631 26.0564C93.197 26.389 93.064 26.8436 93.064 27.4201C93.064 27.8636 93.1638 28.296 93.3634 28.7173C93.5629 29.1165 93.8067 29.4158 94.0951 29.6154C94.738 29.3493 95.4589 29.1276 96.2571 28.9502C97.0554 28.7727 97.8756 28.6841 98.7185 28.6841C99.7829 28.6841 100.592 28.8282 101.147 29.1165C101.723 29.3826 102.011 29.8371 102.011 30.4802V30.713L97.6541 31.1787C95.7469 31.3783 94.3389 31.8883 93.4299 32.7088C92.5205 33.5292 92.0661 34.7045 92.0661 36.2345C92.0661 37.1436 92.2434 37.9419 92.5983 38.6294C92.9752 39.3169 93.4964 39.8824 94.1616 40.3258C94.8488 40.7691 95.6584 41.1017 96.5897 41.3236C97.543 41.5455 98.6074 41.6562 99.7829 41.6562C102.399 41.6562 104.428 41.2238 105.87 40.359C106.313 40.0929 106.69 39.7826 107.001 39.4277C107.333 39.0508 107.5 38.5738 107.5 37.9974V30.5467C107.5 29.5045 107.311 28.6064 106.934 27.8525C106.557 27.0764 106.014 26.4444 105.304 25.9566C104.617 25.4466 103.774 25.0696 102.776 24.8257ZM116.478 36.8C116.124 36.556 115.946 36.1458 115.946 35.5693V30.5467H118.973C119.55 30.5467 120.004 30.3804 120.337 30.0478C120.691 29.693 120.869 29.1276 120.869 28.3515C120.869 27.9079 120.802 27.5088 120.669 27.154C120.558 26.777 120.437 26.4666 120.304 26.2227H115.946V24.0939C115.946 22.9852 115.669 22.2645 115.115 21.9319C114.583 21.5771 113.828 21.3997 112.853 21.3997C112.343 21.3997 111.855 21.4441 111.389 21.5328C110.946 21.5993 110.602 21.6658 110.358 21.7323V35.9684C110.358 37.9642 110.879 39.4054 111.922 40.2925C112.986 41.1796 114.494 41.623 116.445 41.623C118.042 41.623 119.15 41.3569 119.771 40.8247C120.414 40.2925 120.736 39.605 120.736 38.7625C120.736 38.341 120.658 37.9865 120.503 37.6981C120.37 37.3878 120.204 37.1103 120.004 36.8665C119.738 36.9554 119.427 37.0328 119.073 37.0994C118.718 37.1436 118.374 37.1659 118.042 37.1659C117.377 37.1659 116.855 37.0438 116.478 36.8ZM123.975 24.992C123.51 25.0585 123.166 25.1251 122.944 25.1916V34.7045C122.944 35.9462 123.144 37.0105 123.543 37.8976C123.942 38.7625 124.507 39.4719 125.239 40.0264C125.971 40.5809 126.836 40.991 127.834 41.2571C128.854 41.5232 129.962 41.6562 131.16 41.6562C132.424 41.6562 133.588 41.5232 134.652 41.2571C135.739 41.0133 136.67 40.6474 137.446 40.1594C138.378 39.605 138.843 38.7734 138.843 37.6648V27.5532C138.843 26.9988 138.766 26.5553 138.61 26.2227C138.477 25.8679 138.278 25.5907 138.012 25.3912C137.746 25.1916 137.413 25.0585 137.014 24.992C136.637 24.9255 136.205 24.8922 135.717 24.8922C135.207 24.8922 134.708 24.9255 134.22 24.992C133.754 25.0585 133.411 25.1251 133.189 25.1916V36.8333C133.011 36.9221 132.756 37.0105 132.424 37.0994C132.113 37.1882 131.703 37.2324 131.193 37.2324C130.351 37.2324 129.707 37.0438 129.264 36.667C128.82 36.2678 128.599 35.6136 128.599 34.7045V27.5532C128.599 26.9988 128.521 26.5553 128.366 26.2227C128.233 25.8679 128.033 25.5907 127.767 25.3912C127.501 25.1916 127.168 25.0585 126.769 24.992C126.392 24.9255 125.96 24.8922 125.472 24.8922C124.962 24.8922 124.463 24.9255 123.975 24.992ZM146.229 41.2904C146.716 41.2238 147.071 41.1573 147.293 41.0908V29.7485C147.581 29.6154 147.925 29.5045 148.324 29.4158C148.745 29.3049 149.189 29.2052 149.654 29.1165C150.12 29.0278 150.597 28.9612 151.085 28.9169C151.573 28.8725 152.049 28.8504 152.515 28.8504C152.648 28.6064 152.759 28.3403 152.848 28.0521C152.936 27.7416 152.981 27.4312 152.981 27.1208C152.981 26.1894 152.67 25.5242 152.049 25.1251C151.428 24.7037 150.586 24.4931 149.521 24.4931C148.879 24.4931 148.235 24.5485 147.592 24.6594C146.949 24.7481 146.328 24.8811 145.73 25.0585C145.131 25.2359 144.565 25.4466 144.033 25.6905C143.523 25.9122 143.091 26.1672 142.736 26.4555C142.381 26.7438 142.104 27.0764 141.904 27.4534C141.727 27.8082 141.638 28.2406 141.638 28.7506V38.7292C141.638 39.2837 141.705 39.738 141.838 40.0929C141.993 40.4255 142.204 40.6916 142.47 40.8912C142.736 41.0908 143.058 41.2238 143.435 41.2904C143.834 41.3569 144.277 41.3901 144.765 41.3901C145.275 41.3901 145.763 41.3569 146.229 41.2904ZM166.39 40.2592C167.654 39.3056 168.286 37.9865 168.286 36.301C168.286 34.9484 167.831 33.8507 166.922 33.0081C166.035 32.1433 164.527 31.467 162.398 30.9791L161.367 30.7463C160.746 30.6133 160.325 30.4691 160.103 30.3139C159.881 30.1587 159.771 29.9591 159.771 29.7152C159.771 29.3604 159.97 29.1054 160.369 28.9502C160.768 28.7727 161.334 28.6841 162.066 28.6841C162.42 28.6841 162.808 28.7173 163.23 28.7839C163.673 28.8504 164.106 28.9391 164.527 29.05C164.948 29.1386 165.336 29.2495 165.691 29.3826C166.046 29.4934 166.312 29.6043 166.49 29.7152C166.778 29.4712 167.01 29.1719 167.188 28.8171C167.388 28.4401 167.487 27.9966 167.487 27.4866C167.487 26.9545 167.332 26.4999 167.022 26.1229C166.711 25.7238 166.29 25.4022 165.758 25.1583C165.226 24.9144 164.594 24.737 163.862 24.6261C163.152 24.4931 162.387 24.4266 161.567 24.4266C160.48 24.4266 159.482 24.5485 158.573 24.7924C157.686 25.0363 156.921 25.38 156.278 25.8236C155.635 26.267 155.136 26.8214 154.781 27.4866C154.426 28.1519 154.249 28.8947 154.249 29.7152C154.249 31.2231 154.715 32.3872 155.646 33.2077C156.599 34.006 158.041 34.5936 159.97 34.9706L160.968 35.1701C161.589 35.281 162.032 35.4251 162.299 35.6025C162.565 35.7799 162.698 36.0238 162.698 36.3343C162.698 36.667 162.509 36.9331 162.132 37.1326C161.777 37.3322 161.256 37.432 160.569 37.432C159.482 37.432 158.518 37.2989 157.675 37.0328C156.855 36.7444 156.123 36.423 155.48 36.0682C155.169 36.3121 154.903 36.6227 154.682 36.9996C154.46 37.3545 154.349 37.7979 154.349 38.33C154.349 38.9065 154.504 39.4054 154.815 39.8268C155.147 40.2483 155.591 40.6028 156.145 40.8912C156.722 41.1573 157.409 41.3569 158.207 41.4899C159.006 41.623 159.87 41.6895 160.802 41.6895C163.263 41.6895 165.126 41.2129 166.39 40.2592Z" fill="#B3B3B3"/>
<path d="M179.928 37.5315C180.305 37.5315 180.715 37.4982 181.158 37.4317C181.624 37.3429 181.968 37.2321 182.19 37.0991V34.4382L179.795 34.6377C179.174 34.6821 178.664 34.8151 178.265 35.0369C177.865 35.2586 177.666 35.5912 177.666 36.0347C177.666 36.4782 177.832 36.844 178.165 37.1324C178.52 37.3985 179.107 37.5315 179.928 37.5315ZM179.662 24.4596C180.859 24.4596 181.946 24.5816 182.921 24.8255C183.919 25.0694 184.762 25.4464 185.449 25.9564C186.159 26.4442 186.702 27.0762 187.079 27.8523C187.456 28.6063 187.644 29.5043 187.644 30.5465V37.9972C187.644 38.5736 187.478 39.0506 187.146 39.4274C186.835 39.7823 186.458 40.0927 186.015 40.3588C184.573 41.2236 182.544 41.656 179.928 41.656C178.753 41.656 177.688 41.5452 176.735 41.3234C175.803 41.1015 174.994 40.7689 174.306 40.3255C173.641 39.8821 173.12 39.3167 172.743 38.6291C172.388 37.9416 172.211 37.1433 172.211 36.2343C172.211 34.7042 172.666 33.529 173.575 32.7085C174.484 31.8881 175.892 31.3781 177.799 31.1785L182.156 30.7128V30.48C182.156 29.8369 181.868 29.3824 181.291 29.1163C180.737 28.828 179.928 28.6839 178.863 28.6839C178.021 28.6839 177.2 28.7726 176.402 28.9499C175.604 29.1273 174.883 29.3491 174.24 29.6152C173.952 29.4156 173.708 29.1163 173.508 28.7171C173.309 28.2958 173.209 27.8634 173.209 27.4199C173.209 26.8434 173.342 26.3888 173.608 26.0562C173.896 25.7014 174.329 25.402 174.905 25.1581C175.548 24.9142 176.302 24.7368 177.167 24.6259C178.054 24.515 178.886 24.4596 179.662 24.4596ZM190.303 20.4682C190.303 19.6256 190.581 18.9159 191.135 18.3394C191.712 17.7629 192.466 17.4746 193.397 17.4746C194.328 17.4746 195.071 17.7629 195.625 18.3394C196.202 18.9159 196.49 19.6256 196.49 20.4682C196.49 21.3108 196.202 22.0204 195.625 22.5969C195.071 23.1735 194.328 23.4617 193.397 23.4617C192.466 23.4617 191.712 23.1735 191.135 22.5969C190.581 22.0204 190.303 21.3108 190.303 20.4682ZM196.224 41.0905C195.98 41.1347 195.614 41.1903 195.126 41.2568C194.661 41.3457 194.184 41.3899 193.696 41.3899C193.209 41.3899 192.765 41.3566 192.366 41.2901C191.989 41.2236 191.667 41.0905 191.401 40.891C191.135 40.6914 190.925 40.4253 190.769 40.0927C190.636 39.7377 190.57 39.2834 190.57 38.7289V25.1914C190.814 25.147 191.168 25.0916 191.634 25.025C192.122 24.9363 192.61 24.892 193.098 24.892C193.585 24.892 194.018 24.9253 194.395 24.9918C194.794 25.0583 195.126 25.1914 195.393 25.3909C195.659 25.5905 195.858 25.8677 195.991 26.2225C196.147 26.5551 196.224 26.9986 196.224 27.5529V41.0905Z" fill="white"/>
<path d="M74.1402 46.0383C76.854 46.0383 79.0539 43.8384 79.0539 41.1246C79.0539 38.4109 76.854 36.2109 74.1402 36.2109C71.4265 36.2109 69.2266 38.4109 69.2266 41.1246C69.2266 43.8384 71.4265 46.0383 74.1402 46.0383Z" fill="#B3B3B3"/>
<rect x="64.6328" y="38.1758" width="7.55951" height="35.1517" rx="3.77976" transform="rotate(90 64.6328 38.1758)" fill="url(#paint0_linear_692_728)"/>
<path fill-rule="evenodd" clip-rule="evenodd" d="M38.9315 25.5133C38.9315 32.924 32.924 38.9315 25.5133 38.9315C18.1027 38.9315 12.0952 32.924 12.0952 25.5133C12.0952 18.1027 18.1027 12.0952 25.5133 12.0952C32.924 12.0952 38.9315 18.1027 38.9315 25.5133ZM43.0897 44.0067C38.514 48.357 32.3254 51.0267 25.5133 51.0267C11.4227 51.0267 0 39.604 0 25.5133C0 11.4227 11.4227 0 25.5133 0C32.9214 0 39.5921 3.15732 44.253 8.19972C44.7661 7.79873 45.4119 7.55976 46.1135 7.55976H48.0034C49.6734 7.55976 51.0272 8.91356 51.0272 10.5836V55.5627C51.0272 57.2327 49.6734 58.5865 48.0034 58.5865H46.1135C44.4435 58.5865 43.0897 57.2327 43.0897 55.5627V44.0067Z" fill="url(#paint1_linear_692_728)"/>
<defs>
<linearGradient id="paint0_linear_692_728" x1="68.4126" y1="38.1758" x2="68.4126" y2="73.3275" gradientUnits="userSpaceOnUse">
<stop stop-color="white"/>
<stop offset="1" stop-color="#B3B3B3"/>
</linearGradient>
<linearGradient id="paint1_linear_692_728" x1="51.0272" y1="29.2932" x2="0" y2="29.2932" gradientUnits="userSpaceOnUse">
<stop stop-color="#B3B3B3"/>
<stop offset="1" stop-color="white"/>
</linearGradient>
</defs>
</svg>
