<svg width="341" height="105" viewBox="0 0 341 105" fill="none" xmlns="http://www.w3.org/2000/svg">
<g clip-path="url(#clip0_485_342)">
<path fill-rule="evenodd" clip-rule="evenodd" d="M153.254 73.568C154.291 73.2913 155.078 72.8767 155.616 72.3241V41.8793C155.616 39.9444 155.174 38.6808 154.291 38.0885C153.408 37.4567 152.121 37.1408 150.432 37.1408C149.587 37.1408 148.723 37.2001 147.84 37.3185C146.995 37.437 146.362 37.5554 145.94 37.6739V47.2693C145.94 49.4016 145.959 51.5339 145.997 53.6662C146.036 55.7985 146.131 57.9308 146.285 60.0631L145.997 60.1224C145.46 58.7008 144.96 57.457 144.5 56.3908C144.039 55.2852 143.52 54.1203 142.945 52.8962L137.185 40.9316C136.417 39.3126 135.38 38.2859 134.075 37.8516C132.807 37.3778 131.464 37.1408 130.043 37.1408C128.776 37.1408 127.585 37.3382 126.472 37.7331C125.358 38.128 124.532 38.7203 123.995 39.5101V62.4841C125.452 61.8208 127.064 61.4524 128.76 61.4524C130.511 61.4524 132.174 61.8454 133.668 62.5504C133.661 60.9342 133.643 59.2956 133.614 57.6347C133.614 55.4234 133.537 53.2516 133.383 51.1193L133.729 51.0601C134.266 52.4816 134.766 53.7452 135.227 54.8508C135.687 55.917 136.206 57.0621 136.782 58.2862L142.484 70.251C143.29 71.9095 144.327 72.9561 145.594 73.3903C146.861 73.8244 148.205 74.0418 149.626 74.0418C151.047 74.0418 152.256 73.8836 153.254 73.568ZM133.671 66.4218C132.284 65.4115 130.589 64.8178 128.76 64.8178C126.995 64.8178 125.355 65.3707 123.995 66.3174V69.1256C123.995 70.1131 124.11 70.9221 124.341 71.5541C124.571 72.1464 124.898 72.6203 125.32 72.9756C125.742 73.331 126.28 73.568 126.933 73.6864C127.585 73.8049 128.334 73.8641 129.179 73.8641C130.024 73.8641 130.868 73.8049 131.713 73.6864C132.596 73.568 133.249 73.4495 133.671 73.331V66.4218ZM175.298 66.9932C174.529 67.1117 173.819 67.1709 173.167 67.1709C171.746 67.1709 170.728 66.934 170.114 66.4601C169.538 65.9466 169.25 65.2952 169.25 64.5054C169.25 63.7157 169.596 63.1234 170.287 62.7285C170.978 62.3336 171.861 62.0967 172.936 62.0178L177.083 61.6624V66.4009C176.699 66.6378 176.104 66.835 175.298 66.9932ZM178.35 44.5447C176.66 44.1103 174.779 43.8931 172.706 43.8931C171.361 43.8931 169.921 43.9918 168.386 44.1893C166.888 44.3867 165.583 44.7026 164.469 45.137C163.471 45.5713 162.722 46.1044 162.223 46.7362C161.762 47.3285 161.532 48.138 161.532 49.1647C161.532 49.9544 161.705 50.7244 162.05 51.4747C162.396 52.1854 162.818 52.7185 163.317 53.0739C164.431 52.6001 165.679 52.2052 167.061 51.8893C168.444 51.5733 169.864 51.4154 171.323 51.4154C173.167 51.4154 174.568 51.6721 175.528 52.1854C176.526 52.6593 177.026 53.4687 177.026 54.6139V55.0285L169.48 55.8578C166.178 56.2131 163.74 57.1213 162.166 58.5824C160.591 60.0434 159.804 62.1362 159.804 64.8608C159.804 66.4797 160.111 67.9013 160.726 69.1256C161.378 70.35 162.281 71.3569 163.433 72.1464C164.623 72.9359 166.025 73.5282 167.637 73.9233C169.288 74.3184 171.131 74.5156 173.167 74.5156C177.697 74.5156 181.21 73.7457 183.707 72.2057C184.475 71.7318 185.127 71.1792 185.665 70.5472C186.241 69.8761 186.529 69.0267 186.529 68.0003V54.7324C186.529 52.8764 186.202 51.2772 185.55 49.9347C184.897 48.5526 183.956 47.4272 182.728 46.5585C181.537 45.6503 180.078 44.979 178.35 44.5447ZM202.077 65.8678C201.462 65.4334 201.155 64.7029 201.155 63.6762V54.7324H206.397C207.395 54.7324 208.182 54.4362 208.758 53.8439C209.372 53.2121 209.68 52.2052 209.68 50.8231C209.68 50.0333 209.565 49.3226 209.334 48.6908C209.142 48.0195 208.931 47.4667 208.701 47.0324H201.155V43.2416C201.155 41.2672 200.675 39.9839 199.715 39.3916C198.794 38.7598 197.488 38.4439 195.799 38.4439C194.915 38.4439 194.071 38.5229 193.265 38.6808C192.496 38.7993 191.901 38.9178 191.479 39.0362V64.387C191.479 67.941 192.381 70.5075 194.186 72.0872C196.029 73.6669 198.64 74.4564 202.019 74.4564C204.784 74.4564 206.704 73.9826 207.779 73.0349C208.892 72.0872 209.449 70.8629 209.449 69.3626C209.449 68.6121 209.314 67.9807 209.046 67.4672C208.816 66.9145 208.528 66.4204 208.182 65.9863C207.721 66.1445 207.183 66.2824 206.569 66.4009C205.955 66.4797 205.36 66.5194 204.784 66.5194C203.632 66.5194 202.729 66.302 202.077 65.8678ZM215.058 44.8408C214.252 44.9593 213.657 45.0778 213.273 45.1962V62.1362C213.273 64.3475 213.619 66.2427 214.31 67.8226C215.001 69.3626 215.98 70.6259 217.247 71.6133C218.514 72.6007 220.012 73.331 221.74 73.8049C223.506 74.2787 225.426 74.5156 227.499 74.5156C229.688 74.5156 231.704 74.2787 233.547 73.8049C235.429 73.3707 237.042 72.7192 238.385 71.8503C239.998 70.8629 240.804 69.3821 240.804 67.408V49.4016C240.804 48.4144 240.67 47.6247 240.401 47.0324C240.171 46.4006 239.825 45.907 239.364 45.5516C238.904 45.1962 238.328 44.9593 237.636 44.8408C236.984 44.7224 236.235 44.6631 235.39 44.6631C234.507 44.6631 233.643 44.7224 232.798 44.8408C231.992 44.9593 231.397 45.0778 231.013 45.1962V65.9271C230.706 66.0852 230.264 66.2427 229.688 66.4009C229.151 66.5591 228.44 66.6378 227.557 66.6378C226.098 66.6378 224.984 66.302 224.216 65.6309C223.449 64.9201 223.064 63.7552 223.064 62.1362V49.4016C223.064 48.4144 222.93 47.6247 222.661 47.0324C222.431 46.4006 222.085 45.907 221.625 45.5516C221.164 45.1962 220.588 44.9593 219.897 44.8408C219.244 44.7224 218.495 44.6631 217.65 44.6631C216.767 44.6631 215.903 44.7224 215.058 44.8408ZM253.593 73.8641C254.438 73.7456 255.052 73.6272 255.436 73.5087V53.3108C255.935 53.0739 256.53 52.8764 257.221 52.7185C257.951 52.521 258.719 52.3434 259.525 52.1854C260.332 52.0275 261.157 51.909 262.002 51.8301C262.847 51.751 263.672 51.7116 264.479 51.7116C264.709 51.2772 264.901 50.8033 265.055 50.2901C265.208 49.7372 265.285 49.1844 265.285 48.6316C265.285 46.9731 264.748 45.7885 263.672 45.0778C262.597 44.3275 261.138 43.9524 259.295 43.9524C258.182 43.9524 257.068 44.051 255.954 44.2485C254.841 44.4064 253.766 44.6434 252.729 44.9593C251.692 45.2752 250.713 45.6503 249.791 46.0847C248.908 46.4795 248.16 46.9336 247.545 47.447C246.931 47.9603 246.451 48.5526 246.105 49.2239C245.798 49.8557 245.644 50.6257 245.644 51.5339V69.3033C245.644 70.2907 245.76 71.0998 245.99 71.7318C246.259 72.3241 246.624 72.798 247.084 73.1533C247.545 73.5087 248.102 73.7456 248.755 73.8641C249.446 73.9826 250.214 74.0418 251.059 74.0418C251.941 74.0418 252.786 73.9826 253.593 73.8641ZM288.504 72.028C290.693 70.3298 291.787 67.9807 291.787 64.9793C291.787 62.5706 291 60.6159 289.426 59.1154C287.89 57.5754 285.279 56.371 281.593 55.5024L279.807 55.0878C278.732 54.8508 278.002 54.5941 277.619 54.3178C277.234 54.0413 277.043 53.6859 277.043 53.2516C277.043 52.6198 277.388 52.1657 278.079 51.8893C278.771 51.5733 279.75 51.4154 281.017 51.4154C281.631 51.4154 282.303 51.4747 283.033 51.5931C283.8 51.7116 284.549 51.8695 285.279 52.067C286.008 52.2249 286.68 52.4224 287.295 52.6593C287.909 52.8567 288.37 53.0541 288.677 53.2516C289.176 52.8172 289.579 52.2841 289.887 51.6524C290.232 50.981 290.405 50.1913 290.405 49.2831C290.405 48.3354 290.136 47.5259 289.599 46.8547C289.061 46.1439 288.332 45.5713 287.41 45.137C286.489 44.7026 285.394 44.3867 284.127 44.1893C282.898 43.9524 281.573 43.8339 280.153 43.8339C278.271 43.8339 276.543 44.051 274.969 44.4854C273.433 44.9198 272.108 45.5318 270.995 46.3216C269.881 47.1113 269.017 48.0985 268.403 49.2831C267.788 50.4678 267.482 51.7906 267.482 53.2516C267.482 55.9367 268.288 58.0098 269.901 59.4708C271.551 60.8924 274.048 61.9388 277.388 62.6101L279.116 62.9654C280.191 63.1629 280.959 63.4195 281.42 63.7355C281.881 64.0513 282.111 64.4857 282.111 65.0385C282.111 65.6309 281.785 66.1047 281.132 66.4601C280.517 66.8155 279.615 66.9932 278.425 66.9932C276.543 66.9932 274.873 66.7563 273.414 66.2824C271.993 65.7689 270.726 65.1965 269.613 64.5647C269.075 64.999 268.614 65.5522 268.23 66.2232C267.846 66.8552 267.654 67.6449 267.654 68.5926C267.654 69.619 267.923 70.5075 268.461 71.258C269.037 72.0084 269.804 72.6398 270.765 73.1533C271.763 73.6272 272.953 73.9826 274.336 74.2195C275.718 74.4564 277.215 74.5749 278.828 74.5749C283.09 74.5749 286.316 73.7261 288.504 72.028Z" fill="#538AA2"/>
<path d="M311.944 67.1707C312.597 67.1707 313.307 67.1114 314.075 66.993C314.881 66.8348 315.476 66.6376 315.861 66.4007V61.6622L311.714 62.0176C310.638 62.0965 309.755 62.3335 309.064 62.7284C308.373 63.1233 308.027 63.7156 308.027 64.5053C308.027 65.295 308.315 65.9463 308.891 66.4599C309.506 66.9337 310.523 67.1707 311.944 67.1707ZM311.483 43.893C313.557 43.893 315.438 44.1102 317.128 44.5445C318.856 44.9789 320.315 45.6502 321.505 46.5584C322.734 47.4271 323.675 48.5525 324.327 49.9345C324.98 51.2771 325.307 52.8763 325.307 54.7322V68C325.307 69.0264 325.019 69.8758 324.443 70.5469C323.905 71.1789 323.252 71.7315 322.484 72.2054C319.989 73.7453 316.475 74.5154 311.944 74.5154C309.909 74.5154 308.066 74.3181 306.415 73.923C304.802 73.528 303.401 72.9356 302.21 72.1461C301.058 71.3566 300.156 70.3497 299.503 69.1253C298.889 67.901 298.582 66.4794 298.582 64.8607C298.582 62.1361 299.369 60.0433 300.943 58.5822C302.517 57.1212 304.956 56.213 308.258 55.8576L315.803 55.0284V54.6137C315.803 53.4686 315.304 52.6591 314.305 52.1853C313.345 51.6719 311.944 51.4153 310.101 51.4153C308.642 51.4153 307.221 51.5733 305.839 51.8891C304.456 52.205 303.208 52.5999 302.095 53.0737C301.596 52.7184 301.173 52.1853 300.828 51.4745C300.482 50.7242 300.309 49.9542 300.309 49.1645C300.309 48.1379 300.54 47.3284 301.001 46.7361C301.5 46.1042 302.249 45.5712 303.247 45.1368C304.36 44.7025 305.666 44.3865 307.163 44.1891C308.7 43.9917 310.14 43.893 311.483 43.893ZM329.911 36.7853C329.911 35.2848 330.391 34.0212 331.351 32.9945C332.35 31.9679 333.655 31.4545 335.268 31.4545C336.88 31.4545 338.167 31.9679 339.127 32.9945C340.125 34.0212 340.624 35.2848 340.624 36.7853C340.624 38.2858 340.125 39.5494 339.127 40.5761C338.167 41.6027 336.88 42.1161 335.268 42.1161C333.655 42.1161 332.35 41.6027 331.351 40.5761C330.391 39.5494 329.911 38.2858 329.911 36.7853ZM340.163 73.5084C339.741 73.5872 339.108 73.6861 338.263 73.8046C337.456 73.9628 336.631 74.0415 335.786 74.0415C334.942 74.0415 334.173 73.9823 333.482 73.8638C332.829 73.7453 332.272 73.5084 331.812 73.153C331.351 72.7977 330.986 72.3238 330.717 71.7315C330.487 71.0995 330.372 70.2904 330.372 69.303V45.1961C330.795 45.1171 331.409 45.0184 332.215 44.8999C333.06 44.7419 333.905 44.663 334.749 44.663C335.594 44.663 336.343 44.7222 336.995 44.8407C337.687 44.9591 338.263 45.1961 338.723 45.5514C339.184 45.9068 339.53 46.4004 339.76 47.0322C340.029 47.6245 340.163 48.4142 340.163 49.4014V73.5084Z" fill="#399983"/>
<path d="M128.76 82.318C133.459 82.318 137.268 78.4 137.268 73.568C137.268 68.7353 133.459 64.8178 128.76 64.8178C124.06 64.8178 120.251 68.7353 120.251 73.568C120.251 78.4 124.06 82.318 128.76 82.318Z" fill="#538AA2"/>
<path d="M112.298 77.7404V72.3558C112.298 70.1254 110.54 68.3173 108.371 68.3173H55.3559C53.1871 68.3173 51.4289 70.1254 51.4289 72.3558V77.7404C51.4289 79.9708 53.1871 81.7788 55.3559 81.7788H108.371C110.54 81.7788 112.298 79.9708 112.298 77.7404Z" fill="url(#paint0_linear_485_342)"/>
<path fill-rule="evenodd" clip-rule="evenodd" d="M67.7904 45.7692C67.7904 58.9656 57.3878 69.6635 44.5554 69.6635C31.723 69.6635 21.3203 58.9656 21.3203 45.7692C21.3203 32.5728 31.723 21.875 44.5554 21.875C57.3878 21.875 67.7904 32.5728 67.7904 45.7692ZM74.9901 78.7022C67.0665 86.448 56.351 91.2019 44.5554 91.2019C20.1558 91.2019 0.375977 70.8609 0.375977 45.7692C0.375977 20.6775 20.1558 0.33654 44.5554 0.33654C57.3831 0.33654 68.9339 5.95863 77.0046 14.9375C77.8935 14.2235 79.0114 13.7981 80.2261 13.7981H83.4987C86.3903 13.7981 88.7348 16.2088 88.7348 19.1827V45.7692V99.2788C88.7348 102.253 86.3903 104.663 83.4987 104.663H80.2261C77.3345 104.663 74.9901 102.253 74.9901 99.2788V78.7022Z" fill="url(#paint1_linear_485_342)"/>
</g>
<defs>
<linearGradient id="paint0_linear_485_342" x1="112.298" y1="75.0481" x2="51.4289" y2="75.0481" gradientUnits="userSpaceOnUse">
<stop stop-color="#399983"/>
<stop offset="1" stop-color="#538AA1"/>
</linearGradient>
<linearGradient id="paint1_linear_485_342" x1="88.7348" y1="52.5" x2="0.375977" y2="52.5" gradientUnits="userSpaceOnUse">
<stop stop-color="#538AA1"/>
<stop offset="1" stop-color="#399983"/>
</linearGradient>
<clipPath id="clip0_485_342">
<rect width="341" height="105" fill="white"/>
</clipPath>
</defs>
</svg>
